<mxfile host="app.diagrams.net" modified="2023-11-23T06:04:51.868Z" agent="Mozilla/5.0 (Windows NT 10.0; Win64; x64) AppleWebKit/537.36 (KHTML, like Gecko) Chrome/119.0.0.0 Safari/537.36 Edg/119.0.0.0" etag="yPMJB1C1IDhmot5VrJhI" version="22.1.3" type="github">
  <diagram name="Page-1" id="4nK_Ot5DEDJuPcds9u1p">
    <mxGraphModel dx="1559" dy="1620" grid="1" gridSize="10" guides="1" tooltips="1" connect="1" arrows="1" fold="1" page="1" pageScale="1" pageWidth="827" pageHeight="1169" math="0" shadow="0">
      <root>
        <mxCell id="0" />
        <mxCell id="1" parent="0" />
        <mxCell id="DjmhpiTltckPPBlG-SaG-148" style="edgeStyle=orthogonalEdgeStyle;rounded=0;orthogonalLoop=1;jettySize=auto;html=1;entryX=0.005;entryY=0.356;entryDx=0;entryDy=0;entryPerimeter=0;exitX=1;exitY=0.5;exitDx=0;exitDy=0;" parent="1" source="DjmhpiTltckPPBlG-SaG-57" target="DjmhpiTltckPPBlG-SaG-149" edge="1">
          <mxGeometry relative="1" as="geometry">
            <mxPoint x="1350" y="970" as="targetPoint" />
            <mxPoint x="1590" y="957" as="sourcePoint" />
          </mxGeometry>
        </mxCell>
        <mxCell id="DjmhpiTltckPPBlG-SaG-155" value="Encrypted&lt;br style=&quot;border-color: var(--border-color); font-size: 18px;&quot;&gt;&lt;span style=&quot;font-size: 18px;&quot;&gt;and Hashed&lt;/span&gt;&lt;br style=&quot;border-color: var(--border-color); font-size: 18px;&quot;&gt;&lt;span style=&quot;font-size: 18px;&quot;&gt;data&lt;/span&gt;" style="edgeLabel;html=1;align=center;verticalAlign=middle;resizable=0;points=[];fontSize=18;" parent="DjmhpiTltckPPBlG-SaG-148" vertex="1" connectable="0">
          <mxGeometry x="-0.1445" y="-5" relative="1" as="geometry">
            <mxPoint x="17" as="offset" />
          </mxGeometry>
        </mxCell>
        <mxCell id="DjmhpiTltckPPBlG-SaG-57" value="" style="rounded=0;whiteSpace=wrap;html=1;fillColor=#cdeb8b;strokeColor=#36393d;" parent="1" vertex="1">
          <mxGeometry x="120" y="890" width="1940" height="160" as="geometry" />
        </mxCell>
        <mxCell id="DjmhpiTltckPPBlG-SaG-2" value="" style="image;aspect=fixed;perimeter=ellipsePerimeter;html=1;align=center;shadow=0;dashed=0;spacingTop=3;image=img/lib/active_directory/user.svg;" parent="1" vertex="1">
          <mxGeometry y="899.64" width="44.53" height="120.36" as="geometry" />
        </mxCell>
        <mxCell id="DjmhpiTltckPPBlG-SaG-6" value="Resident" style="text;html=1;align=center;verticalAlign=middle;resizable=0;points=[];autosize=1;strokeColor=none;fillColor=none;fontSize=23;" parent="1" vertex="1">
          <mxGeometry x="-100" y="946.31" width="110" height="40" as="geometry" />
        </mxCell>
        <mxCell id="DjmhpiTltckPPBlG-SaG-34" value="&lt;font style=&quot;font-size: 18px;&quot;&gt;&lt;br&gt;BFF (Backend for Frontend)&lt;/font&gt;" style="rounded=0;whiteSpace=wrap;html=1;align=center;fillColor=#dae8fc;strokeColor=#6c8ebf;" parent="1" vertex="1">
          <mxGeometry x="-110" y="440" width="440" height="130" as="geometry" />
        </mxCell>
        <mxCell id="DjmhpiTltckPPBlG-SaG-35" value="&lt;font style=&quot;font-size: 20px;&quot;&gt;MIMOTO&lt;/font&gt;" style="text;html=1;align=center;verticalAlign=middle;resizable=0;points=[];autosize=1;strokeColor=none;fillColor=none;" parent="1" vertex="1">
          <mxGeometry x="77.26" y="435" width="110" height="40" as="geometry" />
        </mxCell>
        <mxCell id="DjmhpiTltckPPBlG-SaG-36" value="&lt;span style=&quot;font-size: 26px;&quot;&gt;eSignet&lt;/span&gt;" style="rounded=0;whiteSpace=wrap;html=1;align=center;fillColor=#dae8fc;strokeColor=#6c8ebf;" parent="1" vertex="1">
          <mxGeometry x="521.46" y="440" width="718.54" height="120" as="geometry" />
        </mxCell>
        <mxCell id="DjmhpiTltckPPBlG-SaG-54" value="" style="html=1;verticalLabelPosition=bottom;align=center;labelBackgroundColor=#ffffff;verticalAlign=top;strokeWidth=2;strokeColor=#0080F0;shadow=0;dashed=0;shape=mxgraph.ios7.icons.smartphone;" parent="1" vertex="1">
          <mxGeometry x="980" y="911.4799999999999" width="38" height="70" as="geometry" />
        </mxCell>
        <mxCell id="DjmhpiTltckPPBlG-SaG-55" value="" style="shape=image;verticalLabelPosition=bottom;labelBackgroundColor=default;verticalAlign=top;aspect=fixed;imageAspect=0;image=data:image/png,iVBORw0KGgoAAAANSUhEUgAAAMQAAADACAYAAABbN8x9AAAMP2lDQ1BJQ0MgUHJvZmlsZQAASImVVwdYU8kWnluSkEBoAQSkhN4EkRpASggt9N5EJSQBQokxEFTs6KKCaxcL2NBVEQUrzYIidhbF3hcLKsq6WLArb1JA133le/N9c+e//5z5z5lz5965A4DacY5IlIeqA5AvLBTHBvvTk1NS6aSngAwMYTUC7hxugYgZHR0OYBlq/17eXQeItL1iL9X6Z/9/LRo8fgEXACQa4gxeATcf4oMA4FVckbgQAKKUN5tSKJJiWIGWGAYI8UIpzpLjKinOkOO9Mpv4WBbE7QAoqXA44iwAVC9Bnl7EzYIaqv0QOwp5AiEAanSIffLzJ/EgTofYGtqIIJbqMzJ+0Mn6m2bGsCaHkzWM5XORFaUAQYEojzPt/0zH/y75eZIhH5awqmSLQ2Klc4Z5u5k7KUyKVSDuE2ZERkGsCfEHAU9mDzFKyZaEJMjtUQNuAQvmDOhA7MjjBIRBbABxkDAvMlzBZ2QKgtgQwxWCThUUsuMh1oV4Ib8gME5hs1k8KVbhC23IFLOYCv4sRyzzK/V1X5KbwFTov87msxX6mGpxdnwSxBSIzYsEiZEQq0LsUJAbF6awGVuczYocshFLYqXxm0McyxcG+8v1saJMcVCswr4sv2BovtjmbAE7UoH3F2bHh8jzg7VzObL44VywS3whM2FIh1+QHD40Fx4/IFA+d+wZX5gQp9D5ICr0j5WPxSmivGiFPW7KzwuW8qYQuxQUxSnG4omFcEHK9fFMUWF0vDxOvDiHExotjwdfBsIBCwQAOpDAmgEmgRwg6Oxr7IN38p4gwAFikAX4wF7BDI1IkvUI4TUOFIM/IeKDguFx/rJePiiC/NdhVn61B5my3iLZiFzwBOJ8EAby4L1ENko47C0RPIaM4B/eObByYbx5sEr7/z0/xH5nmJAJVzCSIY90tSFLYiAxgBhCDCLa4Pq4D+6Fh8OrH6xOOAP3GJrHd3vCE0IX4SHhGqGbcGuioET8U5QRoBvqBylykfFjLnBLqOmK++PeUB0q4zq4PrDHXaAfJu4LPbtClqWIW5oV+k/af5vBD09DYUd2JKPkEWQ/svXPI1VtVV2HVaS5/jE/8lgzhvPNGu752T/rh+zzYBv2syW2EDuAncFOYOewI1gjoGOtWBPWgR2V4uHV9Vi2uoa8xcriyYU6gn/4G3qy0kwWONY69jp+kfcV8qdKv9GANUk0TSzIyi6kM+GOwKezhVyHUXQnRydnAKT7i/zz9SZGtm8gOh3fuXl/AODdOjg4ePg7F9oKwD53+Po3f+esGXDrUAbgbDNXIi6Sc7j0QoBfCTX4punBvcsMWMP5OAE34AX8QCAIBVEgHqSACTD6bLjOxWAKmAHmglJQDpaB1WA92AS2gp1gD9gPGsERcAKcBhfAJXAN3IGrpwe8AP3gHfiMIAgJoSI0RA8xRiwQO8QJYSA+SCASjsQiKUg6koUIEQkyA5mHlCMrkPXIFqQG2Yc0IyeQc0gXcgt5gPQir5FPKIaqoFqoIWqJjkYZKBMNQ+PR8WgWOhktRuejS9C1aDW6G21AT6AX0GtoN/oCHcAApozpYCaYPcbAWFgUloplYmJsFlaGVWDVWB3WAp/zFawb68M+4kSchtNxe7iCQ/AEnItPxmfhi/H1+E68AW/Hr+AP8H78G4FKMCDYETwJbEIyIYswhVBKqCBsJxwinILvUg/hHZFI1CFaEd3hu5hCzCFOJy4mbiDWE48Tu4iPiAMkEkmPZEfyJkWROKRCUilpHWk3qZV0mdRD+qCkrGSs5KQUpJSqJFQqUapQ2qV0TOmy0lOlz2R1sgXZkxxF5pGnkZeSt5FbyBfJPeTPFA2KFcWbEk/JocylrKXUUU5R7lLeKCsrmyp7KMcoC5TnKK9V3qt8VvmB8kcVTRVbFZZKmopEZYnKDpXjKrdU3lCpVEuqHzWVWkhdQq2hnqTep35Qpak6qLJVeaqzVStVG1Qvq75UI6tZqDHVJqgVq1WoHVC7qNanTla3VGepc9RnqVeqN6vfUB/QoGmM0YjSyNdYrLFL45zGM02SpqVmoCZPc77mVs2Tmo9oGM2MxqJxafNo22inaD1aRC0rLbZWjla51h6tTq1+bU1tF+1E7analdpHtbt1MB1LHbZOns5Snf0613U+jTAcwRzBH7FoRN2IyyPe647U9dPl65bp1ute0/2kR9cL1MvVW67XqHdPH9e31Y/Rn6K/Uf+Uft9IrZFeI7kjy0buH3nbADWwNYg1mG6w1aDDYMDQyDDYUGS4zvCkYZ+RjpGfUY7RKqNjRr3GNGMfY4HxKuNW4+d0bTqTnkdfS2+n95sYmISYSEy2mHSafDa1Mk0wLTGtN71nRjFjmGWarTJrM+s3NzaPMJ9hXmt+24JswbDItlhjccbivaWVZZLlAstGy2dWulZsq2KrWqu71lRrX+vJ1tXWV22INgybXJsNNpdsUVtX22zbStuLdqidm53AboNd1yjCKI9RwlHVo27Yq9gz7Yvsa+0fOOg4hDuUODQ6vBxtPjp19PLRZ0Z/c3R1zHPc5nhnjOaY0DElY1rGvHaydeI6VTpddaY6BznPdm5yfuVi58J32ehy05XmGuG6wLXN9aubu5vYrc6t193cPd29yv0GQ4sRzVjMOOtB8PD3mO1xxOOjp5tnoed+z7+87L1yvXZ5PRtrNZY/dtvYR96m3hzvLd7dPnSfdJ/NPt2+Jr4c32rfh35mfjy/7X5PmTbMHOZu5kt/R3+x/yH/9yxP1kzW8QAsIDigLKAzUDMwIXB94P0g06CsoNqg/mDX4OnBx0MIIWEhy0NusA3ZXHYNuz/UPXRmaHuYSlhc2Pqwh+G24eLwlgg0IjRiZcTdSItIYWRjFIhiR62MuhdtFT05+nAMMSY6pjLmSeyY2BmxZ+JocRPjdsW9i/ePXxp/J8E6QZLQlqiWmJZYk/g+KSBpRVJ38ujkmckXUvRTBClNqaTUxNTtqQPjAsetHteT5ppWmnZ9vNX4qePPTdCfkDfh6ES1iZyJB9IJ6Unpu9K/cKI41ZyBDHZGVUY/l8Vdw33B8+Ot4vXyvfkr+E8zvTNXZD7L8s5amdWb7Ztdkd0nYAnWC17lhORsynmfG5W7I3cwLymvPl8pPz2/WagpzBW2TzKaNHVSl8hOVCrqnuw5efXkfnGYeHsBUjC+oKlQC/7Id0isJb9IHhT5FFUWfZiSOOXAVI2pwqkd02ynLZr2tDio+Lfp+HTu9LYZJjPmzngwkzlzyyxkVsasttlms+fP7pkTPGfnXMrc3Lm/lziWrCh5Oy9pXst8w/lz5j/6JfiX2lLVUnHpjQVeCzYtxBcKFnYucl60btG3Ml7Z+XLH8oryL4u5i8//OubXtb8OLslc0rnUbenGZcRlwmXXl/su37lCY0XxikcrI1Y2rKKvKlv1dvXE1ecqXCo2raGskazpXhu+tmmd+bpl676sz15/rdK/sr7KoGpR1fsNvA2XN/ptrNtkuKl806fNgs03twRvaai2rK7YStxatPXJtsRtZ35j/FazXX97+favO4Q7unfG7myvca+p2WWwa2ktWiup7d2dtvvSnoA9TXX2dVvqderL94K9kr3P96Xvu74/bH/bAcaBuoMWB6sO0Q6VNSAN0xr6G7Mbu5tSmrqaQ5vbWrxaDh12OLzjiMmRyqPaR5ceoxybf2ywtbh14LjoeN+JrBOP2ia23TmZfPJqe0x756mwU2dPB50+eYZ5pvWs99kj5zzPNZ9nnG+84HahocO149Dvrr8f6nTrbLjofrHpksellq6xXccu+14+cSXgyumr7KsXrkVe67qecP3mjbQb3Td5N5/dyrv16nbR7c935twl3C27p36v4r7B/eo/bP6o73brPvog4EHHw7iHdx5xH714XPD4S8/8J9QnFU+Nn9Y8c3p2pDeo99Lzcc97XohefO4r/VPjz6qX1i8P/uX3V0d/cn/PK/GrwdeL3+i92fHW5W3bQPTA/Xf57z6/L/ug92HnR8bHM5+SPj39POUL6cvarzZfW76Ffbs7mD84KOKIObJfAQxWNDMTgNc7AKCmAECD5zPKOPn5T1YQ+ZlVhsB/wvIzoqy4AVAH/99j+uDfzQ0A9m6Dxy+or5YGQDQVgHgPgDo7D9ehs5rsXCktRHgO2Bz9NSM/A/ybIj9z/hD3zy2QqrqAn9t/AYJwfI45sgNsAAAAimVYSWZNTQAqAAAACAAEARoABQAAAAEAAAA+ARsABQAAAAEAAABGASgAAwAAAAEAAgAAh2kABAAAAAEAAABOAAAAAAAAAJAAAAABAAAAkAAAAAEAA5KGAAcAAAASAAAAeKACAAQAAAABAAAAxKADAAQAAAABAAAAwAAAAABBU0NJSQAAAFNjcmVlbnNob3Stc5+2AAAACXBIWXMAABYlAAAWJQFJUiTwAAAB1mlUWHRYTUw6Y29tLmFkb2JlLnhtcAAAAAAAPHg6eG1wbWV0YSB4bWxuczp4PSJhZG9iZTpuczptZXRhLyIgeDp4bXB0az0iWE1QIENvcmUgNi4wLjAiPgogICA8cmRmOlJERiB4bWxuczpyZGY9Imh0dHA6Ly93d3cudzMub3JnLzE5OTkvMDIvMjItcmRmLXN5bnRheC1ucyMiPgogICAgICA8cmRmOkRlc2NyaXB0aW9uIHJkZjphYm91dD0iIgogICAgICAgICAgICB4bWxuczpleGlmPSJodHRwOi8vbnMuYWRvYmUuY29tL2V4aWYvMS4wLyI+CiAgICAgICAgIDxleGlmOlBpeGVsWURpbWVuc2lvbj4xOTI8L2V4aWY6UGl4ZWxZRGltZW5zaW9uPgogICAgICAgICA8ZXhpZjpQaXhlbFhEaW1lbnNpb24+MTk2PC9leGlmOlBpeGVsWERpbWVuc2lvbj4KICAgICAgICAgPGV4aWY6VXNlckNvbW1lbnQ+U2NyZWVuc2hvdDwvZXhpZjpVc2VyQ29tbWVudD4KICAgICAgPC9yZGY6RGVzY3JpcHRpb24+CiAgIDwvcmRmOlJERj4KPC94OnhtcG1ldGE+Cl0qJ3cAAAAcaURPVAAAAAIAAAAAAAAAYAAAACgAAABgAAAAYAAADsH/WclaAAAOjUlEQVR4AeydWYwdRxWGq/sus8Sz2BGQxPEahy1BiEUxJjIChBQJkHjggUg8WLyAkBBviCdQWIQQEovEUxQpEk88sQkBQgEEQQSxRYHYOAkkdmLH2JPY49gez9ylu+nJ0/2/M7qlzr1zfWfumaf5u06dqj51/jqnuqpvJ3meF2Eb/xWF3l6SJH3v1uWHa5++xh7DwsQJoaPihJhwQmRZJlNobAZV9xk/NPYOXXTFaEXeERxqU4KTJBUcgjrs2N/vFovIiRNC5oMQmxAGdkAnhBB8YHsOmXBOiFGvMZwQTgixwCaDcZtxTH+cEOIBxj5DnvGr6vdFtQxPCFUNGJMv2pekhe7FPwgurj0tON15WHBt8R7BSf0mwQSx/oxaftTtDXz//pRJh2xgg2KGc0Jsrn1V+xAmNCeEmtQJoU+x1DrVHW7Q+sMej2h/nBBqomEPgEeIzbWvaq9OWDPeTgg1qTEQUqBykSEV8vZFxZceE9z+70OC89UVwUlQfQH7DrVb3yHyzYOfF5zO7hUc7b9ID8GBaB/o32rQF9UYsahDOSHEYrF9GxHeAsAJgUFyQmzuGgLmHjvohMCQOCEmnBB+dENzeJMCIEXKrp0QCnXP/URwtvQXwfl1rBnobynOKjWnpX5tfp/gxv5PCU4X3i3YpPR5JuV556rg0L0iuOgoDrWGlKfTtwlO6nOC1ZrlySvTIREf+r6Paq++RvKjG3B4M4Aod0I4IUi6scbRlAe9j8o7IcRiHiHEHOMPog6OW4jKOyHEYtueEL4PIeNd5rS5XChWTglunfyK4PzKOcEh05yd+wrJTTtFvrbrbuAjgpPZOwSn07sFJ6nm+NnV01KeXfqH4PzS44rXLggOXV1jJLWmlKe3HBXc3Hu/4KS5SzBBdAJChZHLOyF0BJwQTgg+GFAP2eKo+gzjEaJ3yD1C9FpjG/zvhPCUqZ8bG/8YdcrEDvTr7Gsp42NTtmfKW3oWqXMe+wpnfq7dSOuCkx17BNcW3qb4dfcJTqZvERxyfcc65xrg8lMin1/8p+DuuT8LzteuC+ZZqaSmGyEFtkGSVMsDcUMrNPZ/QNqbevOXBG81MPKdajrosA1mHB5PiUy5E0KGwAkx4t9lckJ4hBAGjhnwCOERQlxy4iPE9j/LJOMdAn4HqbP0iAgUK88KThoLiuffLrg2favgkM4Kzlb+Jzhf1neos4tPSnm29ITgYlXfyQ6tlpYn+pDQOrSIh4A1BF6/CFwzcI2RYk2RzO2QBmbu/ZHgBL8zJYUlYMbAlHbU8hNwlgkmdUKIQZwQYo7ghPAIoR6BCOARInJcV603fsiGYPTRI4QYxCOEmCNM3qI61xw8XzuvFmnqWaMU5/15NilvX5P6+cv/Etx5Xtco2ZUXpDy0LisOulMe9LF/2Tz3CbR6gXLOb0kN8hCwBFH58gUHuZDUtIPT7/y+lk+9XrCdsFSfCJdg5PITtzHnhBCfK+jg6t/lIlvE19/4kQtOCDFHdUDGV9fQvwafUrC9xAkhBnRC4CmdRwhPmXoZ4inTNtup7h1c/98tUNUC225RXdUALu8W6LWAE6LXGv7/xFvACTHxLuAG6LXAyHeq+dSntzMb/V+0l+Vyfv2s4GLtjOB8Fe8IZx0pL59sKwbUwteAoA+nz+MKYxWg3ygctBzfsAv4HkU6o/sK6Zy+D5LOHZAuJXX9Zh6/kSfCYwCcEDEHqjpI0Bfzb6M+VgH6bX1zRS/E6jshRvsVUo8Q6p8GOSGMSUZ5wSNEdMasOBzQF/Nvoz1WAfptfXNFL8TqT3qEuPEbc3p2h2uEznMPyYBmy88ILlZxFqij7ygXmerHyYPy/QhRV56dUawHFcoyCACaJYpZsqBCgva1ddNcSFDf6ocG3I/pP8TxeoU5qhEa+J0m/M5Uff+HRGPzwEcEJztuV2wGRIon8SyTeoQTgg6h2AlhpigxEFNyHuUR4RIYeY8QaiJOwMb8EAD0COERQh0qhshI5iweIdSCJJxHCDNFicHoX5UjROyd6oEbQI6Y47dEO2d+KDfUOf1LwaHVFlzkTIqleIMZGvKAzMEt1gp0UCvP/mj9qHzF+zP9QfNcM3DNRHHTv4r9Yf10Xt9Jb971cWly6q3HBAf8Vi2Pm6vw8FH0KZMTQh3aOKAWD07Iig5o+kMfoYAu2Sht+1+xP04ImDRGII8QNBhwRQekv0Nb6eBgrBPCmKj3gkcI+AtnODoU/cvK95q3/J8VYu05IdSASLm1cPio8uG+WARgF4tsTS61nvmW4OzcnwQXa/rOs1kz0KGkdglYToekPGdM1od85f7Qwak/iiFACIzuVick9bH/bIDyxJSf1rNN0+/5nEg09t0nOGnq7z5J4SYAJ4QTQt2KDu2EUPsQeYSAxwDSXoEORfkohgAhsGmfEZLyMcz+s4FYfcp7hPCUSXwi5kCmHBcIgaWtdeCEMCbpd6FyytRP2atl+CGw7ku/kyqtJ3QNYb7JhgHGJ9/sAIt2W2zO5sBBAMuzQlAIyFfQY/Jccxh5tGfkcdiOEdr0H/3lmsrqR4VofyLyrM8OojzdebMonDryBcHNPe8TzPcpaI/KG3FYtDshMEDGYTEcTggYBPYz/m8uaH0nhEcI9Qg6FHL2xCOE2itiD48QMBcnJDPjQwDQU6YoQWlwxbQnUxqmcGMXIQY+ywQLdC//TSzUOfFNwdlVfUfaPIUR6RJEBojilCchYgNk5NlAXb8LXeacIpHjfQzen9GP+zPykRkR5of0+poKDWh3N5CX2ynPXmp9Hq2jetrfYtWH1kJt951yaeboVwXXFg8IHjYYfKcaFnFC6AtKxqHgDzDfBg6oLkgHZ32VdkJUJYwTAg5qZnBa1COEWISEtBFBxO1jQBR7hEBIhn08ZUJS4xFik1Omqm/McUCSQn/3qH3qQfHp9rM/FZzgHWduHMVmnCTVDxwUqf5eewKCUZ9NKaR75WNu1Vdb3CsC9T36jnCO7ztkZ38j8tmFFwRb+0mxnQB4A4hoqE1z2ocE0Ado5WlPNGgiKvtnsF5g++nsjLQwdfgzgptv+oTgQZ8qibISVN6HsAPqhOg1qhOi1xrl/+r/JmVyQniEEI/hDEsH4gTEclG27n9wQKtfBaLyHiFoYsUcIE+Z9GdwPEKovxgCg4GA5VeNt1jKhNsNBb7R1vr3AyKSLT0tmAYwU5pOYOUnnXTNUL/9iOhLF/W70WYARLoEpgMQSPW8fm3xLhFId9whmN+97l54VMpXH31AsOkf79dgXCAE1sZKxPvFPoSVxxVECJSW+nEliimA+niI0HijjvfsB7/DCkPFldcQbN0JoWsoJwQ8hP5PgkKch/ecEDSgRwh1Gdgn6l8U8Aih9gTyCAGDBE+Z1CKTljINepYpW/6rGLB1/BuCi5VXBDPnjJ3PT3fpb4E27/6y6EunbxOcty4KxnF3Nm9y4CSta/3mLsGhNi2Y+xrZtVNSvvKLY4L5Q2OcwM1RD+TUfKjB+uwP5fm7TFZeurvBURItZ/s0sC1HiItErHR+Xhqc++SvBQ8bDHx0wwmhQ+KEUHs4ITxCiEd4hBBzVH7q5REC9vOUSZMapkCcgVV63f/6pyhWHgOANURUHs2x+aqPgUdOiEHPMmUv/14s2D75bcH59RXBzDGNgWDQxp0flfqNfccEd8/j7NDZX0k5B8QOKBrEorr+hntFX333hwUX7auCu2f07Fb7+M+knA5qd5JF3Do0uqvSdgK2+lWBsY8WmzUEi6mf+ojNeEfWEKGm+1ALn/4jbpkjiuKKsPJTJg6oE8IJ0etzJACxE8IjRK+/mBmfMywjKCcglovyEtABrX6d46PySJm0drmNhgvUR2w66BECQ0iLwcCeMsEggLCm8Tc6LAVofiPvhKCJ++Pu0iMi0D75XcHF6qpiDihHBOXT7/2e1E8ai4JbJ74uODv/H8FmgKW0nFEx4CYjbejZpvTmQ6qhc11wvnxG8Zp+38L0B/dr+6M9YsSg+VS67EpUv3R3cHm0x/ZJSLRerlnMFbmw8NnHBPP9FS2sjiqvIdiEE8IJ0esTJKgTwiNEr3+E3COE2MMjhKdM4hCeMjGnEvPc+JRp0LNM3Zd+K3fUOqk5f1jTlII5MENqunOv6Ju552HBnRd/LLh9/EHBBb5JZ2YkjkcUq0A8JZDu2Mc+qs7k7DzLBG1G3vSHFSgQydE5HhbjBgCtPDrE/qD4hq8hnBAYETPAesGMpxYbh61MSCzy0Tuj3/SHFSjghKCFBA98uM8jhNjTOKwTgvbhDILyCGE3/SmTRwgMCMcLMyzgBgSgPigENCmGRwgYUOGmE2LQs0zFqv7uUHZJnxMX3Wt6R3SIoL+DlOzQ3/asLeg70+2n9PsSnef1G3UmBzcerN0xOavpn8pzn8A4tIqbs0BGnu0ZjAuEwGzeRKhEzwal87qvk87r+yfJlJbzFU97P9qhmPlNf80F3VmZPar7TqY/pn61C5X3IbgodkJEDM4ZX/1l4AgTdTgKOCH6DpgTgjkrHRbm8wihM7ZHCMw4HiHAGEKPELRIRawEHLuUyd5NZEplhYri2StPiobWk18TnC8vCQZfzWlM5tRRedFeLgng4GajDfKMKEYe9jDyA75TzRm8fkjf72ge/Jj0OJ3bI7jAb/eqe4roq4DfBMTtlSmiuSJKWMx34tOpnSIfmvrONd+JV+H15rV9/jZs5ZSJDdgk2ErIFe2PFG0EnBDqghxQjC/oU1oU9nZCqEGcEPAgQBtRwFKPEDAIoEcITkEwkIFKUFPMCx4hPEL0+sSmp0yDbsxll//e29/QPv0DwQHfT+CMrMIbvIHVviIi+VXFBb7xZvjJBklIYOb40RQF9dmc2ReRuykB6lsMAULgtK6/K1U79H5pceot9wvuPPew4O6LjwsuWh3B3Lcxa54uOoSneJQPWX95lheFThD1g++S/s0c/qLgdE73VaRwAzDw0Q0nhFrVCdHfwcedEP8HAAD///1e4TUAAA/0SURBVO2da4xdVRXHzzn3zr0znWk7bUqhMq2Ud0WCgICJhaAxPhKjCTGRRINBSQwmmBDfqMQPxg9Gg/qVxGCMxhgTPhlJMPIQHzSElApDK4VCTS19UB7Tedx7z8Mzfrr/35p0s3tmhiprPs3/rrX3XnudtfZa6+x9zkmLoqiSob80TYdQklSVkBPSi9eeEP7+i78QnPReE4zuhLYIUh0uqfpvCE85o7gqS6EnaF9PIEBXshkf7QGtvBguKfmDjmflJR3tCYGzdls6aF14o+DujpsFD174ueD80JOCq95AcEJ1Y35pDoEC/ImaX8L+Sa8qtc/2+VeLfGPXfUNwtnZKcAik7hCqIneIt7lDlCVcXO3DIEaM4vgfhac/fY/gcn5ecPSKyRWGS7T2Xoc0/qArSpplypAXgquQOkCnODpaLQ5XQBltiYhI+TkA6egvO0tXxNFr7hKO/NAvFR/ZIzgb3aB4w+WCy7ljio8+q3hmTnDK60f9UT/gT8FfIgJla9fJeKM3fFvwyNQNgpnh0J5Tdwh3iGGLcYfwCDFsD4lHCI8QgSAs9mKKbE+ZVD+eMr3NUia9/EmSH3tQfmINUaGGMCtwyB2RUzLnk8FrkGYt+al19rsUb7hScH7074LLY/sFJ6gxGFBZhGtjW0PQYVjzUD9poi04f5YYnR0fEhG67/6S4LnHPiO4tWaT4M6ldwjOJq8RXPX1ruHgxd8Ivb/7t4J514jzMzUWrneohkjXrJHxxq7/uuDO9o8KJqA+o2sIdugOQY0o5gVX8655sSDQYNwhVEEsqt0huCSq/XmE8AghFuERwlMmMQhPmSJTpqYbc+XcS3IB8lf+IjjJZxUDmQVfIyS4l4Dgz8a3CVN70/sFJ+1xwdXgdcH9Pd8XPHhpl2CmNEx5DMZ9dKZMZv6GX1sw502wr9K96haRt731g4Ln/3yb4JHzPyy4c9FXBSep7nzzPn7Ze1X4Z+//hGCz04z5kc6ag/tWFfYh0nGtIUZ3fk3G72z/mOAQaLxT7Q4BFcNBeUHVvOsSIsivLdwhVGHuELA/rsgeITxCDJuIRwhPmYbtIfGUKTJlanp0Iy37cgGqfEZxpTeWNQEwdx2l7SIgPxmYQqStUWVpTyhO9SwT5V+Y/rHw5/98QDD3IRihjLw4q6MBv+4aP3Bfg/MjPzXUueJTIm/nwpsEzz/6OcHZFj0tOnrpN4WednWfoipzoZev7hY8++CdglPOHzWEuS2t5lKfflUF8bZrZmoI3YcYOe8jKg9OcwuxBtH7ELxANCh3CKiYBgEyDdwdAgpyh1CFmBVXyeYoiUcIjxDDJuIRwlOmYXtIPGVa4ZRJtF2D4vWn5af85fsFVz29z8/bjKEIwJSCKRvp2cR2GX9kq66Y2dg5Qi9mDwruP6X7EPnhvULnPgRTHGGuAXNk0tme/ZOf86U+Oxe8T5p0r9Kcev7xW4XO8dvbPin09rabBZczzwse7L1XcP7SPwRzX8HMDykl+VlDhPchdL6hnWoV9jRqCHbgDkGNKHaHgD5QEyz/xpw7hGjcI4RHiGGD8AjhKdOwPSSeMp36LJMoqwaNj27w+HcPz1QnfB5Cbyub+8wU0OTMDLlsgP5b6zYKR7pOa4zi+D6hJ7MnBfOtHszZmYOTzhyYNVOYX1uwhmL7bM2YyN+54vOCs3Hdlxnsv0/oxesnBBv5kfOXwLFv3TApJfYhzPMQ+sRv0jrrHSLv6M67BY9svkIwAfXpDuEOITbiDtHwvUweIcSe3sRhvVh+jxDDGis9Qgyro76N6SmTKMRTpmVOmZqeZSqOPyQXqL/3J4LLBTwPgRw/mIMXmlQyp2eNYfvTAflIJnNkGpiuz9YhQ/y8rajS1EUcfwBmjsv5irJrwDfbtSa1hupepc9MJ2lPuihnpgVXC/oMNY6mGflJD+nX7Dtg/oaejYh8rS3XCR7Z+gHBaVtrKj7PQf02PsvkDiH6t4cRUXTyertDqP6Mw+t6mCTuEKoRjxAwIECPEB4hxCS44pqQyDUcNUkoBWINE+L3lEljIvVlUiJlty8/PtMihFhfDcrZF+QnplBVjvv6nLDB+kN58oD2f0TPTlUDPZ/PkGschAwagExOLIMvzhcOxO5MzYGUydB1umZfhjUPHZwGxv6NfJObZEojW68X3D7nWsHp+LmC66oHuCHk/APdZRNbhCNtdQQnqb6XS4lhFF1DsEt3CNUIzYUbT4ZOg4DDuUOoft0hPEKIRXiE8AghBlF4yiT68JRpmVOmpu9lSvBMdVno9yBSVE28gMxJMzzgU84fFgNY2PM9wcXxFwUzZzZbx0xRgE3NAYEBTc1BOu/Dq7A1wvix/BzPpmQYgDUTBGJ/Rh50Z+Q3dP6AASEPqAauvx3v/WpYM3CAxmeZ3CFUpUGDUnZ3CHcIWoSuaR4hAisqyHRA1ebizjUawAAtP64PivxwREB7jg8yEghSDfYI4SmTGgXsm/ZmDRwN3CFUn0DRt1254pRvPCNd5od/J7jqn/qZatYQrUk9v96Z+rT0t/DczwTn+/8guMLZJ9YQvI3JHJkGJp0vAqyY5DcGiX0I9mdrFnBwANg3uDndxRAhLKHxDB3zlc5qYPh1OJMScmPTRBwMQH2uu/2vAQ6QAVf8LJM7hGqcF5D7EMr9ZgwKFgbI/mD/7hBQkDsELMQjhFoI1GNXfI8QqjAiT5l0iTYGBYV5hFCF/N+lTDq90/jGnNqTDenj62WI8eu1Jhkce0TovT36LtZqbk7ozHGZUxuDpnzSmz3LZPoHPx2CKRVzaBoMIxoXJCM/xg/3jwaYv5UnwI/2ofFJR+/m5BRrCDN/vLuVKRL7pz6ji2p2yEdIgx9dNArTH1J3CFGxO4SoI3GH8AghFsEVzayQwl0DXW/MI7jxEQsDsH/g0Piko3ePEB4h1KI8QqiLrHiEaHqWKT/2J5G4N/0jwXwvU+g+PleM7nu/Jf211r9HcH/vDwUPDj4hmDUDc36usByfmCs06Qly2PbUlSJPNnmx4GTuqOD+/ocFJ4HnPYz82rr5XaOmd5kC7YM71fiG3vovPqYzxPc+lBiPGp9lcoeA0t0hVCHuEB4hhi3CI4SmgMO6+e//OEpi6B4hVCWeMp36EVlPmfQTaWo98ajxbdfi1cdl1N7TPxBcnXxDMHN6k4Mrd9Lept+ZHrnwy8JRntwnOD/ysGDeRbE1gHJYA8MKByiDLQI8z9G54BZhaXX1PUllrs+PLOy6S/iLf+n3FsxZLeGuAeUzGD8ANm1v3stk5MOAgQiRrp2QHtZ99kHBrNmUGI/cISp3CDEb2Kt1EDAQBgzcLIgBfncIuTqJRwiPEGIRHiE8ZRKD8JTpDEuZmINXswfkgvWm7xZcnDgkmO/7Z0hGBE4yfN+he/l3pL9svT4/keA7ysK8BOB8NIGqG+A2qgn57JP3xfFiLbIT9/bdKz/1n/qV4KSvRTZrHiM/FMr5Uv9mnyZ02xT9sz9ino0iXSdbl2RbL5GfJj5+n+AQWPGzTFSoOwQuiTuEKgQO4w7hEUINJIA8QqiCPEKoPjxl8pRJLGLFU6amZ5mSoicC957/qeD8wAOCTVGIkMqckjlgOqkfyEgnpqR/tjdYue19+wA9mLNnXemhc9FtgrOxzYKrXL+fMf+3rwi9+Pd+wcGzYMptnjfhPkGo5uB47N7ol9cTNQjJZvyOvnise+0XZMjuZbcIJqC9MMUP0t0hqFJgXEF3iFPrxziIO4RHiGGT8QihK4oivnOl1pxHiGHzqf+HxhjiPGVSBTFiQZueMkFBtCeTUsV+Yy6k8OLEo8LC71ZXM/rNMjqANK6B+R4DnqEy983VXuoezA86BI4O2P7QnhBYO6/vo5+tzz9ka98pLNX8K4Lzg08KTnJ8dhPj4XpDO4v+gAaYrw5WI7DH1hChGoW3XbnNk23ZLiKN7fyu4NbGHYIJggaPAamfxmeZuFHlDqGXyB1C9eEOMX2PaMQjhEeIYYPAgp14hGCIHtZW/b+nTJ4yDZvEGZcymZwLLl4NtEboH9CzOfn+3w/Pz+Ss9A+GWG286DHmF/mBNYEQa2D6hwC8T24cFPzsnzm4kQftKc+yv2QANUW8PJgh5QdmTcL5ZR397nTnGt1n4L5D2tJ9HkhjaibWFEH+2KLaHQJXHJAKd4dQjbhDeIQQi4hfkTVGcUHCgm/uMpkVGg3i5ZHp2AjPBQLYHcIdQiwo3gDdIYYVuOIpU+OjG8PS1v9zBUsrPb+/8NSd0iI/+qzgZIAiUqkm51dzWRyfDfiD0s1981Ozm/G5AmvvNQp8H8K05/icEOgkc3w6IFfopvxh+TFCS18K0L32VmHoXKLfA8m6a4VO+xLiEiC6hnCHUC3SgJQaLsLJ7w4BjbhDeISASSjEim9XXDAQAmvnS3yQBYftmvJbedEj5XOHcIeAiSikwRiMHwiBtXN3iOiUKfa2KxUei4uZvdJkcPDXgouXdwmu5hYUM2kOGASLCrKn3Mcgg4x+GikTV2T0z+mYlA0MgLVAKqCtqcDA+Wpz0x9vGxt2dM99k2xCa4DWeTuli9Er7xCcdvX7IEJcBkAHYU3S/CxTpJDuEKowGrg7hDuEWIhHCFFHvWLrEgxoVnSPENAfoEcIWJCaV51jM4UgAxRqblsG+E3KAX6IZ15f7w6BC9AQLrtDmJwLZ5koL/kNvXdEfsqPP6L4OX0vUcF3xTJHl9Y1oMWRDodgygL7Xfl9iOB8dAKcXihCmH0X7c5EHOPQAf7WuRcJR+fimwS3p24UnI1OCg7ZizCfBnCHoMVQie4QqhGuAJEO6g7hEUINiih2pzrSAOnvHiF4ARR7hKDFqH7M8XFPmaCgSAf9n48QK350IzKCGA/OdR+imHlGrlh5YrfiuYOCK7zrNYWDMEMw9/XBAGhzbjIQi3QWQDxTA9kIYPsY/iXk4MH5jqwZ7i7J1m4TPLL5asGtjZcJNu/GVeoZhxp/Y44zYlFEA4/lr9whRGXuEKKOZQfuEFQpVvTYFZYrrsEcD9gjBBSyytAdggp3hxCNVG+3lGm1zzKJtk8HcAmtBtJLiRQrxRJdAUvjRQCHMPTAD2zOFIcppEkx7TNvGDE0AtjNhCgR+Knflj7znLb03atJ2tYOAjWjMp95aNXPMjVWAS+YO0RApZEORP26QwT0+1aTecHcIQJXxB0ioCAhe4QQddSA9kN6ALM5ExRPmQIKfIvJ0Q5hct5Azrja/LH6jJUvtv/V5qfDcXzOl3S2D/GH2pMe2x/bx2LOh+0pjzsEUrCQAqnQMw2H5KcBUH62D/GH2pMe2x/bx2LOh+0pjzuEO4TYCA2IBiPMSwC2J0tsf2wfi2PlcYdwhxAbowHFGjDbS+c1iO2P7WNxrDyrvjEXUkjsBGIV1JSf8ofkbTrecrdfbfmpn9D4pMfOv+l47hCRGucF4wWI7G7V2VdbfuonND7psQpqOt5/ALzCxJu5U4wtAAAAAElFTkSuQmCC;" parent="1" vertex="1">
          <mxGeometry x="1069.18" y="899.64" width="95.64" height="93.69" as="geometry" />
        </mxCell>
        <mxCell id="DjmhpiTltckPPBlG-SaG-56" value="Inji Mobile Wallet App" style="text;html=1;align=center;verticalAlign=middle;resizable=0;points=[];autosize=1;strokeColor=none;fillColor=none;fontSize=24;" parent="1" vertex="1">
          <mxGeometry x="934.73" y="1000" width="250" height="40" as="geometry" />
        </mxCell>
        <mxCell id="DjmhpiTltckPPBlG-SaG-59" value="" style="endArrow=none;html=1;rounded=0;" parent="1" edge="1">
          <mxGeometry width="50" height="50" relative="1" as="geometry">
            <mxPoint x="350" y="890" as="sourcePoint" />
            <mxPoint x="350" y="760" as="targetPoint" />
          </mxGeometry>
        </mxCell>
        <mxCell id="DjmhpiTltckPPBlG-SaG-61" value="Download VC" style="edgeLabel;html=1;align=center;verticalAlign=middle;resizable=0;points=[];fontSize=18;" parent="DjmhpiTltckPPBlG-SaG-59" vertex="1" connectable="0">
          <mxGeometry x="0.1458" y="2" relative="1" as="geometry">
            <mxPoint as="offset" />
          </mxGeometry>
        </mxCell>
        <mxCell id="DjmhpiTltckPPBlG-SaG-62" value="" style="endArrow=none;html=1;rounded=0;" parent="1" edge="1">
          <mxGeometry width="50" height="50" relative="1" as="geometry">
            <mxPoint x="-80" y="760" as="sourcePoint" />
            <mxPoint x="870" y="760" as="targetPoint" />
          </mxGeometry>
        </mxCell>
        <mxCell id="DjmhpiTltckPPBlG-SaG-63" value="" style="endArrow=classic;html=1;rounded=0;" parent="1" edge="1">
          <mxGeometry x="1" y="-534" width="50" height="50" relative="1" as="geometry">
            <mxPoint x="-82" y="760" as="sourcePoint" />
            <mxPoint x="-82" y="570" as="targetPoint" />
            <mxPoint x="-92" y="-300" as="offset" />
          </mxGeometry>
        </mxCell>
        <mxCell id="DjmhpiTltckPPBlG-SaG-76" value="User requests for OTP&amp;nbsp;&lt;br&gt;which validates&amp;nbsp;UIN/VID" style="edgeLabel;html=1;align=center;verticalAlign=middle;resizable=0;points=[];fontSize=18;" parent="DjmhpiTltckPPBlG-SaG-63" vertex="1" connectable="0">
          <mxGeometry x="-0.0369" relative="1" as="geometry">
            <mxPoint x="-48" as="offset" />
          </mxGeometry>
        </mxCell>
        <mxCell id="DjmhpiTltckPPBlG-SaG-74" value="" style="endArrow=classic;html=1;rounded=0;entryX=0.167;entryY=1.008;entryDx=0;entryDy=0;entryPerimeter=0;" parent="1" edge="1">
          <mxGeometry x="1" y="-533" width="50" height="50" relative="1" as="geometry">
            <mxPoint x="180" y="759" as="sourcePoint" />
            <mxPoint x="181" y="570" as="targetPoint" />
            <mxPoint x="-91" y="-300" as="offset" />
          </mxGeometry>
        </mxCell>
        <mxCell id="DjmhpiTltckPPBlG-SaG-75" value="Keep polling&lt;br style=&quot;border-color: var(--border-color); font-size: 18px;&quot;&gt;to check if&lt;br style=&quot;border-color: var(--border-color); font-size: 18px;&quot;&gt;credential is issued" style="edgeLabel;html=1;align=center;verticalAlign=middle;resizable=0;points=[];fontSize=18;" parent="DjmhpiTltckPPBlG-SaG-74" vertex="1" connectable="0">
          <mxGeometry x="0.0476" y="-1" relative="1" as="geometry">
            <mxPoint x="4" y="39" as="offset" />
          </mxGeometry>
        </mxCell>
        <mxCell id="DjmhpiTltckPPBlG-SaG-80" value="" style="endArrow=classic;html=1;rounded=0;" parent="1" edge="1">
          <mxGeometry width="50" height="50" relative="1" as="geometry">
            <mxPoint x="273.76" y="570" as="sourcePoint" />
            <mxPoint x="273.76" y="760" as="targetPoint" />
          </mxGeometry>
        </mxCell>
        <mxCell id="DjmhpiTltckPPBlG-SaG-82" value="Downloaded&lt;br style=&quot;font-size: 18px;&quot;&gt;credential" style="edgeLabel;html=1;align=center;verticalAlign=middle;resizable=0;points=[];fontSize=18;" parent="DjmhpiTltckPPBlG-SaG-80" vertex="1" connectable="0">
          <mxGeometry x="0.0737" relative="1" as="geometry">
            <mxPoint x="1" y="-52" as="offset" />
          </mxGeometry>
        </mxCell>
        <mxCell id="DjmhpiTltckPPBlG-SaG-83" value="" style="endArrow=classic;html=1;rounded=0;entryX=0.167;entryY=1.008;entryDx=0;entryDy=0;entryPerimeter=0;" parent="1" edge="1">
          <mxGeometry x="1" y="-533" width="50" height="50" relative="1" as="geometry">
            <mxPoint x="735.73" y="758" as="sourcePoint" />
            <mxPoint x="735.73" y="563" as="targetPoint" />
            <mxPoint x="-91" y="-300" as="offset" />
          </mxGeometry>
        </mxCell>
        <mxCell id="DjmhpiTltckPPBlG-SaG-84" value="User requests to download&lt;br style=&quot;border-color: var(--border-color); font-size: 18px; background-color: rgb(251, 251, 251);&quot;&gt;credentials via eSignet" style="edgeLabel;html=1;align=center;verticalAlign=middle;resizable=0;points=[];fontSize=18;" parent="DjmhpiTltckPPBlG-SaG-83" vertex="1" connectable="0">
          <mxGeometry x="0.0476" y="-1" relative="1" as="geometry">
            <mxPoint x="-66" as="offset" />
          </mxGeometry>
        </mxCell>
        <mxCell id="DjmhpiTltckPPBlG-SaG-85" value="" style="endArrow=classic;html=1;rounded=0;exitX=0.499;exitY=0.976;exitDx=0;exitDy=0;exitPerimeter=0;" parent="1" edge="1">
          <mxGeometry width="50" height="50" relative="1" as="geometry">
            <mxPoint x="869.8614600000002" y="562.9979999999998" as="sourcePoint" />
            <mxPoint x="871.6" y="762.96" as="targetPoint" />
            <Array as="points" />
          </mxGeometry>
        </mxCell>
        <mxCell id="DjmhpiTltckPPBlG-SaG-86" value="Downloaded&lt;br style=&quot;font-size: 18px;&quot;&gt;credential" style="edgeLabel;html=1;align=center;verticalAlign=middle;resizable=0;points=[];fontSize=18;" parent="DjmhpiTltckPPBlG-SaG-85" vertex="1" connectable="0">
          <mxGeometry x="0.0737" relative="1" as="geometry">
            <mxPoint x="11" y="-19" as="offset" />
          </mxGeometry>
        </mxCell>
        <mxCell id="DjmhpiTltckPPBlG-SaG-97" value="&lt;font style=&quot;font-size: 20px;&quot;&gt;&lt;br&gt;BFF (Backend for Frontend)&lt;/font&gt;" style="rounded=0;whiteSpace=wrap;html=1;align=center;fillColor=#dae8fc;strokeColor=#6c8ebf;" parent="1" vertex="1">
          <mxGeometry x="1480" y="410" width="340" height="130" as="geometry" />
        </mxCell>
        <mxCell id="DjmhpiTltckPPBlG-SaG-98" value="&lt;font style=&quot;font-size: 20px;&quot;&gt;MIMOTO&lt;/font&gt;" style="text;html=1;align=center;verticalAlign=middle;resizable=0;points=[];autosize=1;strokeColor=none;fillColor=none;" parent="1" vertex="1">
          <mxGeometry x="1584" y="424" width="110" height="40" as="geometry" />
        </mxCell>
        <mxCell id="DjmhpiTltckPPBlG-SaG-101" value="" style="endArrow=classic;html=1;rounded=0;entryX=0.232;entryY=1.026;entryDx=0;entryDy=0;exitX=0.742;exitY=-0.004;exitDx=0;exitDy=0;exitPerimeter=0;entryPerimeter=0;" parent="1" target="DjmhpiTltckPPBlG-SaG-97" edge="1" source="DjmhpiTltckPPBlG-SaG-57">
          <mxGeometry x="1" y="-533" width="50" height="50" relative="1" as="geometry">
            <mxPoint x="1565" y="880" as="sourcePoint" />
            <mxPoint x="1090" y="570" as="targetPoint" />
            <mxPoint x="-91" y="-300" as="offset" />
          </mxGeometry>
        </mxCell>
        <mxCell id="DjmhpiTltckPPBlG-SaG-103" value="" style="endArrow=classic;html=1;rounded=0;" parent="1" edge="1">
          <mxGeometry width="50" height="50" relative="1" as="geometry">
            <mxPoint x="1480" y="468" as="sourcePoint" />
            <mxPoint x="1240" y="468" as="targetPoint" />
          </mxGeometry>
        </mxCell>
        <mxCell id="DjmhpiTltckPPBlG-SaG-104" value="&lt;font style=&quot;font-size: 18px;&quot;&gt;Request wallet binding&lt;br&gt;by sharing public key&lt;br&gt;&lt;/font&gt;" style="text;html=1;align=center;verticalAlign=middle;resizable=0;points=[];autosize=1;strokeColor=none;fillColor=none;" parent="1" vertex="1">
          <mxGeometry x="1250" y="404" width="200" height="60" as="geometry" />
        </mxCell>
        <mxCell id="DjmhpiTltckPPBlG-SaG-105" value="" style="endArrow=classic;html=1;rounded=0;entryX=0.005;entryY=0.866;entryDx=0;entryDy=0;entryPerimeter=0;" parent="1" target="DjmhpiTltckPPBlG-SaG-97" edge="1">
          <mxGeometry width="50" height="50" relative="1" as="geometry">
            <mxPoint x="1240" y="520" as="sourcePoint" />
            <mxPoint x="1410" y="520.26" as="targetPoint" />
          </mxGeometry>
        </mxCell>
        <mxCell id="DjmhpiTltckPPBlG-SaG-106" value="Wallet-binded ID&lt;br&gt;&amp;amp; thumbprint" style="text;html=1;align=center;verticalAlign=middle;resizable=0;points=[];autosize=1;strokeColor=none;fillColor=none;fontSize=18;" parent="1" vertex="1">
          <mxGeometry x="1255" y="520" width="160" height="60" as="geometry" />
        </mxCell>
        <mxCell id="DjmhpiTltckPPBlG-SaG-108" value="&lt;font style=&quot;font-size: 18px;&quot;&gt;Update binded details&amp;nbsp;&lt;br style=&quot;border-color: var(--border-color);&quot;&gt;and thumbprint&lt;/font&gt;" style="endArrow=classic;html=1;rounded=0;entryX=0.825;entryY=-0.008;entryDx=0;entryDy=0;entryPerimeter=0;" parent="1" edge="1" target="DjmhpiTltckPPBlG-SaG-57">
          <mxGeometry x="-0.4179" y="13" width="50" height="50" relative="1" as="geometry">
            <mxPoint x="1718" y="540" as="sourcePoint" />
            <mxPoint x="1718" y="880" as="targetPoint" />
            <mxPoint x="1" y="-1" as="offset" />
          </mxGeometry>
        </mxCell>
        <mxCell id="DjmhpiTltckPPBlG-SaG-109" value="Initiate VC actiivation" style="edgeLabel;html=1;align=center;verticalAlign=middle;resizable=0;points=[];fontSize=18;" parent="DjmhpiTltckPPBlG-SaG-108" vertex="1" connectable="0">
          <mxGeometry x="0.0737" relative="1" as="geometry">
            <mxPoint x="-150" y="-28" as="offset" />
          </mxGeometry>
        </mxCell>
        <mxCell id="DjmhpiTltckPPBlG-SaG-113" value="&lt;font style=&quot;font-size: 20px;&quot;&gt;Backend Service&lt;/font&gt;" style="rounded=0;whiteSpace=wrap;html=1;align=center;fillColor=#DAE8FC;" parent="1" vertex="1">
          <mxGeometry x="214" y="1275" width="200" height="120" as="geometry" />
        </mxCell>
        <mxCell id="DjmhpiTltckPPBlG-SaG-114" value="&lt;font style=&quot;font-size: 17px;&quot;&gt;eSignet&lt;/font&gt;" style="text;html=1;align=center;verticalAlign=middle;resizable=0;points=[];autosize=1;strokeColor=none;fillColor=none;" parent="1" vertex="1">
          <mxGeometry x="289.43" y="1280" width="80" height="30" as="geometry" />
        </mxCell>
        <mxCell id="DjmhpiTltckPPBlG-SaG-115" value="" style="rounded=0;whiteSpace=wrap;html=1;fillColor=#DAE8FC;" parent="1" vertex="1">
          <mxGeometry x="1270" y="1350.28" width="200" height="129.72" as="geometry" />
        </mxCell>
        <mxCell id="DjmhpiTltckPPBlG-SaG-116" value="&lt;font style=&quot;font-size: 20px;&quot;&gt;Inji Verifier App&lt;/font&gt;" style="text;html=1;align=center;verticalAlign=middle;resizable=0;points=[];autosize=1;strokeColor=none;fillColor=none;" parent="1" vertex="1">
          <mxGeometry x="1280" y="1415.28" width="160" height="40" as="geometry" />
        </mxCell>
        <mxCell id="DjmhpiTltckPPBlG-SaG-117" value="" style="shape=image;verticalLabelPosition=bottom;labelBackgroundColor=default;verticalAlign=top;aspect=fixed;imageAspect=0;image=data:image/png,iVBORw0KGgoAAAANSUhEUgAAAMQAAADACAYAAABbN8x9AAAMP2lDQ1BJQ0MgUHJvZmlsZQAASImVVwdYU8kWnluSkEBoAQSkhN4EkRpASggt9N5EJSQBQokxEFTs6KKCaxcL2NBVEQUrzYIidhbF3hcLKsq6WLArb1JA133le/N9c+e//5z5z5lz5965A4DacY5IlIeqA5AvLBTHBvvTk1NS6aSngAwMYTUC7hxugYgZHR0OYBlq/17eXQeItL1iL9X6Z/9/LRo8fgEXACQa4gxeATcf4oMA4FVckbgQAKKUN5tSKJJiWIGWGAYI8UIpzpLjKinOkOO9Mpv4WBbE7QAoqXA44iwAVC9Bnl7EzYIaqv0QOwp5AiEAanSIffLzJ/EgTofYGtqIIJbqMzJ+0Mn6m2bGsCaHkzWM5XORFaUAQYEojzPt/0zH/y75eZIhH5awqmSLQ2Klc4Z5u5k7KUyKVSDuE2ZERkGsCfEHAU9mDzFKyZaEJMjtUQNuAQvmDOhA7MjjBIRBbABxkDAvMlzBZ2QKgtgQwxWCThUUsuMh1oV4Ib8gME5hs1k8KVbhC23IFLOYCv4sRyzzK/V1X5KbwFTov87msxX6mGpxdnwSxBSIzYsEiZEQq0LsUJAbF6awGVuczYocshFLYqXxm0McyxcG+8v1saJMcVCswr4sv2BovtjmbAE7UoH3F2bHh8jzg7VzObL44VywS3whM2FIh1+QHD40Fx4/IFA+d+wZX5gQp9D5ICr0j5WPxSmivGiFPW7KzwuW8qYQuxQUxSnG4omFcEHK9fFMUWF0vDxOvDiHExotjwdfBsIBCwQAOpDAmgEmgRwg6Oxr7IN38p4gwAFikAX4wF7BDI1IkvUI4TUOFIM/IeKDguFx/rJePiiC/NdhVn61B5my3iLZiFzwBOJ8EAby4L1ENko47C0RPIaM4B/eObByYbx5sEr7/z0/xH5nmJAJVzCSIY90tSFLYiAxgBhCDCLa4Pq4D+6Fh8OrH6xOOAP3GJrHd3vCE0IX4SHhGqGbcGuioET8U5QRoBvqBylykfFjLnBLqOmK++PeUB0q4zq4PrDHXaAfJu4LPbtClqWIW5oV+k/af5vBD09DYUd2JKPkEWQ/svXPI1VtVV2HVaS5/jE/8lgzhvPNGu752T/rh+zzYBv2syW2EDuAncFOYOewI1gjoGOtWBPWgR2V4uHV9Vi2uoa8xcriyYU6gn/4G3qy0kwWONY69jp+kfcV8qdKv9GANUk0TSzIyi6kM+GOwKezhVyHUXQnRydnAKT7i/zz9SZGtm8gOh3fuXl/AODdOjg4ePg7F9oKwD53+Po3f+esGXDrUAbgbDNXIi6Sc7j0QoBfCTX4punBvcsMWMP5OAE34AX8QCAIBVEgHqSACTD6bLjOxWAKmAHmglJQDpaB1WA92AS2gp1gD9gPGsERcAKcBhfAJXAN3IGrpwe8AP3gHfiMIAgJoSI0RA8xRiwQO8QJYSA+SCASjsQiKUg6koUIEQkyA5mHlCMrkPXIFqQG2Yc0IyeQc0gXcgt5gPQir5FPKIaqoFqoIWqJjkYZKBMNQ+PR8WgWOhktRuejS9C1aDW6G21AT6AX0GtoN/oCHcAApozpYCaYPcbAWFgUloplYmJsFlaGVWDVWB3WAp/zFawb68M+4kSchtNxe7iCQ/AEnItPxmfhi/H1+E68AW/Hr+AP8H78G4FKMCDYETwJbEIyIYswhVBKqCBsJxwinILvUg/hHZFI1CFaEd3hu5hCzCFOJy4mbiDWE48Tu4iPiAMkEkmPZEfyJkWROKRCUilpHWk3qZV0mdRD+qCkrGSs5KQUpJSqJFQqUapQ2qV0TOmy0lOlz2R1sgXZkxxF5pGnkZeSt5FbyBfJPeTPFA2KFcWbEk/JocylrKXUUU5R7lLeKCsrmyp7KMcoC5TnKK9V3qt8VvmB8kcVTRVbFZZKmopEZYnKDpXjKrdU3lCpVEuqHzWVWkhdQq2hnqTep35Qpak6qLJVeaqzVStVG1Qvq75UI6tZqDHVJqgVq1WoHVC7qNanTla3VGepc9RnqVeqN6vfUB/QoGmM0YjSyNdYrLFL45zGM02SpqVmoCZPc77mVs2Tmo9oGM2MxqJxafNo22inaD1aRC0rLbZWjla51h6tTq1+bU1tF+1E7analdpHtbt1MB1LHbZOns5Snf0613U+jTAcwRzBH7FoRN2IyyPe647U9dPl65bp1ute0/2kR9cL1MvVW67XqHdPH9e31Y/Rn6K/Uf+Uft9IrZFeI7kjy0buH3nbADWwNYg1mG6w1aDDYMDQyDDYUGS4zvCkYZ+RjpGfUY7RKqNjRr3GNGMfY4HxKuNW4+d0bTqTnkdfS2+n95sYmISYSEy2mHSafDa1Mk0wLTGtN71nRjFjmGWarTJrM+s3NzaPMJ9hXmt+24JswbDItlhjccbivaWVZZLlAstGy2dWulZsq2KrWqu71lRrX+vJ1tXWV22INgybXJsNNpdsUVtX22zbStuLdqidm53AboNd1yjCKI9RwlHVo27Yq9gz7Yvsa+0fOOg4hDuUODQ6vBxtPjp19PLRZ0Z/c3R1zHPc5nhnjOaY0DElY1rGvHaydeI6VTpddaY6BznPdm5yfuVi58J32ehy05XmGuG6wLXN9aubu5vYrc6t193cPd29yv0GQ4sRzVjMOOtB8PD3mO1xxOOjp5tnoed+z7+87L1yvXZ5PRtrNZY/dtvYR96m3hzvLd7dPnSfdJ/NPt2+Jr4c32rfh35mfjy/7X5PmTbMHOZu5kt/R3+x/yH/9yxP1kzW8QAsIDigLKAzUDMwIXB94P0g06CsoNqg/mDX4OnBx0MIIWEhy0NusA3ZXHYNuz/UPXRmaHuYSlhc2Pqwh+G24eLwlgg0IjRiZcTdSItIYWRjFIhiR62MuhdtFT05+nAMMSY6pjLmSeyY2BmxZ+JocRPjdsW9i/ePXxp/J8E6QZLQlqiWmJZYk/g+KSBpRVJ38ujkmckXUvRTBClNqaTUxNTtqQPjAsetHteT5ppWmnZ9vNX4qePPTdCfkDfh6ES1iZyJB9IJ6Unpu9K/cKI41ZyBDHZGVUY/l8Vdw33B8+Ot4vXyvfkr+E8zvTNXZD7L8s5amdWb7Ztdkd0nYAnWC17lhORsynmfG5W7I3cwLymvPl8pPz2/WagpzBW2TzKaNHVSl8hOVCrqnuw5efXkfnGYeHsBUjC+oKlQC/7Id0isJb9IHhT5FFUWfZiSOOXAVI2pwqkd02ynLZr2tDio+Lfp+HTu9LYZJjPmzngwkzlzyyxkVsasttlms+fP7pkTPGfnXMrc3Lm/lziWrCh5Oy9pXst8w/lz5j/6JfiX2lLVUnHpjQVeCzYtxBcKFnYucl60btG3Ml7Z+XLH8oryL4u5i8//OubXtb8OLslc0rnUbenGZcRlwmXXl/su37lCY0XxikcrI1Y2rKKvKlv1dvXE1ecqXCo2raGskazpXhu+tmmd+bpl676sz15/rdK/sr7KoGpR1fsNvA2XN/ptrNtkuKl806fNgs03twRvaai2rK7YStxatPXJtsRtZ35j/FazXX97+favO4Q7unfG7myvca+p2WWwa2ktWiup7d2dtvvSnoA9TXX2dVvqderL94K9kr3P96Xvu74/bH/bAcaBuoMWB6sO0Q6VNSAN0xr6G7Mbu5tSmrqaQ5vbWrxaDh12OLzjiMmRyqPaR5ceoxybf2ywtbh14LjoeN+JrBOP2ia23TmZfPJqe0x756mwU2dPB50+eYZ5pvWs99kj5zzPNZ9nnG+84HahocO149Dvrr8f6nTrbLjofrHpksellq6xXccu+14+cSXgyumr7KsXrkVe67qecP3mjbQb3Td5N5/dyrv16nbR7c935twl3C27p36v4r7B/eo/bP6o73brPvog4EHHw7iHdx5xH714XPD4S8/8J9QnFU+Nn9Y8c3p2pDeo99Lzcc97XohefO4r/VPjz6qX1i8P/uX3V0d/cn/PK/GrwdeL3+i92fHW5W3bQPTA/Xf57z6/L/ug92HnR8bHM5+SPj39POUL6cvarzZfW76Ffbs7mD84KOKIObJfAQxWNDMTgNc7AKCmAECD5zPKOPn5T1YQ+ZlVhsB/wvIzoqy4AVAH/99j+uDfzQ0A9m6Dxy+or5YGQDQVgHgPgDo7D9ehs5rsXCktRHgO2Bz9NSM/A/ybIj9z/hD3zy2QqrqAn9t/AYJwfI45sgNsAAAAimVYSWZNTQAqAAAACAAEARoABQAAAAEAAAA+ARsABQAAAAEAAABGASgAAwAAAAEAAgAAh2kABAAAAAEAAABOAAAAAAAAAJAAAAABAAAAkAAAAAEAA5KGAAcAAAASAAAAeKACAAQAAAABAAAAxKADAAQAAAABAAAAwAAAAABBU0NJSQAAAFNjcmVlbnNob3Stc5+2AAAACXBIWXMAABYlAAAWJQFJUiTwAAAB1mlUWHRYTUw6Y29tLmFkb2JlLnhtcAAAAAAAPHg6eG1wbWV0YSB4bWxuczp4PSJhZG9iZTpuczptZXRhLyIgeDp4bXB0az0iWE1QIENvcmUgNi4wLjAiPgogICA8cmRmOlJERiB4bWxuczpyZGY9Imh0dHA6Ly93d3cudzMub3JnLzE5OTkvMDIvMjItcmRmLXN5bnRheC1ucyMiPgogICAgICA8cmRmOkRlc2NyaXB0aW9uIHJkZjphYm91dD0iIgogICAgICAgICAgICB4bWxuczpleGlmPSJodHRwOi8vbnMuYWRvYmUuY29tL2V4aWYvMS4wLyI+CiAgICAgICAgIDxleGlmOlBpeGVsWURpbWVuc2lvbj4xOTI8L2V4aWY6UGl4ZWxZRGltZW5zaW9uPgogICAgICAgICA8ZXhpZjpQaXhlbFhEaW1lbnNpb24+MTk2PC9leGlmOlBpeGVsWERpbWVuc2lvbj4KICAgICAgICAgPGV4aWY6VXNlckNvbW1lbnQ+U2NyZWVuc2hvdDwvZXhpZjpVc2VyQ29tbWVudD4KICAgICAgPC9yZGY6RGVzY3JpcHRpb24+CiAgIDwvcmRmOlJERj4KPC94OnhtcG1ldGE+Cl0qJ3cAAAAcaURPVAAAAAIAAAAAAAAAYAAAACgAAABgAAAAYAAADsH/WclaAAAOjUlEQVR4AeydWYwdRxWGq/sus8Sz2BGQxPEahy1BiEUxJjIChBQJkHjggUg8WLyAkBBviCdQWIQQEovEUxQpEk88sQkBQgEEQQSxRYHYOAkkdmLH2JPY49gez9ylu+nJ0/2/M7qlzr1zfWfumaf5u06dqj51/jqnuqpvJ3meF2Eb/xWF3l6SJH3v1uWHa5++xh7DwsQJoaPihJhwQmRZJlNobAZV9xk/NPYOXXTFaEXeERxqU4KTJBUcgjrs2N/vFovIiRNC5oMQmxAGdkAnhBB8YHsOmXBOiFGvMZwQTgixwCaDcZtxTH+cEOIBxj5DnvGr6vdFtQxPCFUNGJMv2pekhe7FPwgurj0tON15WHBt8R7BSf0mwQSx/oxaftTtDXz//pRJh2xgg2KGc0Jsrn1V+xAmNCeEmtQJoU+x1DrVHW7Q+sMej2h/nBBqomEPgEeIzbWvaq9OWDPeTgg1qTEQUqBykSEV8vZFxZceE9z+70OC89UVwUlQfQH7DrVb3yHyzYOfF5zO7hUc7b9ID8GBaB/o32rQF9UYsahDOSHEYrF9GxHeAsAJgUFyQmzuGgLmHjvohMCQOCEmnBB+dENzeJMCIEXKrp0QCnXP/URwtvQXwfl1rBnobynOKjWnpX5tfp/gxv5PCU4X3i3YpPR5JuV556rg0L0iuOgoDrWGlKfTtwlO6nOC1ZrlySvTIREf+r6Paq++RvKjG3B4M4Aod0I4IUi6scbRlAe9j8o7IcRiHiHEHOMPog6OW4jKOyHEYtueEL4PIeNd5rS5XChWTglunfyK4PzKOcEh05yd+wrJTTtFvrbrbuAjgpPZOwSn07sFJ6nm+NnV01KeXfqH4PzS44rXLggOXV1jJLWmlKe3HBXc3Hu/4KS5SzBBdAJChZHLOyF0BJwQTgg+GFAP2eKo+gzjEaJ3yD1C9FpjG/zvhPCUqZ8bG/8YdcrEDvTr7Gsp42NTtmfKW3oWqXMe+wpnfq7dSOuCkx17BNcW3qb4dfcJTqZvERxyfcc65xrg8lMin1/8p+DuuT8LzteuC+ZZqaSmGyEFtkGSVMsDcUMrNPZ/QNqbevOXBG81MPKdajrosA1mHB5PiUy5E0KGwAkx4t9lckJ4hBAGjhnwCOERQlxy4iPE9j/LJOMdAn4HqbP0iAgUK88KThoLiuffLrg2favgkM4Kzlb+Jzhf1neos4tPSnm29ITgYlXfyQ6tlpYn+pDQOrSIh4A1BF6/CFwzcI2RYk2RzO2QBmbu/ZHgBL8zJYUlYMbAlHbU8hNwlgkmdUKIQZwQYo7ghPAIoR6BCOARInJcV603fsiGYPTRI4QYxCOEmCNM3qI61xw8XzuvFmnqWaMU5/15NilvX5P6+cv/Etx5Xtco2ZUXpDy0LisOulMe9LF/2Tz3CbR6gXLOb0kN8hCwBFH58gUHuZDUtIPT7/y+lk+9XrCdsFSfCJdg5PITtzHnhBCfK+jg6t/lIlvE19/4kQtOCDFHdUDGV9fQvwafUrC9xAkhBnRC4CmdRwhPmXoZ4inTNtup7h1c/98tUNUC225RXdUALu8W6LWAE6LXGv7/xFvACTHxLuAG6LXAyHeq+dSntzMb/V+0l+Vyfv2s4GLtjOB8Fe8IZx0pL59sKwbUwteAoA+nz+MKYxWg3ygctBzfsAv4HkU6o/sK6Zy+D5LOHZAuJXX9Zh6/kSfCYwCcEDEHqjpI0Bfzb6M+VgH6bX1zRS/E6jshRvsVUo8Q6p8GOSGMSUZ5wSNEdMasOBzQF/Nvoz1WAfptfXNFL8TqT3qEuPEbc3p2h2uEznMPyYBmy88ILlZxFqij7ygXmerHyYPy/QhRV56dUawHFcoyCACaJYpZsqBCgva1ddNcSFDf6ocG3I/pP8TxeoU5qhEa+J0m/M5Uff+HRGPzwEcEJztuV2wGRIon8SyTeoQTgg6h2AlhpigxEFNyHuUR4RIYeY8QaiJOwMb8EAD0COERQh0qhshI5iweIdSCJJxHCDNFicHoX5UjROyd6oEbQI6Y47dEO2d+KDfUOf1LwaHVFlzkTIqleIMZGvKAzMEt1gp0UCvP/mj9qHzF+zP9QfNcM3DNRHHTv4r9Yf10Xt9Jb971cWly6q3HBAf8Vi2Pm6vw8FH0KZMTQh3aOKAWD07Iig5o+kMfoYAu2Sht+1+xP04ImDRGII8QNBhwRQekv0Nb6eBgrBPCmKj3gkcI+AtnODoU/cvK95q3/J8VYu05IdSASLm1cPio8uG+WARgF4tsTS61nvmW4OzcnwQXa/rOs1kz0KGkdglYToekPGdM1od85f7Qwak/iiFACIzuVick9bH/bIDyxJSf1rNN0+/5nEg09t0nOGnq7z5J4SYAJ4QTQt2KDu2EUPsQeYSAxwDSXoEORfkohgAhsGmfEZLyMcz+s4FYfcp7hPCUSXwi5kCmHBcIgaWtdeCEMCbpd6FyytRP2atl+CGw7ku/kyqtJ3QNYb7JhgHGJ9/sAIt2W2zO5sBBAMuzQlAIyFfQY/Jccxh5tGfkcdiOEdr0H/3lmsrqR4VofyLyrM8OojzdebMonDryBcHNPe8TzPcpaI/KG3FYtDshMEDGYTEcTggYBPYz/m8uaH0nhEcI9Qg6FHL2xCOE2itiD48QMBcnJDPjQwDQU6YoQWlwxbQnUxqmcGMXIQY+ywQLdC//TSzUOfFNwdlVfUfaPIUR6RJEBojilCchYgNk5NlAXb8LXeacIpHjfQzen9GP+zPykRkR5of0+poKDWh3N5CX2ynPXmp9Hq2jetrfYtWH1kJt951yaeboVwXXFg8IHjYYfKcaFnFC6AtKxqHgDzDfBg6oLkgHZ32VdkJUJYwTAg5qZnBa1COEWISEtBFBxO1jQBR7hEBIhn08ZUJS4xFik1Omqm/McUCSQn/3qH3qQfHp9rM/FZzgHWduHMVmnCTVDxwUqf5eewKCUZ9NKaR75WNu1Vdb3CsC9T36jnCO7ztkZ38j8tmFFwRb+0mxnQB4A4hoqE1z2ocE0Ado5WlPNGgiKvtnsF5g++nsjLQwdfgzgptv+oTgQZ8qibISVN6HsAPqhOg1qhOi1xrl/+r/JmVyQniEEI/hDEsH4gTEclG27n9wQKtfBaLyHiFoYsUcIE+Z9GdwPEKovxgCg4GA5VeNt1jKhNsNBb7R1vr3AyKSLT0tmAYwU5pOYOUnnXTNUL/9iOhLF/W70WYARLoEpgMQSPW8fm3xLhFId9whmN+97l54VMpXH31AsOkf79dgXCAE1sZKxPvFPoSVxxVECJSW+nEliimA+niI0HijjvfsB7/DCkPFldcQbN0JoWsoJwQ8hP5PgkKch/ecEDSgRwh1Gdgn6l8U8Aih9gTyCAGDBE+Z1CKTljINepYpW/6rGLB1/BuCi5VXBDPnjJ3PT3fpb4E27/6y6EunbxOcty4KxnF3Nm9y4CSta/3mLsGhNi2Y+xrZtVNSvvKLY4L5Q2OcwM1RD+TUfKjB+uwP5fm7TFZeurvBURItZ/s0sC1HiItErHR+Xhqc++SvBQ8bDHx0wwmhQ+KEUHs4ITxCiEd4hBBzVH7q5REC9vOUSZMapkCcgVV63f/6pyhWHgOANURUHs2x+aqPgUdOiEHPMmUv/14s2D75bcH59RXBzDGNgWDQxp0flfqNfccEd8/j7NDZX0k5B8QOKBrEorr+hntFX333hwUX7auCu2f07Fb7+M+knA5qd5JF3Do0uqvSdgK2+lWBsY8WmzUEi6mf+ojNeEfWEKGm+1ALn/4jbpkjiuKKsPJTJg6oE8IJ0etzJACxE8IjRK+/mBmfMywjKCcglovyEtABrX6d46PySJm0drmNhgvUR2w66BECQ0iLwcCeMsEggLCm8Tc6LAVofiPvhKCJ++Pu0iMi0D75XcHF6qpiDihHBOXT7/2e1E8ai4JbJ74uODv/H8FmgKW0nFEx4CYjbejZpvTmQ6qhc11wvnxG8Zp+38L0B/dr+6M9YsSg+VS67EpUv3R3cHm0x/ZJSLRerlnMFbmw8NnHBPP9FS2sjiqvIdiEE8IJ0esTJKgTwiNEr3+E3COE2MMjhKdM4hCeMjGnEvPc+JRp0LNM3Zd+K3fUOqk5f1jTlII5MENqunOv6Ju552HBnRd/LLh9/EHBBb5JZ2YkjkcUq0A8JZDu2Mc+qs7k7DzLBG1G3vSHFSgQydE5HhbjBgCtPDrE/qD4hq8hnBAYETPAesGMpxYbh61MSCzy0Tuj3/SHFSjghKCFBA98uM8jhNjTOKwTgvbhDILyCGE3/SmTRwgMCMcLMyzgBgSgPigENCmGRwgYUOGmE2LQs0zFqv7uUHZJnxMX3Wt6R3SIoL+DlOzQ3/asLeg70+2n9PsSnef1G3UmBzcerN0xOavpn8pzn8A4tIqbs0BGnu0ZjAuEwGzeRKhEzwal87qvk87r+yfJlJbzFU97P9qhmPlNf80F3VmZPar7TqY/pn61C5X3IbgodkJEDM4ZX/1l4AgTdTgKOCH6DpgTgjkrHRbm8wihM7ZHCMw4HiHAGEKPELRIRawEHLuUyd5NZEplhYri2StPiobWk18TnC8vCQZfzWlM5tRRedFeLgng4GajDfKMKEYe9jDyA75TzRm8fkjf72ge/Jj0OJ3bI7jAb/eqe4roq4DfBMTtlSmiuSJKWMx34tOpnSIfmvrONd+JV+H15rV9/jZs5ZSJDdgk2ErIFe2PFG0EnBDqghxQjC/oU1oU9nZCqEGcEPAgQBtRwFKPEDAIoEcITkEwkIFKUFPMCx4hPEL0+sSmp0yDbsxll//e29/QPv0DwQHfT+CMrMIbvIHVviIi+VXFBb7xZvjJBklIYOb40RQF9dmc2ReRuykB6lsMAULgtK6/K1U79H5pceot9wvuPPew4O6LjwsuWh3B3Lcxa54uOoSneJQPWX95lheFThD1g++S/s0c/qLgdE73VaRwAzDw0Q0nhFrVCdHfwcedEP8HAAD///1e4TUAAA/0SURBVO2da4xdVRXHzzn3zr0znWk7bUqhMq2Ud0WCgICJhaAxPhKjCTGRRINBSQwmmBDfqMQPxg9Gg/qVxGCMxhgTPhlJMPIQHzSElApDK4VCTS19UB7Tedx7z8Mzfrr/35p0s3tmhiprPs3/rrX3XnudtfZa6+x9zkmLoqiSob80TYdQklSVkBPSi9eeEP7+i78QnPReE4zuhLYIUh0uqfpvCE85o7gqS6EnaF9PIEBXshkf7QGtvBguKfmDjmflJR3tCYGzdls6aF14o+DujpsFD174ueD80JOCq95AcEJ1Y35pDoEC/ImaX8L+Sa8qtc/2+VeLfGPXfUNwtnZKcAik7hCqIneIt7lDlCVcXO3DIEaM4vgfhac/fY/gcn5ecPSKyRWGS7T2Xoc0/qArSpplypAXgquQOkCnODpaLQ5XQBltiYhI+TkA6egvO0tXxNFr7hKO/NAvFR/ZIzgb3aB4w+WCy7ljio8+q3hmTnDK60f9UT/gT8FfIgJla9fJeKM3fFvwyNQNgpnh0J5Tdwh3iGGLcYfwCDFsD4lHCI8QgSAs9mKKbE+ZVD+eMr3NUia9/EmSH3tQfmINUaGGMCtwyB2RUzLnk8FrkGYt+al19rsUb7hScH7074LLY/sFJ6gxGFBZhGtjW0PQYVjzUD9poi04f5YYnR0fEhG67/6S4LnHPiO4tWaT4M6ldwjOJq8RXPX1ruHgxd8Ivb/7t4J514jzMzUWrneohkjXrJHxxq7/uuDO9o8KJqA+o2sIdugOQY0o5gVX8655sSDQYNwhVEEsqt0huCSq/XmE8AghFuERwlMmMQhPmSJTpqYbc+XcS3IB8lf+IjjJZxUDmQVfIyS4l4Dgz8a3CVN70/sFJ+1xwdXgdcH9Pd8XPHhpl2CmNEx5DMZ9dKZMZv6GX1sw502wr9K96haRt731g4Ln/3yb4JHzPyy4c9FXBSep7nzzPn7Ze1X4Z+//hGCz04z5kc6ag/tWFfYh0nGtIUZ3fk3G72z/mOAQaLxT7Q4BFcNBeUHVvOsSIsivLdwhVGHuELA/rsgeITxCDJuIRwhPmYbtIfGUKTJlanp0Iy37cgGqfEZxpTeWNQEwdx2l7SIgPxmYQqStUWVpTyhO9SwT5V+Y/rHw5/98QDD3IRihjLw4q6MBv+4aP3Bfg/MjPzXUueJTIm/nwpsEzz/6OcHZFj0tOnrpN4WednWfoipzoZev7hY8++CdglPOHzWEuS2t5lKfflUF8bZrZmoI3YcYOe8jKg9OcwuxBtH7ELxANCh3CKiYBgEyDdwdAgpyh1CFmBVXyeYoiUcIjxDDJuIRwlOmYXtIPGVa4ZRJtF2D4vWn5af85fsFVz29z8/bjKEIwJSCKRvp2cR2GX9kq66Y2dg5Qi9mDwruP6X7EPnhvULnPgRTHGGuAXNk0tme/ZOf86U+Oxe8T5p0r9Kcev7xW4XO8dvbPin09rabBZczzwse7L1XcP7SPwRzX8HMDykl+VlDhPchdL6hnWoV9jRqCHbgDkGNKHaHgD5QEyz/xpw7hGjcI4RHiGGD8AjhKdOwPSSeMp36LJMoqwaNj27w+HcPz1QnfB5Cbyub+8wU0OTMDLlsgP5b6zYKR7pOa4zi+D6hJ7MnBfOtHszZmYOTzhyYNVOYX1uwhmL7bM2YyN+54vOCs3Hdlxnsv0/oxesnBBv5kfOXwLFv3TApJfYhzPMQ+sRv0jrrHSLv6M67BY9svkIwAfXpDuEOITbiDtHwvUweIcSe3sRhvVh+jxDDGis9Qgyro76N6SmTKMRTpmVOmZqeZSqOPyQXqL/3J4LLBTwPgRw/mIMXmlQyp2eNYfvTAflIJnNkGpiuz9YhQ/y8rajS1EUcfwBmjsv5irJrwDfbtSa1hupepc9MJ2lPuihnpgVXC/oMNY6mGflJD+nX7Dtg/oaejYh8rS3XCR7Z+gHBaVtrKj7PQf02PsvkDiH6t4cRUXTyertDqP6Mw+t6mCTuEKoRjxAwIECPEB4hxCS44pqQyDUcNUkoBWINE+L3lEljIvVlUiJlty8/PtMihFhfDcrZF+QnplBVjvv6nLDB+kN58oD2f0TPTlUDPZ/PkGschAwagExOLIMvzhcOxO5MzYGUydB1umZfhjUPHZwGxv6NfJObZEojW68X3D7nWsHp+LmC66oHuCHk/APdZRNbhCNtdQQnqb6XS4lhFF1DsEt3CNUIzYUbT4ZOg4DDuUOoft0hPEKIRXiE8AghBlF4yiT68JRpmVOmpu9lSvBMdVno9yBSVE28gMxJMzzgU84fFgNY2PM9wcXxFwUzZzZbx0xRgE3NAYEBTc1BOu/Dq7A1wvix/BzPpmQYgDUTBGJ/Rh50Z+Q3dP6AASEPqAauvx3v/WpYM3CAxmeZ3CFUpUGDUnZ3CHcIWoSuaR4hAisqyHRA1ebizjUawAAtP64PivxwREB7jg8yEghSDfYI4SmTGgXsm/ZmDRwN3CFUn0DRt1254pRvPCNd5od/J7jqn/qZatYQrUk9v96Z+rT0t/DczwTn+/8guMLZJ9YQvI3JHJkGJp0vAqyY5DcGiX0I9mdrFnBwANg3uDndxRAhLKHxDB3zlc5qYPh1OJMScmPTRBwMQH2uu/2vAQ6QAVf8LJM7hGqcF5D7EMr9ZgwKFgbI/mD/7hBQkDsELMQjhFoI1GNXfI8QqjAiT5l0iTYGBYV5hFCF/N+lTDq90/jGnNqTDenj62WI8eu1Jhkce0TovT36LtZqbk7ozHGZUxuDpnzSmz3LZPoHPx2CKRVzaBoMIxoXJCM/xg/3jwaYv5UnwI/2ofFJR+/m5BRrCDN/vLuVKRL7pz6ji2p2yEdIgx9dNArTH1J3CFGxO4SoI3GH8AghFsEVzayQwl0DXW/MI7jxEQsDsH/g0Piko3ePEB4h1KI8QqiLrHiEaHqWKT/2J5G4N/0jwXwvU+g+PleM7nu/Jf211r9HcH/vDwUPDj4hmDUDc36usByfmCs06Qly2PbUlSJPNnmx4GTuqOD+/ocFJ4HnPYz82rr5XaOmd5kC7YM71fiG3vovPqYzxPc+lBiPGp9lcoeA0t0hVCHuEB4hhi3CI4SmgMO6+e//OEpi6B4hVCWeMp36EVlPmfQTaWo98ajxbdfi1cdl1N7TPxBcnXxDMHN6k4Mrd9Lept+ZHrnwy8JRntwnOD/ysGDeRbE1gHJYA8MKByiDLQI8z9G54BZhaXX1PUllrs+PLOy6S/iLf+n3FsxZLeGuAeUzGD8ANm1v3stk5MOAgQiRrp2QHtZ99kHBrNmUGI/cISp3CDEb2Kt1EDAQBgzcLIgBfncIuTqJRwiPEGIRHiE8ZRKD8JTpDEuZmINXswfkgvWm7xZcnDgkmO/7Z0hGBE4yfN+he/l3pL9svT4/keA7ysK8BOB8NIGqG+A2qgn57JP3xfFiLbIT9/bdKz/1n/qV4KSvRTZrHiM/FMr5Uv9mnyZ02xT9sz9ino0iXSdbl2RbL5GfJj5+n+AQWPGzTFSoOwQuiTuEKgQO4w7hEUINJIA8QqiCPEKoPjxl8pRJLGLFU6amZ5mSoicC957/qeD8wAOCTVGIkMqckjlgOqkfyEgnpqR/tjdYue19+wA9mLNnXemhc9FtgrOxzYKrXL+fMf+3rwi9+Pd+wcGzYMptnjfhPkGo5uB47N7ol9cTNQjJZvyOvnise+0XZMjuZbcIJqC9MMUP0t0hqFJgXEF3iFPrxziIO4RHiGGT8QihK4oivnOl1pxHiGHzqf+HxhjiPGVSBTFiQZueMkFBtCeTUsV+Yy6k8OLEo8LC71ZXM/rNMjqANK6B+R4DnqEy983VXuoezA86BI4O2P7QnhBYO6/vo5+tzz9ka98pLNX8K4Lzg08KTnJ8dhPj4XpDO4v+gAaYrw5WI7DH1hChGoW3XbnNk23ZLiKN7fyu4NbGHYIJggaPAamfxmeZuFHlDqGXyB1C9eEOMX2PaMQjhEeIYYPAgp14hGCIHtZW/b+nTJ4yDZvEGZcymZwLLl4NtEboH9CzOfn+3w/Pz+Ss9A+GWG286DHmF/mBNYEQa2D6hwC8T24cFPzsnzm4kQftKc+yv2QANUW8PJgh5QdmTcL5ZR397nTnGt1n4L5D2tJ9HkhjaibWFEH+2KLaHQJXHJAKd4dQjbhDeIQQi4hfkTVGcUHCgm/uMpkVGg3i5ZHp2AjPBQLYHcIdQiwo3gDdIYYVuOIpU+OjG8PS1v9zBUsrPb+/8NSd0iI/+qzgZIAiUqkm51dzWRyfDfiD0s1981Ozm/G5AmvvNQp8H8K05/icEOgkc3w6IFfopvxh+TFCS18K0L32VmHoXKLfA8m6a4VO+xLiEiC6hnCHUC3SgJQaLsLJ7w4BjbhDeISASSjEim9XXDAQAmvnS3yQBYftmvJbedEj5XOHcIeAiSikwRiMHwiBtXN3iOiUKfa2KxUei4uZvdJkcPDXgouXdwmu5hYUM2kOGASLCrKn3Mcgg4x+GikTV2T0z+mYlA0MgLVAKqCtqcDA+Wpz0x9vGxt2dM99k2xCa4DWeTuli9Er7xCcdvX7IEJcBkAHYU3S/CxTpJDuEKowGrg7hDuEWIhHCFFHvWLrEgxoVnSPENAfoEcIWJCaV51jM4UgAxRqblsG+E3KAX6IZ15f7w6BC9AQLrtDmJwLZ5koL/kNvXdEfsqPP6L4OX0vUcF3xTJHl9Y1oMWRDodgygL7Xfl9iOB8dAKcXihCmH0X7c5EHOPQAf7WuRcJR+fimwS3p24UnI1OCg7ZizCfBnCHoMVQie4QqhGuAJEO6g7hEUINiih2pzrSAOnvHiF4ARR7hKDFqH7M8XFPmaCgSAf9n48QK350IzKCGA/OdR+imHlGrlh5YrfiuYOCK7zrNYWDMEMw9/XBAGhzbjIQi3QWQDxTA9kIYPsY/iXk4MH5jqwZ7i7J1m4TPLL5asGtjZcJNu/GVeoZhxp/Y44zYlFEA4/lr9whRGXuEKKOZQfuEFQpVvTYFZYrrsEcD9gjBBSyytAdggp3hxCNVG+3lGm1zzKJtk8HcAmtBtJLiRQrxRJdAUvjRQCHMPTAD2zOFIcppEkx7TNvGDE0AtjNhCgR+Knflj7znLb03atJ2tYOAjWjMp95aNXPMjVWAS+YO0RApZEORP26QwT0+1aTecHcIQJXxB0ioCAhe4QQddSA9kN6ALM5ExRPmQIKfIvJ0Q5hct5Azrja/LH6jJUvtv/V5qfDcXzOl3S2D/GH2pMe2x/bx2LOh+0pjzsEUrCQAqnQMw2H5KcBUH62D/GH2pMe2x/bx2LOh+0pjzuEO4TYCA2IBiPMSwC2J0tsf2wfi2PlcYdwhxAbowHFGjDbS+c1iO2P7WNxrDyrvjEXUkjsBGIV1JSf8ofkbTrecrdfbfmpn9D4pMfOv+l47hCRGucF4wWI7G7V2VdbfuonND7psQpqOt5/ALzCxJu5U4wtAAAAAElFTkSuQmCC;" parent="1" vertex="1">
          <mxGeometry x="1360" y="1363.98" width="43.5" height="42.61" as="geometry" />
        </mxCell>
        <mxCell id="DjmhpiTltckPPBlG-SaG-118" value="" style="html=1;verticalLabelPosition=bottom;align=center;labelBackgroundColor=#ffffff;verticalAlign=top;strokeWidth=2;strokeColor=#0080F0;shadow=0;dashed=0;shape=mxgraph.ios7.icons.smartphone;" parent="1" vertex="1">
          <mxGeometry x="1306" y="1370.2799999999997" width="18" height="30" as="geometry" />
        </mxCell>
        <mxCell id="DjmhpiTltckPPBlG-SaG-122" value="" style="endArrow=classic;html=1;rounded=0;" parent="1" edge="1">
          <mxGeometry width="50" height="50" relative="1" as="geometry">
            <mxPoint x="1310" y="1350" as="sourcePoint" />
            <mxPoint x="1310" y="1050" as="targetPoint" />
          </mxGeometry>
        </mxCell>
        <mxCell id="DjmhpiTltckPPBlG-SaG-124" value="Request for credentials&lt;br style=&quot;font-size: 18px;&quot;&gt;by sharing QR code" style="edgeLabel;html=1;align=center;verticalAlign=middle;resizable=0;points=[];fontSize=18;" parent="DjmhpiTltckPPBlG-SaG-122" vertex="1" connectable="0">
          <mxGeometry x="-0.0801" y="-6" relative="1" as="geometry">
            <mxPoint x="-69" y="-8" as="offset" />
          </mxGeometry>
        </mxCell>
        <mxCell id="DjmhpiTltckPPBlG-SaG-125" value="" style="endArrow=classic;html=1;rounded=0;exitX=0.674;exitY=1.006;exitDx=0;exitDy=0;exitPerimeter=0;" parent="1" source="DjmhpiTltckPPBlG-SaG-57" edge="1">
          <mxGeometry width="50" height="50" relative="1" as="geometry">
            <mxPoint x="1410" y="1040" as="sourcePoint" />
            <mxPoint x="1427" y="1350" as="targetPoint" />
          </mxGeometry>
        </mxCell>
        <mxCell id="DjmhpiTltckPPBlG-SaG-126" value="Share Credentials&lt;br style=&quot;font-size: 18px;&quot;&gt;with or without&lt;br style=&quot;font-size: 18px;&quot;&gt;face verifcation" style="edgeLabel;html=1;align=center;verticalAlign=middle;resizable=0;points=[];fontSize=18;" parent="DjmhpiTltckPPBlG-SaG-125" vertex="1" connectable="0">
          <mxGeometry x="-0.3485" y="5" relative="1" as="geometry">
            <mxPoint x="34" y="33" as="offset" />
          </mxGeometry>
        </mxCell>
        <mxCell id="DjmhpiTltckPPBlG-SaG-127" value="" style="shape=image;html=1;verticalAlign=top;verticalLabelPosition=bottom;labelBackgroundColor=#ffffff;imageAspect=0;aspect=fixed;image=https://cdn1.iconfinder.com/data/icons/business-and-finance-20/200/vector_65_12-128.png" parent="1" vertex="1">
          <mxGeometry x="1324" y="1280.28" width="60" height="60" as="geometry" />
        </mxCell>
        <mxCell id="DjmhpiTltckPPBlG-SaG-134" value="&lt;h1 style=&quot;font-size: 18px;&quot;&gt;&lt;font style=&quot;font-size: 18px;&quot;&gt;Login to eSignet&lt;/font&gt;&lt;/h1&gt;&lt;p style=&quot;font-size: 18px;&quot;&gt;&lt;/p&gt;&lt;ol style=&quot;font-size: 15px;&quot;&gt;&lt;li&gt;App scans QR code&lt;/li&gt;&lt;li&gt;After successful scan, authenticate by sending jwt and claims (attach wallet-binded ID &amp;amp; thumbprint)&lt;/li&gt;&lt;li style=&quot;&quot;&gt;Authenticate VC after face match&lt;/li&gt;&lt;/ol&gt;&lt;p&gt;&lt;/p&gt;" style="text;html=1;strokeColor=#6c8ebf;fillColor=#FFF2CC;spacing=5;spacingTop=-20;whiteSpace=wrap;overflow=hidden;rounded=0;" parent="1" vertex="1">
          <mxGeometry x="-90" y="1255" width="277.26" height="151" as="geometry" />
        </mxCell>
        <mxCell id="DjmhpiTltckPPBlG-SaG-135" value="" style="shape=image;verticalLabelPosition=bottom;labelBackgroundColor=default;verticalAlign=top;aspect=fixed;imageAspect=0;image=data:image/png,iVBORw0KGgoAAAANSUhEUgAAAKYAAACkCAYAAAAdQFV8AAAMP2lDQ1BJQ0MgUHJvZmlsZQAASImVVwdYU8kWnluSkEBoAQSkhN4EkRpASggt9N5EJSQBQokxEFTs6KKCaxcL2NBVEQUrzYIidhbF3hcLKsq6WLArb1JA133le/N9c+e//5z5z5lz5965A4DacY5IlIeqA5AvLBTHBvvTk1NS6aSngAwMYTUC7hxugYgZHR0OYBlq/17eXQeItL1iL9X6Z/9/LRo8fgEXACQa4gxeATcf4oMA4FVckbgQAKKUN5tSKJJiWIGWGAYI8UIpzpLjKinOkOO9Mpv4WBbE7QAoqXA44iwAVC9Bnl7EzYIaqv0QOwp5AiEAanSIffLzJ/EgTofYGtqIIJbqMzJ+0Mn6m2bGsCaHkzWM5XORFaUAQYEojzPt/0zH/y75eZIhH5awqmSLQ2Klc4Z5u5k7KUyKVSDuE2ZERkGsCfEHAU9mDzFKyZaEJMjtUQNuAQvmDOhA7MjjBIRBbABxkDAvMlzBZ2QKgtgQwxWCThUUsuMh1oV4Ib8gME5hs1k8KVbhC23IFLOYCv4sRyzzK/V1X5KbwFTov87msxX6mGpxdnwSxBSIzYsEiZEQq0LsUJAbF6awGVuczYocshFLYqXxm0McyxcG+8v1saJMcVCswr4sv2BovtjmbAE7UoH3F2bHh8jzg7VzObL44VywS3whM2FIh1+QHD40Fx4/IFA+d+wZX5gQp9D5ICr0j5WPxSmivGiFPW7KzwuW8qYQuxQUxSnG4omFcEHK9fFMUWF0vDxOvDiHExotjwdfBsIBCwQAOpDAmgEmgRwg6Oxr7IN38p4gwAFikAX4wF7BDI1IkvUI4TUOFIM/IeKDguFx/rJePiiC/NdhVn61B5my3iLZiFzwBOJ8EAby4L1ENko47C0RPIaM4B/eObByYbx5sEr7/z0/xH5nmJAJVzCSIY90tSFLYiAxgBhCDCLa4Pq4D+6Fh8OrH6xOOAP3GJrHd3vCE0IX4SHhGqGbcGuioET8U5QRoBvqBylykfFjLnBLqOmK++PeUB0q4zq4PrDHXaAfJu4LPbtClqWIW5oV+k/af5vBD09DYUd2JKPkEWQ/svXPI1VtVV2HVaS5/jE/8lgzhvPNGu752T/rh+zzYBv2syW2EDuAncFOYOewI1gjoGOtWBPWgR2V4uHV9Vi2uoa8xcriyYU6gn/4G3qy0kwWONY69jp+kfcV8qdKv9GANUk0TSzIyi6kM+GOwKezhVyHUXQnRydnAKT7i/zz9SZGtm8gOh3fuXl/AODdOjg4ePg7F9oKwD53+Po3f+esGXDrUAbgbDNXIi6Sc7j0QoBfCTX4punBvcsMWMP5OAE34AX8QCAIBVEgHqSACTD6bLjOxWAKmAHmglJQDpaB1WA92AS2gp1gD9gPGsERcAKcBhfAJXAN3IGrpwe8AP3gHfiMIAgJoSI0RA8xRiwQO8QJYSA+SCASjsQiKUg6koUIEQkyA5mHlCMrkPXIFqQG2Yc0IyeQc0gXcgt5gPQir5FPKIaqoFqoIWqJjkYZKBMNQ+PR8WgWOhktRuejS9C1aDW6G21AT6AX0GtoN/oCHcAApozpYCaYPcbAWFgUloplYmJsFlaGVWDVWB3WAp/zFawb68M+4kSchtNxe7iCQ/AEnItPxmfhi/H1+E68AW/Hr+AP8H78G4FKMCDYETwJbEIyIYswhVBKqCBsJxwinILvUg/hHZFI1CFaEd3hu5hCzCFOJy4mbiDWE48Tu4iPiAMkEkmPZEfyJkWROKRCUilpHWk3qZV0mdRD+qCkrGSs5KQUpJSqJFQqUapQ2qV0TOmy0lOlz2R1sgXZkxxF5pGnkZeSt5FbyBfJPeTPFA2KFcWbEk/JocylrKXUUU5R7lLeKCsrmyp7KMcoC5TnKK9V3qt8VvmB8kcVTRVbFZZKmopEZYnKDpXjKrdU3lCpVEuqHzWVWkhdQq2hnqTep35Qpak6qLJVeaqzVStVG1Qvq75UI6tZqDHVJqgVq1WoHVC7qNanTla3VGepc9RnqVeqN6vfUB/QoGmM0YjSyNdYrLFL45zGM02SpqVmoCZPc77mVs2Tmo9oGM2MxqJxafNo22inaD1aRC0rLbZWjla51h6tTq1+bU1tF+1E7analdpHtbt1MB1LHbZOns5Snf0613U+jTAcwRzBH7FoRN2IyyPe647U9dPl65bp1ute0/2kR9cL1MvVW67XqHdPH9e31Y/Rn6K/Uf+Uft9IrZFeI7kjy0buH3nbADWwNYg1mG6w1aDDYMDQyDDYUGS4zvCkYZ+RjpGfUY7RKqNjRr3GNGMfY4HxKuNW4+d0bTqTnkdfS2+n95sYmISYSEy2mHSafDa1Mk0wLTGtN71nRjFjmGWarTJrM+s3NzaPMJ9hXmt+24JswbDItlhjccbivaWVZZLlAstGy2dWulZsq2KrWqu71lRrX+vJ1tXWV22INgybXJsNNpdsUVtX22zbStuLdqidm53AboNd1yjCKI9RwlHVo27Yq9gz7Yvsa+0fOOg4hDuUODQ6vBxtPjp19PLRZ0Z/c3R1zHPc5nhnjOaY0DElY1rGvHaydeI6VTpddaY6BznPdm5yfuVi58J32ehy05XmGuG6wLXN9aubu5vYrc6t193cPd29yv0GQ4sRzVjMOOtB8PD3mO1xxOOjp5tnoed+z7+87L1yvXZ5PRtrNZY/dtvYR96m3hzvLd7dPnSfdJ/NPt2+Jr4c32rfh35mfjy/7X5PmTbMHOZu5kt/R3+x/yH/9yxP1kzW8QAsIDigLKAzUDMwIXB94P0g06CsoNqg/mDX4OnBx0MIIWEhy0NusA3ZXHYNuz/UPXRmaHuYSlhc2Pqwh+G24eLwlgg0IjRiZcTdSItIYWRjFIhiR62MuhdtFT05+nAMMSY6pjLmSeyY2BmxZ+JocRPjdsW9i/ePXxp/J8E6QZLQlqiWmJZYk/g+KSBpRVJ38ujkmckXUvRTBClNqaTUxNTtqQPjAsetHteT5ppWmnZ9vNX4qePPTdCfkDfh6ES1iZyJB9IJ6Unpu9K/cKI41ZyBDHZGVUY/l8Vdw33B8+Ot4vXyvfkr+E8zvTNXZD7L8s5amdWb7Ztdkd0nYAnWC17lhORsynmfG5W7I3cwLymvPl8pPz2/WagpzBW2TzKaNHVSl8hOVCrqnuw5efXkfnGYeHsBUjC+oKlQC/7Id0isJb9IHhT5FFUWfZiSOOXAVI2pwqkd02ynLZr2tDio+Lfp+HTu9LYZJjPmzngwkzlzyyxkVsasttlms+fP7pkTPGfnXMrc3Lm/lziWrCh5Oy9pXst8w/lz5j/6JfiX2lLVUnHpjQVeCzYtxBcKFnYucl60btG3Ml7Z+XLH8oryL4u5i8//OubXtb8OLslc0rnUbenGZcRlwmXXl/su37lCY0XxikcrI1Y2rKKvKlv1dvXE1ecqXCo2raGskazpXhu+tmmd+bpl676sz15/rdK/sr7KoGpR1fsNvA2XN/ptrNtkuKl806fNgs03twRvaai2rK7YStxatPXJtsRtZ35j/FazXX97+favO4Q7unfG7myvca+p2WWwa2ktWiup7d2dtvvSnoA9TXX2dVvqderL94K9kr3P96Xvu74/bH/bAcaBuoMWB6sO0Q6VNSAN0xr6G7Mbu5tSmrqaQ5vbWrxaDh12OLzjiMmRyqPaR5ceoxybf2ywtbh14LjoeN+JrBOP2ia23TmZfPJqe0x756mwU2dPB50+eYZ5pvWs99kj5zzPNZ9nnG+84HahocO149Dvrr8f6nTrbLjofrHpksellq6xXccu+14+cSXgyumr7KsXrkVe67qecP3mjbQb3Td5N5/dyrv16nbR7c935twl3C27p36v4r7B/eo/bP6o73brPvog4EHHw7iHdx5xH714XPD4S8/8J9QnFU+Nn9Y8c3p2pDeo99Lzcc97XohefO4r/VPjz6qX1i8P/uX3V0d/cn/PK/GrwdeL3+i92fHW5W3bQPTA/Xf57z6/L/ug92HnR8bHM5+SPj39POUL6cvarzZfW76Ffbs7mD84KOKIObJfAQxWNDMTgNc7AKCmAECD5zPKOPn5T1YQ+ZlVhsB/wvIzoqy4AVAH/99j+uDfzQ0A9m6Dxy+or5YGQDQVgHgPgDo7D9ehs5rsXCktRHgO2Bz9NSM/A/ybIj9z/hD3zy2QqrqAn9t/AYJwfI45sgNsAAAAimVYSWZNTQAqAAAACAAEARoABQAAAAEAAAA+ARsABQAAAAEAAABGASgAAwAAAAEAAgAAh2kABAAAAAEAAABOAAAAAAAAAJAAAAABAAAAkAAAAAEAA5KGAAcAAAASAAAAeKACAAQAAAABAAAApqADAAQAAAABAAAApAAAAABBU0NJSQAAAFNjcmVlbnNob3SVIZ2nAAAACXBIWXMAABYlAAAWJQFJUiTwAAAB1mlUWHRYTUw6Y29tLmFkb2JlLnhtcAAAAAAAPHg6eG1wbWV0YSB4bWxuczp4PSJhZG9iZTpuczptZXRhLyIgeDp4bXB0az0iWE1QIENvcmUgNi4wLjAiPgogICA8cmRmOlJERiB4bWxuczpyZGY9Imh0dHA6Ly93d3cudzMub3JnLzE5OTkvMDIvMjItcmRmLXN5bnRheC1ucyMiPgogICAgICA8cmRmOkRlc2NyaXB0aW9uIHJkZjphYm91dD0iIgogICAgICAgICAgICB4bWxuczpleGlmPSJodHRwOi8vbnMuYWRvYmUuY29tL2V4aWYvMS4wLyI+CiAgICAgICAgIDxleGlmOlBpeGVsWURpbWVuc2lvbj4xNjQ8L2V4aWY6UGl4ZWxZRGltZW5zaW9uPgogICAgICAgICA8ZXhpZjpQaXhlbFhEaW1lbnNpb24+MTY2PC9leGlmOlBpeGVsWERpbWVuc2lvbj4KICAgICAgICAgPGV4aWY6VXNlckNvbW1lbnQ+U2NyZWVuc2hvdDwvZXhpZjpVc2VyQ29tbWVudD4KICAgICAgPC9yZGY6RGVzY3JpcHRpb24+CiAgIDwvcmRmOlJERj4KPC94OnhtcG1ldGE+CkKZqcgAAAAcaURPVAAAAAIAAAAAAAAAUgAAACgAAABSAAAAUgAAMRhuYLHkAAAw5ElEQVR4Aeydh7dlt3Xez+ttGnuR2DspkqJIiZRkK7aT2MtJ7MTxX5rlrNiJYtlZsWOrkGKVSImdYhXrzLze8v0+YOPg4t3zyvCJQ47mkHdw0DY2Nr6DsrGBN7Grp/sKP0dlf2Ji4lC1renW74fK3CTar8z94hoyv1feCQn9MjDHNHmIJdwui+mowgrghdsWNRTepvt983/lgRkNVgAUAQe4BwEi6IUbwCxkD9nzRvqDyot04R41feS7VNzLwBxoyQBkuE4Wg8sAKGswjeRT5jpuoMiR4KOmH8l8CXguGWBGWwQgwo3woYZuw9t8kd/uAcAcSTvg2Ze+8gQ/4Q6QueSDLwOz6f0OAs4QIgJIB+U/KD7ohDtU3qUefskAs23w1t82dOuPhm7ztf42X+s/LJ1I17otvdbfpr9U/ZeB2bRsC8TW3wKl9Qe5Nl/rj3St29Jr/W36S9X/lQfmUINH+Je1YYO/FlhD/A6Ft/kvFf9lYF6klrwMzP0Ff8kCs6122+MMAaPNN+Rv6UW6Qbqxoo+EsegaCo90jTtUbpPsK++9DMwDm1B7PWW7h/fiUc76HUL1dqfeA3xtGXX4CD1I1DTajL06aW/MpRXylQXmYM/UtM9QD1Pyt8Bo8ht8pAGDuzv6f9su74CU/3gmACWgmpjsf5OTSS9psKV4wy7A5/zO3v8zxE/kySmH6tUT+mq//X4CE0AYAAlwu9ub3c7Gare7tdl1Oxl8AuDu9lbX6WfXfoXtyF/AabQGVBIgDUaBc3JKGOWX36emu4mpmW5iGne66/ArXh69Kx1x9hu6e1F1GZh7ZfK7DImeK3qA1t+WHfFteOsPem248wPK6PHkbq+c67Y+fqfbPv+ZwLkukK51u2sr3c76crcjd3ddoCVsa0O4FTB31WvyuLPkn9QbRo85Qa8JQAW0SQA4PddNzi10k/OL+p3oJhfSb2JO/tn5FLZ42mkMTsDc9pwNMF0+JQ+ER/xX1b3oPWYALQTc+mvBRlwdNvSe6OWekV5QveLupoAFwOgdBbYdAY3eb3v5s27zw7cFzE8MPuITIAVOAEr6jXXRID3ANCKrogEm3gRQA1OAobecmJzuJgXMiTkBcG5JoFzqJgKcBuZCN7V4sps8eWU3tXBK6QTgWaUnz8ys8s5Wvavot2VTziUIzosGzGjcVqgRXrX6yGvEl3xjGsoQUWPt5jkhvd2OesXtcx93m5+83219+n63/ckH6ik/EzjVQ66vuNfc3RT4BOKOoRoAbuMyfGc397I1Q3shWoMUqALOyW7XwzrDNkN4HsrzcD4JaBdPdVNLV3RTAuj0qau7qdNX250+eUXqYWfmPD3wVIOu2h11BuUhwBlyq3kf917kOi7yCwy7tIApkBpE7h0ZklPPBwAB5fZnv03AFDi3P/2twHg2AVM9YbeV545HFP5eYCYCEe6OVEHh719SOoDAnJOecgpwnlDPeeoq/QTM09d0MwLo1AkBVnGT8+ptBVB60pE56WVgHrHVjpB86Ium4SIONxq6Je10LGLo/TQ0b3/6gXvGrY/f67Y+U+949qMExJgvqnfcAcAM8+4J0yq7pTvkLzwNJcjhwW8BZhNur+akEyyAplkcaegGfMxLZxcNyOmTV3XTV17XzVx5Yzdz9dcEWIF1SXNSelEeyeigp/CbR5joGSM8/EGn9Uf4F+VetB6zrmAIpw6Ld0TuRqU31HtqAr3hiaGauSJzxlUtYs7nnhFAfvKehmwN3ec+6nYE1t1NzS9pmNw4lGEyvPBU4Slg+N/gmfxDTw2XNl0dR/4Awq4j+BgVpiF/YmZeIDyVes8rbxAwvy6A3tBNn7lG4WfSokoLKPek6nmHnsJvrmMpr/FH/ogP/xftXnRgtgILAYwIJgATLnDSuxc0AuSWesPN377pBczWx+/Kr2F6+VMBdTmBUYse0gLkGhCAZQQw0AwGSlkpIPg8TO8UJOzWNKuImo8qOH95AiaBDNGAk6FevSMr+An1otOah85c9bUE0msA6vUG7qQWUyNyE4nCdy6k9efgkq/NH/FftPulBOaIcGqA5HerdFbPuxfcVm+4+dE73cZ7r8t9Ow3b9I6svgFjfgrNZtgrQMzpxjbcALiC9n7uWHrKMAjM4CP3nMFuEYMYRuU0feZa95zuQa+5qZtVTzp9RkO8VvYGsKYGQvVlYO7XOPvFRcOFWwBEptIaNYVdLWQ+6Tbfe0VgfK3bfP916SA1bLO4EVg9XKMYR9cIoDIN082tbDDm8BaYUVLCRYYPdCLiADfKOyDZBUfDh3tRqZQmZxa0aFIPqsXSzDU3d3M33N7Nf/1uA9a9p+ashZ9cX/f4UR/CskxC7uFeMIPHlPFL1WOGUICDgRDCZC6pXRkWNjtaYW+ph1x/+1cC56sawt9KK273kAJkfoIWDcM7P2iaLm7QjgyNG/mb4APzHUS3pXdUf/Bf8ikAhf30Fdd3s9fdImDe081ec4vnoNMnzgi4WskLoGI8ZQGIerePsMvALKLc87JfYwJSlOIovwHh+lu/VC/5WlrYKMyK8KwoL8LfUwLyz8CMRmnT1A1XxbUAbXlt/VVWv7b5I34o36HTZ4AZYQIeivvJhZMayk+qx7yxmxNA5264o5u7/lYvkjIse4AGI7gZnOk1jxJ1/EV4v+g9ZtS5NFQFEPeSa+et6tn88DfdxruvdOtv/qLb0vuOwq0Qj/RBaJwrWavPTD3mOGDWNKpGglQNlNLL5DIKz+PKzGF1/jrZUN7Dpo90pgPPrMhRO+k/lPQG5dfuUg96r1VMKPAnWDy5fhX49qlvze8X/X7RgTnYQJLElnrEdYFx4+2X9dPQrcXNjuaSO2vLaWeGHZnmiQZrgjurYYQsyqsBVr8fpucYSa9C7G8Lkz+aPto9+Orrm1L0/lEikX40dK+v5Gd/3iQFTelC6TmnT1/bzV57SzcHQG/9hnSh1ye1EsYi8TEGg5n0Ycvdy8nxhny5gImw9NuRvpEtxM0P3+pWX38hgVKLHHZvsPZB7eMnWr+SyZBgAWYin6GUG6Y0bNDIDVXTifcEShL2i6p9gakyg8VCI5cbMXvKz3xE+mBryE08tVxQqjZDZTQyfeqabvb627r52x/SsH67V/PuPVFBjbFmOmy5Q/wcV/jvDJitwPetsBrLomVfWvvT7GWvachef+slLXJ+7fnkrnpJrHvSl54bIlo9S4Myhsohh38FGAT0AKt7S8gFnULTgNV0wEWTL+0Y8Y1kbshWyDifAwKCji7/BBshp6BROrAIyDlKuP3Uk3L5ZzRh0CNZUtDPeZdo6sx1Gt7v7Bbu/KaAqnkn1kwe2ulpG0HmMi+m86UAprcF1RMyRNMrbmi1vfrK0936Oy9rBf6ud3T2CClkKbe8ZgEHqCIPTRfNVzfcQcBM1kHZrjLrBSkNQPApJVelB3FehFSnMGBAbf/b3SE+5XRSGLQ/OE1u1KcOHcVO/QHykfQpS/1yoGWBkn52wQr5hTsf6eZvukfvN1nNNKlw24eOFtATvEhvxw7MIpiBCrWgIVla5Cx7Drn++vPd+m9e6jbQT372oVREMjnDWHeikn5NWwKlIUsPleNKOYon5whfAQbculXJC734abhjPzoZTshlgaHhD0sh2aOlX150GB3MeVHq85N1kl2puWwup95+B0MR6sL+vLkyLuEugStXsQBTL37v/zFvic2SCm+pR6lPXS8WReLZaiUp5me1Wl+4/WEvkFDUo7C3vFTvwz5RTpHzYTMOpAt6EX2swGyJRyG1W1ckmZht2ehiS/aQ6+/8ult/7dkEShY5gDILOBqypuV3QKQXg6mKHClH4QXWgJF00KUh1GDJsjwZUNhyR2Ccii3AbMwLOL3yJb2BKd0goCzAFE0DU9ONACagRJWFwQjzZqyd1nH1Y5sUsCqtP0z85IctkQqMlHrkehJh+BSXuvB/AnepWw1MJeGBb+oxrb32+ZvvyyqlO7uZK64zaG1AkpIe+G+0S+HvwBz7Jwh6kerYgBmEwy0FhIQjoHKT0lw9pXrH1Zd+0m2op9z89D1tNZ51Y7l38Vwug6jOG4LPDRTApHy/53KjoXDrd4CJ4nlyNuv/MC2T7ePUKdlD4mK4q3nYFPvPBmXa4jMwTDvPzbwaNlRUgEqohu44pmFgAkobmXzq6crW2Y+ldWA//2y3pS1UvysNTwJm6rnNZ65L1CuAafRmOdT1I0/bDokwNNV7avhmAYRCfvGOR7o5De0o5SdlsRRAG5sf3jIvpncM/wyWowi31+ctI8iEC73BSlhwO97rRj+J0nz1xX81QG0tzsqb5snpTLMRSApzKSonN6a81CYldfOSwI/VRfR0nK0R0NjKQ6ViW0dsIA1MjHQTKKcVNrmoIxCy7qFHTYUYEkFyxI261vU3M9SBXlG95jY6WUzyzn1qwxMMTbAJ9eaBbEWJY3eLff5OBsw+b6ReVL2HZRll2FUlqSf15YlGdPmUGREpeu+/yoy9Jz3n/C0P6Cd1kgxD0j676htPEmb4zEfxHMPLEJ/H3mMexCtCpSdkKNv84I1u5aUfS2n+gt7f7Hakt6THgdki4EwwKhCNEw0xobnnKATJEADKMQhXPx9bEOCmtULF+GH6Ktk3aisP8zGUz2k+KSNc6QEnszGuz+6ol4nyDqrfnngAQp2YV2IV7+E9AdUbBBrOt2UFtb2snS2Z6G1IDpw/2hJQ2X4lTSdNBfWOursurmLU8/DAHKGBSR09p9RJC3c/Jn3nPd7a5KiHxn3/nB75NU+h04Qf1Rvt2ub7nQEzGN9TsBqKXRtsJdfeerFb+eX/847OjnoO5lwln1awNRjivWkPpU8xe9dGSqmeDmOGdNbmROoVNdlnjmVgXiG7Rhnd2jKcA2A0Rn6Cj/DvqUdEHORGzzXSuIBVGeMj1EeKRgJzvQ1tu3L+aOsTme9p8ZfM97TLpZ60k3yYHjizgUrhCTSWQnzQpIhySVI9qV7KU/EzJZmggJ+/+X7NO7VThCLeq3WNLqRzWjqLRMgluvxUdkX+yK+DfCoiF3dkms5wpOw0hL5+hu/VX/+sW3vjeYHyZW05fuhe1ELPAkuCbniykEaaQs2ilG0NnE4KZpmATQt8WN6wEmUPmXnkJIe/ZNcYvaSPz9LAuey61CPVTxnb9Ps3XeLdFvQasnfUO9rgmQ+Xeaes8LEPYDTZ+OB1b81al8vwzodURgY4TkJoyyeGJ8LjgysiU/N7WsM25tfu7pbufULgvFtTGn2w+qh7UMYoJmKq1KR71KoXdylH/yf4anN+7h5ziHBbEIJjRYrJ2vrbL3Urv/gnL3a2ZXHO6rsHBSJLKp5RGgCnT1ZS8F1lKXu1HL2kJvKoQqYB5bW3CZi3p9Un52Y4vnDI5/D1SwTb9PsDs2IifxQAJ011NCfFcEW9J1MetmaxO0XPyyLK81BUUs3Tlh/REV6AmfsjO5MCmOTGKLJ016PuPQEp547iA0gbCgFnpecEqHgNelHOUd3gq833uYHZEmwLMuOqPRXb0gGwtTde6NbQVb7+rIardzx8j/aUCWi9CFSCWzcBExTWjU15ya8eUnMmVpvTV31dK837uhntcMyox2SF7fPcsmG0/nFMz9jW47D+tr6Rr22wwXR9hniTq9ozJ8XUj9W8pjlbGlUY5pO5XzKKBqDxRHlRTrhD8VmoLivJWsYfkt3M1Td2C1oMLT3wh5p73q5RRQtFLRpNzyimHTIgKzlG+VHeYd2Wz8j3hQCT4QcjXgx7V15ksfML74PvrH6WMQe0UoUTo3l+Ceii8tlNIAz2aUKl0cEtGy2g4jmjofu6W7s5zZdmtbsxJZtELhuIZ0gQEX9Ud4he4TsTHEwXBUY9s7/Oz6oe3SdbtesyaGFHDEsr5umAlikA81Whx7n9r95xQ15Br+cjYug0MjQZbbS/PnfjnQLmH3i1zuIQxXykiXYKej37QS9CDuf2dEfTHxswo4BgOPwU5wsFNBzRW6Kv3NR8aWdDk3kU0dVj8eQGivwj1VWc/VUjkmdKpwjnbrjL80i+8mnmkqh/YthmO7F5Cv2KVp1kXD3q+Mhfh/Ee+drw1h/5D5Ue4Mgi34p5AXFTZ+I3JM8NbUisvfnLBFAWRlaztSUN+Kk3ZP2PJS/mJ31zCAtCWyTd9lC3eM93fL6op5JbpJHboerREylvrRyKXy+Zq5L2gl6CjBnMX6svC5CwMFdbfeXn2tV5zjpLFjvxKSf58NXmYhPyyheaxZAi5TE0ycQuBioeKcFndOZl/uZvGJy800syZKf5UdAdodTTbwRcV566RL3qcN6Hwg/bQJH/sOmLXDXEo9WwakkG015AcsSEs/ICbdp1YuV+0JPkkfhIwncIopXVO+Ccv+X+bunBf6Me9K60bVnPzRu5HbYeLVetHIpfLwGJNs8F+Qs5VuCoQTQPWv/Ni935p/9eoHyx181BXUJAGDBwEBMhB9JNcBGVdm1Q+8zd8qD1bzbpksIYowTimAdBPQQW9Is/Vzv8Suwn+G/Da3+kiTy4ERbpwo00ET/kj/Bw2/wRroK8OOIaG4DI3BMLrJVf/dRTpW0WRgzt+UEK4x7Lo/8ny0kB+p+Lv1iRe2forsf00T+g+fptHoWQaZLtOKpEDZU4Pn0bGnI6tqE8CgjCzHk8hOtY7dqrz3bLz/2jd3b2QDDXwzIKImPcVF+pSFgNckoQI1ipgObvkBmXzLlm5Gd+RMN5dIKGMoWYgn4ILvgMfxQ5FD6UbijfYdNH/tZt84/E+6MCoDIT1A7RxgeyWxUw0QtvSBWHpsPKe41WUf+R/PLk75I3Pt+CNYZ2l60RyUO6ekt2hhbufFQLo5vSLph1vuMp78t3y8QYf5G/XqLNxiQ7fFCQMWMiid/6Su3srL36jHtNLh4o1SlfFqLQE/5gp/UjPBlMsNCZ1nCNoOZ0rsWKci16kkJYRhU5f1RqSFDB71AN23yt/6D8QTfyDaVvw9v04Q96Ub/kl+wY2rWw9MJIi6LVV2UuyMJIOlBb+ueMIfcQb6GnF+JcDrsUkUDyZ/RhWoSGY+nhP/bINDV/Ulu6UrfRPtFGFbE9/FZx+73ukYMCog33y3dgXJCBMVvNaCeDIWb52X/o1rXoYchhHzgYT2Dcj2wRpQSgXnJSK0ZUQdpOnJWObeHub3srzTelYWRhISnPMQAzeKy5a8OivnWace+Rbyh9G96mD3+hXTdXAEMKd2S+qcse1l5/zj0nsmfeGceZizTHtDZkKIc0iR8lwoPc0W9Ky7H0jT+UfvPBpOmQjpi4rwQwi+D0wjbaxvuswp+XIv2fPYTHjgXpkE3uJ0crN0ZopJ+Y0t61VtgzOr+yIAWwt81kcMDX7Pt+9uyChIDJPfrsaejRaPv2S9MCqc2+X17Stvlb/0H02vQJcBIcPSfzTu0YoUpaeUlD+290TkpbmyyWzJeSlfwZ1LFREXwHvXJVjRjiki/20ee1Sl+6W6t0hvSB4TzotPU4yB98hXuMc0xqnSqOEcLqyz/v1l572l8ww0rNsJIZmLglnJ6AAH+quDwSkwSIORY3TTCkLN7zuI8GsHL0eeks4JS+/zcqGD0odHj870Aex+8TBy1sJpMdqdym93JdmAPn3iTVjTqUkkfzKHiEBsmap8gnh0d6XDWe5ZNqFhl3fQEEQ/rqa8+r99SpUuk/2U2y0j4J2fnIEXlbNwET/mSRz+VerNK1CDrx8L/t5jVioRu2/KPY7Lb8NtFjvVEnIuP9mICpBkNI7Fao4fhiWYWvyegXYwTmQMFwX2GjMAlIr4WhLCpibTuoeeXMtTcbkBgazGpY4ao+bz8CogykyD+25qnGKSqnD34ifesPenW4Qakhk0tc0Sm6sd3Q4gNAxo1tGv5sfIyZXe5ZEp1o/r6+qniwYHfUR/X6PJEQ3nYkZ/L2Cxdkwf8TnjJx5SKLofPP/5MNsLk1mYWSMpGs2w05ZKJ7SnE8DaME1EHTJRaZSw//iXaGHvT27pTOsg894/gelzbkHG6kOVZg0mCoMNjZOffU/7J6aFfXRbNz4YrrnxB8uDBiphwgsWaBEcbkmwuk5m66V3OcH9i4wDecSUhOTqNW6aNSg26VPsqJtKlh0gcG4GyehlEFluVqUKu+7E8W6L6VmHQwoszuJVmc5VuAfSOw9H72Y/9ZzOriiEY2wjCB4KKXT4S0fBKObPyRyI14zxDhQ/9xFTf8YvyxrJ22Vc3x2XXDtA6GGb4LMCW/VPdcogWr9ypQqR2JvebCPd/1sYwFLTxZtQ89wddQfIQHIMON8GMCJuS4U+jTbl0CWNM++LKMNDA+QMnOkBOCqEXv6hKnF94RUamQAlEJzd8qI1ZNujmjwo5OGr5p1P2fqGjQK36yZTCPUhAHDNM6l7OtRRoGFNtYmXO35mcfpasMpSO0ITO9Jj2WRoj0uCbqWaT0B4z5hy6QxRkWTdSFhuQ4LWE2Vlb6nNOAqfmJ8OA/4vBTl2RUMYIfY8n50CHro+HqxU2mVToCff75/6t5/2sqJ/W0SBxaiX6PQtqiMOVgBWSXkWpW6qOF2x7ulu77nqzebxqQJcE9zeB9nBvtEm6kOR5gZkFxp9DKy09pbvOMFz7batQENtU1GHXNU/FJiAhZv1T7JCz2bGWQgQHr4n3ftR5tVlZCXFbaViAq0rqRrgjIZdQCU+mEMf0Q0NIfAtAfA7DRrizMZQuJsS7z423euWOTS7sMSs3XTM818Dt+W9yId84BeShXL2kreQPzGgFTPyyetIXqPXxZ0NtiHCArj1e6qkjwLmG4WqUOTSVLOoWTMvlTvVQxf2Q7m6vWjpx/+kfevtxelo4zH+GA3CRl6JdrQjYRIoZHLxAmiRz0xFP6sOak1zypuSbblukDE+/NM8Rzk6zUta4LaQow24ggcJgC0txrM80tn/mRho7n09yS1aAazE8AE48bNbn29q/iSFYu3L9zxY0GJMYE3GKG9TmNHQ/8Bm+4wX+4kQ4Xoe59BEorqDd82avv19SHtcVFr1Jt+WpsdlE4PKaDZJ1PO7KAiEUPH1N+/JL5CTUKqhbPOznKwS/dEIx2AYDS26CD5Z5LelLuHbI5Hh9KyAdAQK96os5V0Ig8LRcDSpmRvZDGbXgr0iUzkqEpocPgsVyiXaTDdHLqkrKlNHnGQbnWI+tjm73xbi2C/sTtw0dmu02n7v8Zy2cfXd6ivcKNiOMBpuZeTK65pODcU//Tk+7djXRBwWGBaWFQeTUExr0Ltz7kIWPhjodtUd0yHv5WABEeFbS05anT+YiDFi9s3/nSVw13HBdmQ8A9pIbxdDcSFyyE1U7A2yg0+f6tlLbvi08paruUeTJXVvvyVZnozXLEQz8MT9go8MlLgzMPtQEe6kEJlT8KdL2dJ409qb4pP/VkRwhzQ9vBvv+qPjSs4RnWMwWAqdeM5dRzEiVgUhz0TFPuzNU3dwsayuc1pM9pVOPwXuaMHH5qeUfYODfaK9xIMwLMOrIl3PqDAC6gtKGGVuHnn/kHTbRfUcW0HaZGLflCmNQ8P1Fecqk9x0tnbTRw8pF/57nljIY+epl4RvNE6LAbcIoU8LOtBRkABIxr3B6nbVMAysLNixotHFKj5XHNLPd8R2vWIUG/d9uSU+OWeahUMP7bP+xJczsbxxo0f2N/GsMU5pBGSgAiE44yi1wjvMg1pRCMUozyezGn4TttePzIi1NvW3LwzUhUnnw2xXcy1NUWFSi5485tyDwZ1R3AXJRemY8qpcJJ5bb8KWbsE+0ZkeE3MPFEQCQw+VwIYYMFKS9zMVQT6M5WMGvT1+mKKj/5RmgVAaaSStnSI/kvN2hoWJBa6OSjf+a7HmOREHwFn+FG+JCbxJTLwq6RszXYNb77ajrHLmt6hrq0qJEZHoDQ09c3Q6HwHdBINIf/rUvOqSxPhcuFSkqh04onMTO721qHeWkgpq/UacVYIIEI50s0onTnrcMLfyldKT2noT60C/awa68/023KZM5HWpQvyTJRBpgw537XbuqBYTaKY9rBMRUWpSce+qNkUBxz5Kq8xMn+/7btGP4RYBI4rkKQ7huqKsiV2vG5FNQS3hPXrWxb52TWRu3EZAFmla1+NSMIQD+UuKiGvOrDDlBzMM+xRCcYrvPyPhRugopPckp8cHvchgC5JmsnhrUNXdqF9ZPnkKywA5QQRhAwZSe5vId8svwJ8hN87JVT5IiUIhuvfhFvmn9OyTAFo1zsSee421KNzmWsscNi+sgz5y00glbjtnzgL3axWpyuPP9/bBcL3eCd6jKg74ayGZrxnntU6s1cGHByeI0OhN6TeabXAI1gWj4aNkvZbfjnAqYXPRr2sKhmCGef1lbVa1o0qKTgcT/mQuAM4xwaW7r/+9764n5HdJjxhPDCH+7YcEtYHCBEMeEjCtgw6mjCqmxC2Q1hWGOlHY95VNrEa252Gs0J8gebgwmKukX+qEcAJ8LNRO/xm8nAox5AQB5+HP8AnPSeCzI3m7nxjnQsRAu/nDzzV4EbImOeVub4sXRHhcRx6eWn/s6GNdsa4r1RIHZCbKnWuSYFmBQiOZhRNhNmPPU48ci/V8+pM+ka3r0IagTT8tGyOrb9lKgHZl4NOqOIB8HWrQlTUSbWWFGff1KLHi1+vGjQxNrVynUjT0+np5AEocpaMT2vnuLe7uRjf67V3jesGqInGXoGK6QMxFnPKC4mtRvDfIr7kODThrUa0vbYLSLQRqiU7UGXKDwJUbwNP8iuiU2goieqI5Sq8pMHOaA+QufJ8QbUMvN3fEtD+/U5Y5oC1HyGXINyyKUNd7z1tGhPXu5WZIa4/sZz2kvXn5zRR+ueUfzsZCZHwKkalTrRc1pWk9YsLN4rdZ720OlI0HPWvFHmWD6CWbnBbxXk1/HAVJQJIuTcWOHWBJivbWp+ucqi5+c/dC9kYw0WPSQstekZzOQSGdURAXBPeFKmP9SdeORP3SjW67EVNvAMVkjpCzC9g6MdEPWUK7+WUYM+HG6SQ3luTFRIKfWrGEx1SL1lVGWo3MImMiue/sU8ub45jPatUkYe+AgLcob0BTX8rEBqgxXpds03JDKfhe8gm+vUhqdoGGAv/Z1u7eUnvWW8zl662hDCNY8JmC7IWQuveUinfLeZOhEWQQuyi+XvD4UuNrNT8BP+1h2SZwHmDjo9MR0VsouQBwRAAVgRrXPvkIC54p2F170aj7kaafr8+Ho/AkqP9JZaec9RwVup4LdyBdVUlK9EkbKuRNAtYXWD6J1w7gXa1DWGzCkxpN2QmsQrb/X0Q0/QpeAElgTMSF/KywGlGvhLnkjd15d0rod5U3xUKmWjqumNOtNzCoQ28dMoQs+5oItXmXO2T5AJvoO/8LfpKYZ249wVJ1VXXmBH6A01WdafZj4DmKbjsCSNuGACulZ7afrlNcGDP7AdQ7smGOIj+Ap+wx/uhQHTwmU1/oHVLQBz9ddP6i7LtyVwVTBLPVUlFZXxXYBagKkIzNkW7/+Bvzx2e+gdouGoGMJvKxAVLuEZIZQTuznJPlHHhTWncs8gFVHZSqyZC2nIDbqF32Ak0riR4Cg9udjwZoAVr15GC4Jf8gTf0RNRnt9dsN7kTkhNNnVaF67qfqGlB77v4bK1qgpOgu9CNypQswI3CveRYI0a61K2L0vvzDTH80/v/efpAvmCddc5eWpgMqdkbslQzhTMO0FZi3AQH8FWpAt/uAWY8cUQEZVEyvEeLvFOq0qgtF1lSMh3Wm7rihPNUkiSnqrVQk5BJzEk+jpsz07CyUc1t5RSnZU5wi9PzthWYJROyNAS9CqbFSgLnPMv5IsVZMDga1YyT/HxlHLyS89n0BSPdSKAJT/8BCjq6OCrD0tA7P3K6/z8Q2jukS1ryqS0LHcdqNvVCphF4eI937bZWbKukiIeRoNZyOT3ITmRpDzMNTVqcLve+Z/9bdoNUi+KdoLFmNmqKo3I7K3CSGRtgtRa87JjOP3Ef/bqPHrMUtYBLy2/kXwPMItgc0XDHy4Z6XW4FIv52rKGcBYUvrifU3oC5gj/GQghw6ADQ6zsUDLPyc7v5GP/Ue79Xtl5a65wmKi1FajpkLSUqR7bf1RAfymND2b5xX+xAn1CH5IYD6qSq8Vf/PHS85loBiyDvvMpK+NCkKgpBV9Br+W7D1d2Z0y5yZfKpkRK44d5245vxECNRs+0qCMls9o18hzcWu9MMTPeltfyk1LD+25qP5knrkt9RPt5QdgAM+iN0MkVTou1uW5OpylPfecvvGgtPXpm6yAn6LfpemAipSQpySSagdf+ncz4vZOgL46529mfaTUuYO7kL04Elaqfq9YFQyroEW71CJeIqqdcklEAh8u4N1yWBRUrqfygE/nbithP2WrIDe3knPvlv3juuym9Jaty+oGRmuChyukfMZYoGhSa4OP1T0w7KsfDGDWMbOEG0If4C/5TKcqexKTsehHtBMcohFS8EytesFLSdS0cCjv5zWSoW844BcHstuUM8QNtrp9Z/VXSP2++/aKmZjr+EsDMpQf5oGP6FoA41OJ0ckqrc+leFx/6Y68R+Gi40eOozx6+FaC68z8i2PsEQxGD3zdD6L4hLjD47Md/4zlcsk+U3aUlLqZBoZ49BeZwBGMzKl1UgEnbovSXDFnxRL6WTvgjXe2mrbe1bk1K/rNP/dDGJPz5FXiDm3F5XWsqnjGRYMiHlYLI46gcnxBFvVLJuLyG9MaVQcqoT8rlDCPydimljJIq0eXCBh3CQ7/JVi07Y+nSq2rKk7O05QzxQ3LWCJzH8kmDV57yX5zL18T3/GaeshT6cOW3jBTPUQu0B/O3f9PW7fwJwaM+e/hWgEVsR69Z3mMbkcKoKCoh6y81VJ79yX+3ftDW0VzyFC02wFktqCnsLTWMUyHO8rDN9Xke/61yKc1X35AxCUOUAOp5JcN4fqL8vqYRk1xrQyRs2iMJXk1icGbJZBlFNXGJGaI3Sr3yFUFTVrR+dh0nipRFAchcwzaGH4s6c7PI/elarQNOM0n5maFSv8YfJUc8ftRm65qOrbETZPvZNzXbqcolUWaJ1wKOHIx8iMdOdv4uzYFpR/XqM7KeOuoT/IfroRwiERBuXYG6EMJZ1W3p1jbMqM5p8syqjl7Uc7gskDpP/V7TjQqhbmCYwhzs8zzbujoaY1i0BMs6BMc1KjbG0PAeT5Qf9RwRvBJVaroESEAp4TMV6B/55I0Q3HgnTTNpKNlqGrRp/yRf+jdDXAXAY/pBUyMMw7m2/zzC3K2dIVkm9VuWiVpbv/BHWbU/bvSgHc8//b+teOcPGGg8L3go8qkrKGLwan71z5TucJ9D1SdgcnU292se9Yn2CLcAE0IReBDRVCFdvBqKdZ3xSXaKowuffemotVETLT0gNZEqNHddVhPtm2n/SIwxuIpmVbaHq9rVwFgjphaDdcvSjXSlhAxIDGlTI9Ayete8ykbP8rqtFG8/bmqq4hZa+aVPQUAQSO9mwx814elMj72iSTkMsb79V3acDOVMfVih21qes0W5HlDjifoGEMNNsenfNPKd15Ts+e7cTxn5tHOn4zFY8bcPHwb/B50kk5SKD2ZGpygB5tJ9T2hH6Ott9uJv+Qp/JAj/CDCJjIhIOM5NCto31DM9051/rjcGQKCWz7hMdZgakW6Iw03s9NBjxq1idbJDv9OC+mHGtix++GDoLbd1VXQ8e+pFnswHacy3gix9fFqATUpVw8VcU9Ic9Ndgc/2MdqSU37VldwpQWn9H9gQkKLUPZRQ9oHkmReJ9xEXZzYYH0T5+IZpKP4HSXTab2EDO36WNCIxcpNkoB/NIn5+obwESdW2epO/dtI737I//m0cart3mvFD77KGnBEFxUval09feamCeeEh3HV1/a5u9+Gs68V4i9RJhRwemBMQfr2f+Rs+0/JLUMdJn7ulxcmkhmCjQwTSkBM486fTjf2mjYI5NcGDrgh43pASMXu6n0svJmGR7RXo5DBTcuqJaXpoSSoMlMdsOUmFoBzirM6cTmrNYmWu4wpDXhgosRmJ64N4KcEKXf9y3NIUkbzSkffATPwLYmLBf0w7qgxEvfGC1j7woL/iSrLg/3n96zx9ETxl5j8g6Fa2sfZoc5PJJy91SZ3/yN25PLtb1CVB/FsoT8utfXEvoQZH8/qu/2pVi5Dv1aN5SbsoLnoKP8IdbeAp+FdEX3b+26Xq/0njHRwufVZ0bX9UZHw48jam287SMOJBeBusUbUOe+e5fCZgP7jk60Rd48BvzW66IRm957l+lJXjrBQ1HGpLyNqspjKtbEZ64dwVw01711Gn9cXrN4eZl4cMxCLYD6Rl81yZgjAWV7RDJbAKZ2SLSYeaDn9pFz4pfvxaYBi7gVBr0h1YXqUf3U+oB+4mPqllzkpq/Ubb4+0pnf/o/bE/L5brYQKTPS3k0AqSHOqV6EVIDM9nRXik9q4D5+H9KdrTwUfEV/JAv3qFbv+OPp/SYkSDckqAiHmFs9TGXSxca6Oy45nI8MBxydgBhOf8IXQQryyH0l6e/99deyfn0Iw1+AQ/XPrPTwxB+TuoregA3JA0sepRdxGsG9bUn6Vb8KSHnwjkExzxOe/ZssTGR98ExhXcAgY8KovRoPB7KFRZPFBT+ITe1cRWrAIdlFz5Fy4ubJNkS72TOmc4VuTJZzmPlrbQRXhVYXrnr6JyMcFZeecbbytgTJIGJgQxMwUnp+5KhR1UtW44sY5+pKdnp7/4X22lyxh6+Rtq9lJjyVd49r+OBaaEkCY+rELsE/BmUdFmWLg7VVmRKTYGjZUT+mkFAiEURFTnzvf9qlVFcDDCa+3C+sEqHn/M/k52hzLosNGWnXFjq+Us+tkITbwmkhKLw9x8D1RTDk3jNgaeWTnl+aU4yLSrpHg26zVBKYxznE/KrafrorkYDKhar8ig30tfyJm+E13TiHUOcc8/+o/9+J8YdaDeSwFSXwwAToxPNw9mZOvX9v7aGJc19tVBsAZELHQoPnkaA6UaEkH6uCF9FFnS4ZORv0aD3Yo658a5M9LWzEs8AHxFtl96S+RFd/5nv/ZX2WO9V+IU3aG2ZvfysFmMSNK0G2Pj5yYzZUVHUh18cX1ULa7jWfZtoCLB00l8L46jtyNZfXbl4z/IRsSjJbi2vkYjj8KjskYZtyqaIo5TvnbIX/jm1J0cubECd6xNDedajxVpC0nOLIWUfslOvOX/bg91pgMnUzKPL8Ag4wv8YmewFJhNv/df+uYy6omX1qzM+Gx9ww4O+sPxEe4V/nMv8aFILCdQLbP7Py+7wIEbH0Ykw/8Vern3Wh7LivXGdOTIjCZykM0ALcxJq7jENTA3HfOEz19/RLT74RwbmzJXp7yuWD6bkjVIbtwFHLa8m5bF4D5LXUcrf0NbkskbAFf7isQ7nJWOcIwJTl71i4H3qDzIwNfXxRz1Q2wP5V4LcZukrxC6Thz1QD1OZcF1Rrhvx3UQC5uZHbw2oZUZ7kEzGX7KBqQNYBqYmy2y1HcRo5B/nck/POtbpUl/x94O4eCHRSz2/e05VExeu/AOMGUyeWujUImdXlr71Z92senCfYdFXD4CdowFe8Bs0xvFVhx02XZ1nv/cov01zIeWweF2W2aKBaf0v585z+8VQbq8kmD9QyskplFR75tPSsmgX75RGQIZ09vc9nA/IbYj/qM+YHjMB091zRbSusC/N0mSZU5GbH7/tA11BsC+wsB1Rdl0hGyVgx6ce8zuyKtIio883kvxQHiyw2fPFSgYzPIAZD1Vg6QP9EWASoZ8dphYLp91Tnvj2f/D9m+gl+TDbOVzQDX5ruUTcOPew6cblHRcW5bdxF1IOi9llb0zodj4tIDm3NQhMCpQs3Y65cI8+Wuz4cJq0LCxqsSW18h8BV0/wHW4VNfI6AkwKjAyuYEW0rjBnRs49+XdJvcCf9ODMSH4if6lYRFQu58SnTmmfnKFcQDgMMINuzUeQ9D3kGoLWNZSvyVLdBstEFpmkNWWkd3Cum4Hpm3NRd8jK6TEBU0cZ+vLQUY7mN+lKNkF3v/A6zX7vfbmJ+fDvl6eOGyefOn7cO+d+6C19daE6m/HA5PPmI08P74lDuUyLAKZGnJNalc8JmKzSxwGT3Iep0ygwq0xtBWu/T0U++bfe+dnizzjrTp94+kKD7YjpXVbkU9oX91D+7cP1mEG35iMoMsdE4Q8wV2XutvUR59qj/NxPhj8PRRFvAWtFOX1Cl5MKmCfEz4yAaXWTCkjlXeLAjB5T4GQ6lNR/WX4ayhFd8gUsw59aABlNaOrHVOjkE1IXSY4Gpkaice1FrmjPRGHvv3uAuTdJCokCIJiGctlhUgl6TJ2UjILC7enkCvYByb6Qiw3oMR//C88xIzryU168hxtpcIMfXKxkmPey+FmV4fLmb9+wMEOMfOuRXkRrMn7nZCLKc4agE5rzcpW2RW/W2yZJ2aFXaO6heOEBUdeg3fovnPJwzg1NfZY10tBjYspYX7SrWiojdUVu+un/EEtaqBOgeM3ZEzC1mJUa0LtSFwDMqPehgUm1yISgsFw///QPEzA1ceaKmNTg/VSA9OlJDRs+XBY/bO9ZIfvEX2pr8p7cyD0YoyzSR+PwHk+pgAIwwWNeuSbBLv/876UuejVLL6U2MHNGxDvyIFfpVbG85tDXCea8+vJRadWryjpfKVvyOO4n6hpltP7jLg96/CnA8/oryAznGxp5uC4nyk/ApO1TyQKMX1K83sOvoRy138nHMzDZYv4cwPz/AAAA///YinaHAAAnUklEQVTtXYmSZEd1fb3PrhXtu5CEkITYhCRMhMNb2IRt4Ecd4QgbY8IY22AMCNAutAvt+zYz3dN7tc85N0++fFn1qqt7WpqC6Zqpyv3em/eel9vLzJ7ZwafBJzn0dj6On5mZyfEb7/2hWXnip83aH55oNj98o9k+dybKB6mcr88zs7DUzB491Ry59SvNqYe+3xy58e5mZm6umZmZnVwO84JcOxurzfbZj5u1V55olh/5l2b9rRfAegb0KEHInSrZyC0FYwQzgv/idXc2J77xt82RW+5r5k9d0cwuHWtzFvVvI1tfqZ82du8+67su2Uff+fvSazqjwuvvvdqcefK/mtWXH28233+tGax8imyhN/+6+tB2kQLlyQ7Q9dxss3Tjl5qTD8Ket97fzB6/pKGd++Sy3LU8zj+DDMlmQyZTGRNwAUZS+JWnfwZgPt5soFLby5/0AqpmzPDM/GIzs3S8OXLzvc2pB/+xOXLTPc3sIioxN99LZ0iOEphbG83O2grkebI5+8t/btbfeLbZGWwnpYUErp1dxZJGitiBZ/7KG5pjX3qoOQrFLl33xWYO4OTDIuDaMkFu6LfUz1DiHiJcz7pIH33n70uv6YwKr7/zcnP60R83q6883mx99E4zWD2LbIZklAj6BGUBzB3koQ7hzMwmYLKhQYMTwDzy+QGTAm588EZz7tn/a1YJzLdeRGv1UQbURAqanW8aPE1LaClPPfD3Aujc0ZN4wgDYBAArfJQih+IAwp3NjWb99d8LmGuvPd0M1lebne1N4Y7YCzVnHAYJgxshemePn2oWvnBTc/Tm+5rj93y7Wbz6lpCJ8u4CTMtk+R3er+v6HxS9cXKwhzn9mx825wDM7dMfNIO1c8g+HpgzBCVh2gfMY2gxF/cOTMu55xaTitr86K3m3AuP6Albf/3ZZvvMB3sDJluhuYVm8fo7m5NfZ9d5bzN/MnWdoE8eNowFHetCOTuDAR6S55uzj/xQLSdb8QG6eNIRMCtgmX4J2Jm5RQwxTjSL19zWHP/Sg83S9Xeo1ZzDsGMmtegBUJYiVX5MIYUqPhG7998s3wHRGyfB2pvPNafR07DF3F7+FHpbQ/aol2sXD0jbYhKY0XYmPUBOduWnHk5dOYHprnxEHVy/PrkyMJ2hLuCwn1wB8+N3MB55VBVh97n16Xu5pTOdsS4E3ZnBmA4AOHH/X2pMt3DZtc3sMbSa7jorApbD0ZbHYSCw2Xj3D81yHvu+2Y59cyaoOynJ9KR4xunJxwOD1pHd0MKV1zdL19yq8e/iVTc3c5d8AaA9ji5rjkQiP+mKns3X0i9YTqU31x/yr6Gn+fQX/yR7DlaXmx0MjfIn4451bIGJmiLcNiDUq8aYCZhzFwKYBOLqq0+pIqsv/a7ZAlBt8FyhMR7WlVVkt3n8y9/BmO4r6jbnTlyusUoYuyVgJbYxowGw+dHbzbkXf6tJ0Nrrz+CB+UCcRpUzzSw3W1YZAT9ozWeXjjYLl13TLN1wV0Ngzl92dRPKXgR4AeDIDNIwkMDZcsk026jz9CV0CAwlKceXcaW/fWCo8fhEXFn/9Xdfbs4+9pNm/c3nNZHc2d5qiaRiUacuMNViJj0w/TMFpiWy4A7TtcK3znyISjwnYJ577leYmb+Z01QOQqr6pcFSBUyX9Z2//Lrm6Be/ocnG0Zu+3MxfehWYpMlGYpzzFwpISXJK1bP7XkeruYrZ+crTP282P3g9sjJTXd7yWEaGs+1QAOCbXTzazKH1nD12quEYmN08Z+oz8wsCo0jgx8UskGqfBCvlC2G6vzk9e7rpETKHOpPjc/WqZyTyK1eWs0uDoS2saKy/81IMybY2mwbDovxpWcim7MDj09Kmb1Jg2p6Zfo9nqCt3vpqAQcn0AMAraJke1+x8AwBwdVWOwLTBW4LymS7deXSPSwAklxeO3/HNZuGK688LmJzwbGEitvbaM82ZR/8jlo221qHodobekYvGopxhuRaYkDTqQYXParVAS1wLGMwv4Stg4gFiPtkwGWuGbtKEnPSAKueoH7U5kdAtljNbX44YTdGtPeWNnIaP5SGdiEsZTBDuzuY6hj2n1VoKlMibP4WXcR5ZlnTJlHo9wuUizspvuz/1Lmm5yEKhfF2fzKfy9AKzytcJct1y86M3Y93w8Z9gbPdKJ10BC1NWEgmtYDsYy13aLFx9a3P0FgDznu/ELNhjuIKilJrodIDFPEU8l4io5LW3XwQw/xMAfTpagfVzhosUSBpZDpS3wehCIYlzuIojONl9QzaNMeEPOVL7oaz4KW0exROtPgfANCAF6sjHqHHFWzb2DecuY+jP1RK0IoLxAvoO9Mbuu3iAkRSfklCKItfMmYRRCepj6YZ28sOe5kAnP4n3WGeANcMtLCusvYp1Q6x/bQAIO9tslYouwBpvNSKaGRBQ/eyRE5hUXK3lohP3/wXWDu+IymA9s/y4DN1xwIwymAR9+Faz/NyvsZz1ZLMJ2bYx9KBsUmghl3VOulr9YAT1LEIGLCIYT+UHA/1KDtMq4uUlvTpuZHgEMMuCJcNU3vgd0kNBnyRKCRRWBSNTmMSMgkkvPWcr6NObRSMx6gbfpRuw/Pfw99QDfm7ANDgoVDT9Z7Bu+HRz9nf/jgXt59pBc22s0ELbQpGAPjDKPN4AHTmpCcaJr/6VuvU5tKKzWP/yI96jFxPJblYUYrbw5mL9vdeatVefbs4998tmE/5mGzNNtAizST7TFShpRkXgxwmJYFlvRnXgWdTV/IOMiWTxWo8zppiCBGJczm5bjL6Sv8oVtJKaM4kCh6IacqVkBYrCBZtO/Yp4e6kPl7Q7PcDkwjXGc2tvPtss//ZHWG54Rm8LuMhNITufMcBU14i1w8Vrbm+O3/fnWs/kOJMTDX9Gm8iprVtyHXDMtHIaY8wXm5Vn/lcTNb4EaLCuyXz8km4YK9oWA5SRjHc1RgKzZIa8/NigZUsVKfWvuLaRYNSSc5oflFYOF2Buymb5HN/KGdRMKafDQ1MoHqh1+QzolLGUxmVL13xamaPuajH5wkTLRV/RpPEz7cotSBaONcGsbQctEJcXzj76bw1bJi7M7nBh1jV2gXHApEmwnrmAV4FH7/yWlo2WsOg+f+rKoANaQ/xNt3KzoliGY03MLrl8tIr3+ZRv443f660GFai8kItG0pcy5jBjGAxXAfywlMpR5MzMqXQd2S1X5rBfORI/l3KaaXfZtzSZzjqw5WfZUQ8Cy7YlgvIOwMi4HJ88pNX55Ayd2BH6SOlkRllgR05+9gtM69vy7Dr5cYEspmoNdcD4G1j/Wn4SkwwusmMtk4uzQ1ZLGh6ik1REhc2dvFLd+dFb72uO3fkAgHoj8MqF7P5NHVme5MnqtaLBl60mVww41NB66/uv6p06hyIGIuWVbMhPN/6RaGmhAIF48IffMplRie9wPZFYfVjU+bLczlPI7yi6zM8kfSGAgIlwV4wIBf2ydICSgitNBCN9iH+XYCZieR3hcsxO/3kBU3oPyqKLSu4PmKKxo/XLc8//CsB8Qksz22c+CgOBOnjFJ3sczAlBhd0K1wuxuH4UryZPYncPF7W10aOYodeKcdiAsJsZo3JsNTlR4zrrGl4IcHPHptbr0K2zVYUEmm3DN2AvkCZvljAktuKTKZKjws7QcevSkViqgTksf6fomIDZGpjhEhAs5FQ+XAFWPmBKoR7CB7f1KyoEgZcpQcNySZ8gprKl8CqIn2CcDI2yCHOX2CXsym9DVz7hmx/zy3YjfdDaPzBReOv0+1oz5C6j1RfxBuiTt6OCkDPXJXuiRlmQCEY+dAMzeNtCQJ584LsC6NyJy7TAbQWU5eh3mAr0VyTND/EyETTLdVe+rlzHu/R1dOtbaEXZmqrlVDYAk0smLptks0NSGfiiG6Sdbj4MGxBtWvhK0oEHmbzO1hummPyornLhj4gEKQao95DAcjC/pysHCUzrQ/WiIODDWfklmJUfHbOOKSGTnPRnnWcFUS8TAJOF+ckEIqhfGnfzg9fiTctT/43tcK8WqWAgHkmlibHp0L6MUjRaTVaMryiP3f2wKrZ03e3a2MF4flzO/gGXp/CZ1T7OxANhKywIMwdMhEnZNrZybX78drOBcfEGdtPwyyWvBnR2AMpBRzESh4XxIfDDpxAD+HrZJlLAQ5URN/7E8hMSM9lEwvUwWFJ0drp0czR4UpmSRvJIJIpSZLGXOQ3MyOGWkvFRQr9B0sU6ruU0/RwulSE+LIZciOc65n6ASdrBJ+mRFBE5Rjwyjc+obHzTwtkuu8mzj/5Ixs7rmSbriqSwmDmNpBHh4BwmPWw1+e48xpo3jBxrUpYWmFzsjrcwJKcKkqeJigcrPNDbjS2scW5g/+E6VhL4ynL7LHYhobvfRrfPcfNMgYwQfRiYbrVIOn/Aj3KRLX4VHXVVFctsrT/5wig5ulvA0ZALkqT6pXoizep1NruUIcydTJ704bghni6YXNvb+XK4YmhI7QeYpkk3SSkdUoRdgenCldwK8m0Bu8N1zHjPPPKvWtekkTm2y5+kkKxBhDPNsB+yUiwoHRsn5jHWXLr5nubk1/4aIL1T409uIJbFkSuM3dLILaQZJsV14m0U7JoZ4C0Qx8Ib2Hm/ickbJ0abH7zZbOGV3GADk6LiE6SgNIgnUCQrCZiIVJCJpq+6MdgC01V0XFQgCClNgANTZyz4117zCzelpnLlA8UUdkJykyfzD6mRlDJEtvzrfE51OGdIHutXVZWC9t5idmgnnYUioFskjlXJ2GQWxXcDE4qzj/04ZufYeURw5o/JU3h+Uph06ZV5lQYfX/nhPfTitV/Edri/iH2a2OEze+R4Wy6o5LCD2U18rLgcTw8ZouXkfsNtLMJzUrQBYPKoyAZWFbQXEQ8aHzZuMtYrOhST3unKDznhMTgRxVh8oz7SF9k4rPQIB/iSHlJ87qJRhh8Dqmi4IyH95nqlelqfJTBFKrHhqgc/rR3N324inBznY6roJHt1c0X9GZeTIQ83fu+lKzcv0c6EgtOuwIxs7W+HGKJZARp4RbPzx7W2ucXZuYtYgQ7ThRAtHeakscPlEtHCpXhNiRk6N3ccvf2r2nKW7JY1UYeFFlHiT+aOQPEhX86+0WU3gy21ngN05Rx78njBBuqx+cl72gjCcy9al0VxUcMPXQwcRD6ASVZpM4fYkD5FJCzDZXQrqzK1P6Ip6mWuNp2+ZDBwzYKweplmN7fy9KbVeUU++Lf2SJkSX9OylCbhByTqGvbbKzBJa4hvYnD+wISWOtvgnv+1gJorkkHSraIEUpRUDgNbQTA+3qEvXHGdzgIduxebO669Lbbpq0sPyU3Nhkv1CQe0TK+MF8+0pUvLRAQQhiOatbNrx/hz85N3m020+tunP0w7btY0eWoG0YLOosyMaPDdO8dGkBv8BEUIJUORLv0ROwJFUVf9hjeJmWvVip2inM31csua0Kr8bZyLR2FTNY2yDHNSVknrjG0kahCftmwKq84syxxTCEyKya5769N3tZ55FtvNNt7Bpg4DIOphEyXApGq61mFe5WRFZ7CLnGubOuKAszcccxKoPFlJHOgntJkUQ7XigzjxhdLq2XooMPIwqw3MJk7rnXhdqUnQKiZCK59oxr716ftYAgNIsV9xB7P6nQ2cheFrV2yl01ITWt14rEgxjJSByTD/5ToqS4jf+Y34VAMHJnChCOsCLtkMAVPMKQNTQ9KoN4HUsoj0kDXLmzyV+CrEoqQjnqaN8EG0mLbLebeYlJRb8WlULmBzU4fena9hiz6MaEaqPGpkxaiGKpx81kDWzIw2DqtLx2nKpVsATmws5vtXvmO3xUOpDAaBDExuTeNWNZPPdCOisIsipGiCFC3oYA2rDejK2RNkYK4BmJg4NRx/YozK80SNxqHqu0WDMuiLUJLGYgZT/AYgwB0ZWhlc+ZxtpGcoF4kFQYDSqaaKMOUhIyDWdhA8Od7gCwY8WFwuG2yiPrAX9xgMttv6UAjrtStQ0COnnH5QwCQj0No3MF1RCZYqyqO8y8/wWC+2m+GIL9c5nS9XLCmyYzHq1HrNGYE/7SC/VEtIx+75M7k8Usv4rBAWLUBnMjIPK5j4lXkKFgU4UiyNSaNx+QgtIydKOgPD/Yrp6zTGx0QpNiKzYzdBy1Hyqv2GUB3fFx6iaV12CjiXXXKBHvgw88P6pdUJPmjq7fCihBPATZ6Q3IhdWBzrR/4KqIyUXjnaxsfgR9yBLLCnOh0MMCUrxpo8C4TXkzxtt/ryY2ht3rWdWIX4WJklmKhDhvHfQFLmpIBFvDs/dtcDaDXvU/c+e+ryaDWlvMq8JX2Vj/SJgenySdyOIxnZ2nAChaUyglcz+OKMjMpXMnWIVIFRWY2pKqujx4koPZblkjzRe6D71dAlls12cEx3sI5XthiucGWFx7LpH5zDuXK2pqwnG53SVqBNG3nS5zSeBNjvArvENY9UuT0Ds6wz/TY4hfXOdp65WX7yp1gnfCUBziqtS7flKRd7IwEzCcfcjJvDmZtFnlrE7pUjOIIxf/UtzQyWkLifEwVSGTzB8NecRK9ga3mLqI63zt8JW3lw1UVyHE1D03j5MwppOXECD2pQVyKVcnSoZ298sm4oO+XlGy915Zj8YRjGFyXr77yCzS6P6vVtvLJdyw2LebsC0HohFfQOofYKzHG2OFBgah8kjl1wwX35MZy5wZizexy0rF5UTMIhmimqLIHm2jMOCbNY2+QhsMWrbmqWbv+azqPPcd8m3qdrs0faiZSVX5YPK+aYccpgpg4QR4Qzoc/Is5t8ZlvL6fjd3CH6BCqGKDsYZ+oiC54yxZmpDYB0sPwxWw6RjN+gnnkXkXsBJmUYkqMSfN/ANGELqTCbfkwIONY89+wvGh690BUyGmuSMwUqK8euJeICjPhNQDI4SZ/dxizGSDytyJOVi7iIYOn2r6NbvwUbUi/VhAhUhO4sT6qowymYHcufI3ryT1q+L19N//MO99WzI0cammjvA/awcv/qyjM/17iTLSt7BduF5XJdky3p8Dtpixk2T4VJcMTnYIFJBgAaN0fwXfQqgMmLEbZwcwcQq7RQFMEW3a7CkDHayQRHgjEJy3wRwtRC572P4Y6hGwFM3C90/V3Y+HGDtszxehleVmCludoO13XvM1idvw6bTl95pveVcdlJ3T4ek9LvKz/EX60FHm2sovCV7RpuVzn7ux+r58s9HuzAzxDvpGg6S9jnENve+k9Jkgbl2k22fQOTDPgZxSDeR3+oZaNlnKLk3Tg7m1xeKSYJLKvy9hiKUXmFCEorhFClny0nxpe8GWMBN3nwAieudy7gQgIuzCsP80nZoJ3Kw6fPKHmZYD6RazjseLuj6DiupuUye3VNry43Kf2yvMvYzWnWE5lwvIwVCXbjvNGEh/liA/jZ0E+hS9mHRYrybDG1g32XbW8sU5ZT/Uwn8fhMgBnLLRuo4MvNCrbDrb32FGbo6RYxPWHxmFEWy8O1Nn+sPLqln+mqEGfjGHfOX4qbMrD4zuMYS3g7xAsTCFpPimpQ5vJmVLjm46g67Hi7tWLr8G7lTafPrenV+XajX5fvzZ8NEByYj2PNld//QtcScrbON2N1+bBWCbCY/Ew1MIk2gpOXba2/+QKAiS79xd+kLp2ViVksledNBtFdJ3D6qYGurBC7oo14DrZnFo/hWMblzeIX0LVjxr547e3w456hk5wULaAsjmbUFk3h3QyX+VXl63JVcifYR6OTKQX2QndU+d3i+ui3zUFLgXsHzr3Iu6lwMgEnYXkDnOtCOiyTTARzWMPnCczEXvLQtiBsyq1ke/CNLs6mEMtg3GJ2FtfJYHa+8vT/4Pz5C1rQ1dqfQJkYqbXsgpIpWcgR8mhjL4A3Mz8PIF6BGfst6NJv1Xt1nrScB2B5pQvHpXpTRIFSTcNJYT8E1nTiZUPUrEfXt87VPlDDKaNjJqU7uvTusX30k9Y7BDax0+rcS4/FkRnsteVJha4+Apws1NKdHJgu15Zt2WebIzGZq03ci2+ouMmRA9+gYEDNt0A8372Gpy/eCOHGWo5nDBQCs5SCTwyFqMAyUi6BkxfBovU8cSl2Il0jgB7B1TNsSdmizuJql1goNpvogsQl36oR1LsGGOY4VN8qy27lq+wHFqzlqsOWa1Q8de145uOFESu4MII3NK/jiDbXOF1edpHUNBj16CrsHZgsab6ZULL5wbeYraQZWLwJg2ub61gf40yds3TdXanJEJeMUuXsEpgVKF2BOt6VYzrfo8/hKkNdIYi9gUtYiJ/H9YZsPQlcnXNWC4oxKnlBy3qDUfAaRT9JJ8dylHGlf7fyZd6D9Ndy1WHLVcZ3Hn4ZAUrB/w0ckVl+6mfqytmQDLCJmuWZP+jEgy1gshKy25QCs6xwqXBWhJsetLUM17Ww5eRNcewetnVzbapXLkQFDAMzJ1ce85XL1k9LSkfRjZ/UpV2LOLO+gGsEedclW1OuhbIFhYbjW9GzAavooaD5DiXsMWJSfruRtTx2+/Jnfrk1aHNqryoaC66iaDMOunG2lrSfz7ELnSoCcBKRadJKcpPOylncctptpQjfgbWYQwwoKW3PH/g5GWJLyXVNXnbFE4vcNJDPCGXJJgdmybP0mxRn6Nx0zAsVuKdTY89LroyjpWhBuRlE658A88ys2oPUIphCvzuKX3/u/pQMlP4sE6VYHrt9hTK/BEznZ7x29mMGzotclx/HmztMXDlP4DKfz7G3dDGBJS4VEb3e9AIzVTZkpaFDbDoMDbB1bPPjd9WtrzyLlhPLSdvcTsY9joQwM8kNcDJUKq4M019+nM9xVDTPCrH75utMToQ43py/5Cq1nPOcIGHtcwFh3mTM1555B46JFG5Nv0g6EG8GzD6pZflKG+yJFl6MnME9mbhWh6soa1hF4ckENijczCF9JhuJl+YItG880PTtFZhZZsppuQME5zcrz4RBNPvJhB8xgLiUWEE8VXjyuNl2A5dcraDia7yAAGtm7ObdckoBKiuUdgRmzBAfUR+Oz4YmQFkOLm8J5sUKBOfc5Rh74stbg+d5hv0IwMv7L/kXNfhHCugarMW+zsQuOUnGbuS+QlnefZUu6m8D70InJoO0DyaheuMTF0Pwpmhe/bP57kvNgBukRSd0qOYCmxdkgzx5pQ5gW3wDmLjt7UIusBsgdjPiexQixbMy2CqmXUjYErcGBazgKAbv1+SfQ+E+wTBQKIKkEq4FLoZLA2bezDfKIAmULMcHRYfdCDpeWk8Q8hpE3OOoL8A5dxxfulgH5YSJ8RwOzAKkut5ahMqf8wAm5Bn1Kes3Kn1sHBsIZ7A+RvDxWJINBTc780bhTR7Iw2I6x5ebH2NyygshMLYk6PjVr0QmB3wTI7IhKA1MHkYrgRkNVGs328muxa3xs+8xpgnbrQlnhskTwIynTX/mBPsYNzDjWwYw2XJuodugMrQPUEoNZZi+DWbX9J1u1/F26/yOpwnjCMeRAB+uNOFyk4DJVhV7PnnNyRzXQvlnQTgs4GZbLk+xBZXBw2imGW6yWDcyh2RbhkYABpFVdM6dy4/ytBypX+ZoY0hTqIofJCEP95KylUwbnXm+ifdQcQYuUJ7DQTyCdkA6Ucf4ZZBx+IoFASmScGeaRV148H1cWNFeEeMK2Q62k10Uj08I7tD+u/IOYVbWJCsGjrZgUgxaTnYhPL6wgTPdqwAmL/XfxK4k7qpmq1qbJJc3wcrtyIO0cflzXoBDYCPo2G3rm1pUtJKzbFnVtWOcmlraWd7pyRYUC/uxWdaSJg2o/lkbnedVxnX2BMx4/CgwK+RE+vmpwxHb+QUdgYO//C9bJP7iARqsJx4oZojWEjvvuTMfX054uFFjgOHUYPWMNg7zJj+0WGITb+ZYnpIyLtFWasjHrMRwC0xu4sCfoIH+yHvcJ9uiynTeLabpdRikSjlNiskBeqJy6tahFK6brbzwW83UtWmALWc+T5Pyj62gW4qWSR8wO3Iye623zCcMyrdGbC0JTAJ1dp7jUIKYwGQLap6oE+uNb9QuxXcCYadcROxTKPM1vW4ux9au302Iq9gX/EUCP2zlE/3YJJx23uv8Es4woeVs2Hpy4zAbDdWAheMbZGpgKlbiGJixu+gHqSu/QMC0goYMzYQRwHT+cKlB5sOYk+/UAUTOADkj5LGMWNTF36fkGEe0pPEuiRRKy2gphGe65u2UbBgy7vm0um7BhXJsbdh9a4xKoGoyRGMH0EjNwEi+lkHFrmChPA7T7C3IU7UzFefKEckTIJQqKXH8l9sST3RZD/wLOQE+7r7nmzm6sMMMAQndtfUgBdadX3jJRGLQkz6F8vmK2MDkpVqz6ba3KOwCw25tLz9A+24xzaIm7PhdXQJIlYay8LTyUBR3tfAgG5eReOnqgIu7aVKUZ5GZcDIWZ4mhMaScJzBJO5ENfLdGyApLBrYY7Q0YMqmjw1XxlkY3MYWoBnnxm3gLBCMyD1MKnsEmUr0pJhc3TUS4Djmt8BB8zOrytGsGZRaMRJK2xS6IW1cE5qmHf6BL0S44MIu6jfX2AVjKYsuJwTbHOjwyy8tW13inEPYFcjlJt2Kom2lNUyqZsVROm9qK4nxj+bfZ5Qs6XWoyFA2k/2EQZlZrkkp1SygS2RO1sF4Gh+URJbc8JjuKEMgNRyfaSkPhMgP5iZ6JIlPhDekof0SyNZ3og2wuofwFzwBm8edUeJf+Pj/n3WJOyteGqPNbMYxnt85xp8D5Ni68witM/hHVmCli+YJ/uJQLvlB6pxzLQkGFjjIb55uEfy5EeiU10Q7qNqDptmVGcWdqGU9/CQCE8b9j6JZgx9cnv6m3vUYqlh6E9slJOdsnSRnberhmHba9gVyOZNXcYh0TJwr015Q5K+eRlz8GYPbWMCVkxbP15FIGDuDrLRHBqS82rPLCLs7auZQx4kMdDRloRL4yigrOSmZ5GzS5AigIJ7MGiGrjolymgXLOazf4dUOWQaAcneQsY11ys8idjEnG6jHwU9DJykhXSfWAPK63M+b6OSK5op8miIsE5je/q3unuPTG21Qy4apcX9B8PrcWs08QxxsQoZgw7gAnLjcw1tTiLxd+0a1z8wfXO3URAWfuMmpYlr97AWYYowWmZZBMBmblWnGlwmmcHJ+AGRK5dpAr0clAMXBSfJtzcp/q21fe9CtyHjVU0a38TqgqkOvn9OSqneXEEPsNeJLg5Df+Duf/79VLCv1ZHMmRa12VHg6az9QBU6LSuGncyStZ+KZoC4vABCZvAuZ6JzeEbGPdTQZnfhSsdDlc6yIm2S3FjFBcMrgBZVcFULgsQWU6nOXoA0w/x0K6ybzi1cPHBq4p1cAcmW+EIut8bTg92Fg6EzAf+K4upuDbs1HAbMvVknXDUw1MiqqlGRwh3ebficQlV5u8LpDXmRCcCBOcvNl4wFsx0vhzEoh2gckWjR0aGSaI2eBwR9iJOfOnUw6xyu/yOVfXYyB3Y/ce4gMzSr4+AOwGTD+A7aMWMtV1NP3Ih1/szuLk58S3/gFdOcaYJ/gn+9L2wqJaLldEjfROJzCp6mxYqITKx6xc3bdujcC7XRxu23j/dYw/X8JY9G1sBMEfgM+TI6zJ7fFjhWXAZP4JaCW9Iq2MHuc3eDL9cZn3kGa6kxapgdlXTm8ekWi9mI/DdFUXJOhZRne+dBP+ANVDP2iWcHKVJ1b15qdi4PJV9FBwSoEJOSvju12gMrRvkDcCY/zJk5geewqcAK52x/OtRqcVHap7J0JKzsq2GdosJaCU2v6MbLHakp+tb1jS8fwOGpgAULwZw18l5onVEw9+DwC9RxMfXVFeifNHD0x3Ka5XACdCet+LmfsO77TEvZXcNrepuyxx6Sp2LfHqQF66wD91rFZUs/hkwsqSJeCsNMc5TK6OU+ttoeiCXkUyUnOBMnPrd/1KHm3qZD7yNZ2hEh6SVAl+wKvooWDdYipDQZPtJddo+eUOLG4lPII/IHb8a3/TLFx7h8Ba7siq69knt/NNbYtZC26BswbdosJlC0lwcv1TV1UTmFha4t8udyvKu3n4hkmtKIDq8Sif+PpDTJFfydOGqOUaUVzkdmuZSjoln1qWvrClLul08hYgKuMnBSafNj1b1AMJDNGLeL75msfVkFzD5OUTR+96sJm/4obIX5Sp69gnt/NNDTCtvD6B6/i2QeL4kwvzAB3XP7lrhseGNRZlS5pAyokS9h1yR5MvKW3Y1RNZFboETNkiuAQos4TwGBZDRZ1pyOVGZX7qegxlnDDCEsil/AZB6R9Fq1WcUvvkaWuObKad6aVUxM9ibLmAy86O3/3tuBUFR1i4Gdvy5SJ79EwVMLOSoNzdKtbqdzinN8LqFSeWmdit6/CbWtBPtPzEeyEH62xFeW01AKrdNfFWCUiPe9Yhh14pZpfabVdKg3MtybA8sgmMqJIETvrIl+rqlsJpu7ks6/KpSSupwt/K1aE1MhqURIxO+JlNWbVdjhRSBsTy73zqT3rjzc4cunGe5z9290P6e/M848+TAtmWHeaTB6YGmK6IXBqL65jQRTysUAY9EYjaJQPboC6fEqFHFOb7d45F053pvCZR41KczuRfSuMCPseh3N20dZaz+jh4pT+lgtaUW+9mtP2O514MWhss5BHYZMHWdKPVH5nCvPiN/9nco8uMjw1aRZ4kRxEz1qvO2LKTWNK7dAe/dlXxikcm6dY3ZEILyTNU89zljyt5eDf+Iv6iHU+h8g+I6VgKN1SnT9cuNGHSQ7Kf89XuVAKTlcm7iVARViYqVGg+VWxkRZFNSi9rS4WQLrt9AJS7mdilDwMT6QQjvwmcvl2XLamRlPlK0UnZJb8hv2UPOOkXP3QjZqjA5BEmPXkJ5ZToRcta6l2TH+qdwKScnkCiBeX5KB7sWyAweXYKF5zF3/4c3rTxJwVMas0VsvLsSqMEmDz9PwIz6dRZCOj0VonKbidE6M7ZKsgKkSdajtinKH9OI9EhyiNiauZVOJEYplTl2y24X2BWdDtyMAC6egDhV0PB/AIrNklz0zQW0Nlt6wyVD+5VNB1s7RnCOux0P+g5jAwdeZzwebsWw6751wI7vs7neLt95brxbJld/VBYN93UWlf5VSaVy+XbPH/UvmgBhqvgeipdiFWe3fRlQtaz8zvsdMfnMDLYMo77XN2DZt9HzxW321bS1Q9gtvFjfBdWZWME+xyT+gB8QCJc8DFmH5DOp341zRKMpf98eByW/Ww1cMGB6eqNA5PzTOoeJK1JeR7mO1gN/EkC82BVdEjtQmhgaoB5ISp/yHN6NXAIzOm1zUUt2SEwL2rzT2/lD4E5vba5qCU7BOZFbf7prfwhMKfXNhe1ZIfAvKjNP72VPwTm9NrmopbsEJgXtfmnt/KHwJxe21zUkh0C86I2//RW/hCY02ubi1qyQ2Be1Oaf3sofAnN6bXNRS3YIzIva/NNb+UNgTq9tLmrJ/h/8ZewinDm/9QAAAABJRU5ErkJggg==;" parent="1" vertex="1">
          <mxGeometry x="240" y="1277.61" width="35.43" height="35" as="geometry" />
        </mxCell>
        <mxCell id="DjmhpiTltckPPBlG-SaG-138" value="" style="shape=image;verticalLabelPosition=bottom;labelBackgroundColor=default;verticalAlign=top;aspect=fixed;imageAspect=0;image=data:image/png,iVBORw0KGgoAAAANSUhEUgAAAKYAAACkCAYAAAAdQFV8AAAMP2lDQ1BJQ0MgUHJvZmlsZQAASImVVwdYU8kWnluSkEBoAQSkhN4EkRpASggt9N5EJSQBQokxEFTs6KKCaxcL2NBVEQUrzYIidhbF3hcLKsq6WLArb1JA133le/N9c+e//5z5z5lz5965A4DacY5IlIeqA5AvLBTHBvvTk1NS6aSngAwMYTUC7hxugYgZHR0OYBlq/17eXQeItL1iL9X6Z/9/LRo8fgEXACQa4gxeATcf4oMA4FVckbgQAKKUN5tSKJJiWIGWGAYI8UIpzpLjKinOkOO9Mpv4WBbE7QAoqXA44iwAVC9Bnl7EzYIaqv0QOwp5AiEAanSIffLzJ/EgTofYGtqIIJbqMzJ+0Mn6m2bGsCaHkzWM5XORFaUAQYEojzPt/0zH/y75eZIhH5awqmSLQ2Klc4Z5u5k7KUyKVSDuE2ZERkGsCfEHAU9mDzFKyZaEJMjtUQNuAQvmDOhA7MjjBIRBbABxkDAvMlzBZ2QKgtgQwxWCThUUsuMh1oV4Ib8gME5hs1k8KVbhC23IFLOYCv4sRyzzK/V1X5KbwFTov87msxX6mGpxdnwSxBSIzYsEiZEQq0LsUJAbF6awGVuczYocshFLYqXxm0McyxcG+8v1saJMcVCswr4sv2BovtjmbAE7UoH3F2bHh8jzg7VzObL44VywS3whM2FIh1+QHD40Fx4/IFA+d+wZX5gQp9D5ICr0j5WPxSmivGiFPW7KzwuW8qYQuxQUxSnG4omFcEHK9fFMUWF0vDxOvDiHExotjwdfBsIBCwQAOpDAmgEmgRwg6Oxr7IN38p4gwAFikAX4wF7BDI1IkvUI4TUOFIM/IeKDguFx/rJePiiC/NdhVn61B5my3iLZiFzwBOJ8EAby4L1ENko47C0RPIaM4B/eObByYbx5sEr7/z0/xH5nmJAJVzCSIY90tSFLYiAxgBhCDCLa4Pq4D+6Fh8OrH6xOOAP3GJrHd3vCE0IX4SHhGqGbcGuioET8U5QRoBvqBylykfFjLnBLqOmK++PeUB0q4zq4PrDHXaAfJu4LPbtClqWIW5oV+k/af5vBD09DYUd2JKPkEWQ/svXPI1VtVV2HVaS5/jE/8lgzhvPNGu752T/rh+zzYBv2syW2EDuAncFOYOewI1gjoGOtWBPWgR2V4uHV9Vi2uoa8xcriyYU6gn/4G3qy0kwWONY69jp+kfcV8qdKv9GANUk0TSzIyi6kM+GOwKezhVyHUXQnRydnAKT7i/zz9SZGtm8gOh3fuXl/AODdOjg4ePg7F9oKwD53+Po3f+esGXDrUAbgbDNXIi6Sc7j0QoBfCTX4punBvcsMWMP5OAE34AX8QCAIBVEgHqSACTD6bLjOxWAKmAHmglJQDpaB1WA92AS2gp1gD9gPGsERcAKcBhfAJXAN3IGrpwe8AP3gHfiMIAgJoSI0RA8xRiwQO8QJYSA+SCASjsQiKUg6koUIEQkyA5mHlCMrkPXIFqQG2Yc0IyeQc0gXcgt5gPQir5FPKIaqoFqoIWqJjkYZKBMNQ+PR8WgWOhktRuejS9C1aDW6G21AT6AX0GtoN/oCHcAApozpYCaYPcbAWFgUloplYmJsFlaGVWDVWB3WAp/zFawb68M+4kSchtNxe7iCQ/AEnItPxmfhi/H1+E68AW/Hr+AP8H78G4FKMCDYETwJbEIyIYswhVBKqCBsJxwinILvUg/hHZFI1CFaEd3hu5hCzCFOJy4mbiDWE48Tu4iPiAMkEkmPZEfyJkWROKRCUilpHWk3qZV0mdRD+qCkrGSs5KQUpJSqJFQqUapQ2qV0TOmy0lOlz2R1sgXZkxxF5pGnkZeSt5FbyBfJPeTPFA2KFcWbEk/JocylrKXUUU5R7lLeKCsrmyp7KMcoC5TnKK9V3qt8VvmB8kcVTRVbFZZKmopEZYnKDpXjKrdU3lCpVEuqHzWVWkhdQq2hnqTep35Qpak6qLJVeaqzVStVG1Qvq75UI6tZqDHVJqgVq1WoHVC7qNanTla3VGepc9RnqVeqN6vfUB/QoGmM0YjSyNdYrLFL45zGM02SpqVmoCZPc77mVs2Tmo9oGM2MxqJxafNo22inaD1aRC0rLbZWjla51h6tTq1+bU1tF+1E7analdpHtbt1MB1LHbZOns5Snf0613U+jTAcwRzBH7FoRN2IyyPe647U9dPl65bp1ute0/2kR9cL1MvVW67XqHdPH9e31Y/Rn6K/Uf+Uft9IrZFeI7kjy0buH3nbADWwNYg1mG6w1aDDYMDQyDDYUGS4zvCkYZ+RjpGfUY7RKqNjRr3GNGMfY4HxKuNW4+d0bTqTnkdfS2+n95sYmISYSEy2mHSafDa1Mk0wLTGtN71nRjFjmGWarTJrM+s3NzaPMJ9hXmt+24JswbDItlhjccbivaWVZZLlAstGy2dWulZsq2KrWqu71lRrX+vJ1tXWV22INgybXJsNNpdsUVtX22zbStuLdqidm53AboNd1yjCKI9RwlHVo27Yq9gz7Yvsa+0fOOg4hDuUODQ6vBxtPjp19PLRZ0Z/c3R1zHPc5nhnjOaY0DElY1rGvHaydeI6VTpddaY6BznPdm5yfuVi58J32ehy05XmGuG6wLXN9aubu5vYrc6t193cPd29yv0GQ4sRzVjMOOtB8PD3mO1xxOOjp5tnoed+z7+87L1yvXZ5PRtrNZY/dtvYR96m3hzvLd7dPnSfdJ/NPt2+Jr4c32rfh35mfjy/7X5PmTbMHOZu5kt/R3+x/yH/9yxP1kzW8QAsIDigLKAzUDMwIXB94P0g06CsoNqg/mDX4OnBx0MIIWEhy0NusA3ZXHYNuz/UPXRmaHuYSlhc2Pqwh+G24eLwlgg0IjRiZcTdSItIYWRjFIhiR62MuhdtFT05+nAMMSY6pjLmSeyY2BmxZ+JocRPjdsW9i/ePXxp/J8E6QZLQlqiWmJZYk/g+KSBpRVJ38ujkmckXUvRTBClNqaTUxNTtqQPjAsetHteT5ppWmnZ9vNX4qePPTdCfkDfh6ES1iZyJB9IJ6Unpu9K/cKI41ZyBDHZGVUY/l8Vdw33B8+Ot4vXyvfkr+E8zvTNXZD7L8s5amdWb7Ztdkd0nYAnWC17lhORsynmfG5W7I3cwLymvPl8pPz2/WagpzBW2TzKaNHVSl8hOVCrqnuw5efXkfnGYeHsBUjC+oKlQC/7Id0isJb9IHhT5FFUWfZiSOOXAVI2pwqkd02ynLZr2tDio+Lfp+HTu9LYZJjPmzngwkzlzyyxkVsasttlms+fP7pkTPGfnXMrc3Lm/lziWrCh5Oy9pXst8w/lz5j/6JfiX2lLVUnHpjQVeCzYtxBcKFnYucl60btG3Ml7Z+XLH8oryL4u5i8//OubXtb8OLslc0rnUbenGZcRlwmXXl/su37lCY0XxikcrI1Y2rKKvKlv1dvXE1ecqXCo2raGskazpXhu+tmmd+bpl676sz15/rdK/sr7KoGpR1fsNvA2XN/ptrNtkuKl806fNgs03twRvaai2rK7YStxatPXJtsRtZ35j/FazXX97+favO4Q7unfG7myvca+p2WWwa2ktWiup7d2dtvvSnoA9TXX2dVvqderL94K9kr3P96Xvu74/bH/bAcaBuoMWB6sO0Q6VNSAN0xr6G7Mbu5tSmrqaQ5vbWrxaDh12OLzjiMmRyqPaR5ceoxybf2ywtbh14LjoeN+JrBOP2ia23TmZfPJqe0x756mwU2dPB50+eYZ5pvWs99kj5zzPNZ9nnG+84HahocO149Dvrr8f6nTrbLjofrHpksellq6xXccu+14+cSXgyumr7KsXrkVe67qecP3mjbQb3Td5N5/dyrv16nbR7c935twl3C27p36v4r7B/eo/bP6o73brPvog4EHHw7iHdx5xH714XPD4S8/8J9QnFU+Nn9Y8c3p2pDeo99Lzcc97XohefO4r/VPjz6qX1i8P/uX3V0d/cn/PK/GrwdeL3+i92fHW5W3bQPTA/Xf57z6/L/ug92HnR8bHM5+SPj39POUL6cvarzZfW76Ffbs7mD84KOKIObJfAQxWNDMTgNc7AKCmAECD5zPKOPn5T1YQ+ZlVhsB/wvIzoqy4AVAH/99j+uDfzQ0A9m6Dxy+or5YGQDQVgHgPgDo7D9ehs5rsXCktRHgO2Bz9NSM/A/ybIj9z/hD3zy2QqrqAn9t/AYJwfI45sgNsAAAAimVYSWZNTQAqAAAACAAEARoABQAAAAEAAAA+ARsABQAAAAEAAABGASgAAwAAAAEAAgAAh2kABAAAAAEAAABOAAAAAAAAAJAAAAABAAAAkAAAAAEAA5KGAAcAAAASAAAAeKACAAQAAAABAAAApqADAAQAAAABAAAApAAAAABBU0NJSQAAAFNjcmVlbnNob3SVIZ2nAAAACXBIWXMAABYlAAAWJQFJUiTwAAAB1mlUWHRYTUw6Y29tLmFkb2JlLnhtcAAAAAAAPHg6eG1wbWV0YSB4bWxuczp4PSJhZG9iZTpuczptZXRhLyIgeDp4bXB0az0iWE1QIENvcmUgNi4wLjAiPgogICA8cmRmOlJERiB4bWxuczpyZGY9Imh0dHA6Ly93d3cudzMub3JnLzE5OTkvMDIvMjItcmRmLXN5bnRheC1ucyMiPgogICAgICA8cmRmOkRlc2NyaXB0aW9uIHJkZjphYm91dD0iIgogICAgICAgICAgICB4bWxuczpleGlmPSJodHRwOi8vbnMuYWRvYmUuY29tL2V4aWYvMS4wLyI+CiAgICAgICAgIDxleGlmOlBpeGVsWURpbWVuc2lvbj4xNjQ8L2V4aWY6UGl4ZWxZRGltZW5zaW9uPgogICAgICAgICA8ZXhpZjpQaXhlbFhEaW1lbnNpb24+MTY2PC9leGlmOlBpeGVsWERpbWVuc2lvbj4KICAgICAgICAgPGV4aWY6VXNlckNvbW1lbnQ+U2NyZWVuc2hvdDwvZXhpZjpVc2VyQ29tbWVudD4KICAgICAgPC9yZGY6RGVzY3JpcHRpb24+CiAgIDwvcmRmOlJERj4KPC94OnhtcG1ldGE+CkKZqcgAAAAcaURPVAAAAAIAAAAAAAAAUgAAACgAAABSAAAAUgAAMRhuYLHkAAAw5ElEQVR4Aeydh7dlt3Xez+ttGnuR2DspkqJIiZRkK7aT2MtJ7MTxX5rlrNiJYtlZsWOrkGKVSImdYhXrzLze8v0+YOPg4t3zyvCJQ47mkHdw0DY2Nr6DsrGBN7Grp/sKP0dlf2Ji4lC1renW74fK3CTar8z94hoyv1feCQn9MjDHNHmIJdwui+mowgrghdsWNRTepvt983/lgRkNVgAUAQe4BwEi6IUbwCxkD9nzRvqDyot04R41feS7VNzLwBxoyQBkuE4Wg8sAKGswjeRT5jpuoMiR4KOmH8l8CXguGWBGWwQgwo3woYZuw9t8kd/uAcAcSTvg2Ze+8gQ/4Q6QueSDLwOz6f0OAs4QIgJIB+U/KD7ohDtU3qUefskAs23w1t82dOuPhm7ztf42X+s/LJ1I17otvdbfpr9U/ZeB2bRsC8TW3wKl9Qe5Nl/rj3St29Jr/W36S9X/lQfmUINH+Je1YYO/FlhD/A6Ft/kvFf9lYF6klrwMzP0Ff8kCs6122+MMAaPNN+Rv6UW6Qbqxoo+EsegaCo90jTtUbpPsK++9DMwDm1B7PWW7h/fiUc76HUL1dqfeA3xtGXX4CD1I1DTajL06aW/MpRXylQXmYM/UtM9QD1Pyt8Bo8ht8pAGDuzv6f9su74CU/3gmACWgmpjsf5OTSS9psKV4wy7A5/zO3v8zxE/kySmH6tUT+mq//X4CE0AYAAlwu9ub3c7Gare7tdl1Oxl8AuDu9lbX6WfXfoXtyF/AabQGVBIgDUaBc3JKGOWX36emu4mpmW5iGne66/ArXh69Kx1x9hu6e1F1GZh7ZfK7DImeK3qA1t+WHfFteOsPem248wPK6PHkbq+c67Y+fqfbPv+ZwLkukK51u2sr3c76crcjd3ddoCVsa0O4FTB31WvyuLPkn9QbRo85Qa8JQAW0SQA4PddNzi10k/OL+p3oJhfSb2JO/tn5FLZ42mkMTsDc9pwNMF0+JQ+ER/xX1b3oPWYALQTc+mvBRlwdNvSe6OWekV5QveLupoAFwOgdBbYdAY3eb3v5s27zw7cFzE8MPuITIAVOAEr6jXXRID3ANCKrogEm3gRQA1OAobecmJzuJgXMiTkBcG5JoFzqJgKcBuZCN7V4sps8eWU3tXBK6QTgWaUnz8ys8s5Wvavot2VTziUIzosGzGjcVqgRXrX6yGvEl3xjGsoQUWPt5jkhvd2OesXtcx93m5+83219+n63/ckH6ik/EzjVQ66vuNfc3RT4BOKOoRoAbuMyfGc397I1Q3shWoMUqALOyW7XwzrDNkN4HsrzcD4JaBdPdVNLV3RTAuj0qau7qdNX250+eUXqYWfmPD3wVIOu2h11BuUhwBlyq3kf917kOi7yCwy7tIApkBpE7h0ZklPPBwAB5fZnv03AFDi3P/2twHg2AVM9YbeV545HFP5eYCYCEe6OVEHh719SOoDAnJOecgpwnlDPeeoq/QTM09d0MwLo1AkBVnGT8+ptBVB60pE56WVgHrHVjpB86Ium4SIONxq6Je10LGLo/TQ0b3/6gXvGrY/f67Y+U+949qMExJgvqnfcAcAM8+4J0yq7pTvkLzwNJcjhwW8BZhNur+akEyyAplkcaegGfMxLZxcNyOmTV3XTV17XzVx5Yzdz9dcEWIF1SXNSelEeyeigp/CbR5joGSM8/EGn9Uf4F+VetB6zrmAIpw6Ld0TuRqU31HtqAr3hiaGauSJzxlUtYs7nnhFAfvKehmwN3ec+6nYE1t1NzS9pmNw4lGEyvPBU4Slg+N/gmfxDTw2XNl0dR/4Awq4j+BgVpiF/YmZeIDyVes8rbxAwvy6A3tBNn7lG4WfSokoLKPek6nmHnsJvrmMpr/FH/ogP/xftXnRgtgILAYwIJgATLnDSuxc0AuSWesPN377pBczWx+/Kr2F6+VMBdTmBUYse0gLkGhCAZQQw0AwGSlkpIPg8TO8UJOzWNKuImo8qOH95AiaBDNGAk6FevSMr+An1otOah85c9bUE0msA6vUG7qQWUyNyE4nCdy6k9efgkq/NH/FftPulBOaIcGqA5HerdFbPuxfcVm+4+dE73cZ7r8t9Ow3b9I6svgFjfgrNZtgrQMzpxjbcALiC9n7uWHrKMAjM4CP3nMFuEYMYRuU0feZa95zuQa+5qZtVTzp9RkO8VvYGsKYGQvVlYO7XOPvFRcOFWwBEptIaNYVdLWQ+6Tbfe0VgfK3bfP916SA1bLO4EVg9XKMYR9cIoDIN082tbDDm8BaYUVLCRYYPdCLiADfKOyDZBUfDh3tRqZQmZxa0aFIPqsXSzDU3d3M33N7Nf/1uA9a9p+ashZ9cX/f4UR/CskxC7uFeMIPHlPFL1WOGUICDgRDCZC6pXRkWNjtaYW+ph1x/+1cC56sawt9KK273kAJkfoIWDcM7P2iaLm7QjgyNG/mb4APzHUS3pXdUf/Bf8ikAhf30Fdd3s9fdImDe081ec4vnoNMnzgi4WskLoGI8ZQGIerePsMvALKLc87JfYwJSlOIovwHh+lu/VC/5WlrYKMyK8KwoL8LfUwLyz8CMRmnT1A1XxbUAbXlt/VVWv7b5I34o36HTZ4AZYQIeivvJhZMayk+qx7yxmxNA5264o5u7/lYvkjIse4AGI7gZnOk1jxJ1/EV4v+g9ZtS5NFQFEPeSa+et6tn88DfdxruvdOtv/qLb0vuOwq0Qj/RBaJwrWavPTD3mOGDWNKpGglQNlNLL5DIKz+PKzGF1/jrZUN7Dpo90pgPPrMhRO+k/lPQG5dfuUg96r1VMKPAnWDy5fhX49qlvze8X/X7RgTnYQJLElnrEdYFx4+2X9dPQrcXNjuaSO2vLaWeGHZnmiQZrgjurYYQsyqsBVr8fpucYSa9C7G8Lkz+aPto9+Orrm1L0/lEikX40dK+v5Gd/3iQFTelC6TmnT1/bzV57SzcHQG/9hnSh1ye1EsYi8TEGg5n0Ycvdy8nxhny5gImw9NuRvpEtxM0P3+pWX38hgVKLHHZvsPZB7eMnWr+SyZBgAWYin6GUG6Y0bNDIDVXTifcEShL2i6p9gakyg8VCI5cbMXvKz3xE+mBryE08tVxQqjZDZTQyfeqabvb627r52x/SsH67V/PuPVFBjbFmOmy5Q/wcV/jvDJitwPetsBrLomVfWvvT7GWvachef+slLXJ+7fnkrnpJrHvSl54bIlo9S4Myhsohh38FGAT0AKt7S8gFnULTgNV0wEWTL+0Y8Y1kbshWyDifAwKCji7/BBshp6BROrAIyDlKuP3Uk3L5ZzRh0CNZUtDPeZdo6sx1Gt7v7Bbu/KaAqnkn1kwe2ulpG0HmMi+m86UAprcF1RMyRNMrbmi1vfrK0936Oy9rBf6ud3T2CClkKbe8ZgEHqCIPTRfNVzfcQcBM1kHZrjLrBSkNQPApJVelB3FehFSnMGBAbf/b3SE+5XRSGLQ/OE1u1KcOHcVO/QHykfQpS/1yoGWBkn52wQr5hTsf6eZvukfvN1nNNKlw24eOFtATvEhvxw7MIpiBCrWgIVla5Cx7Drn++vPd+m9e6jbQT372oVREMjnDWHeikn5NWwKlIUsPleNKOYon5whfAQbculXJC734abhjPzoZTshlgaHhD0sh2aOlX150GB3MeVHq85N1kl2puWwup95+B0MR6sL+vLkyLuEugStXsQBTL37v/zFvic2SCm+pR6lPXS8WReLZaiUp5me1Wl+4/WEvkFDUo7C3vFTvwz5RTpHzYTMOpAt6EX2swGyJRyG1W1ckmZht2ehiS/aQ6+/8ult/7dkEShY5gDILOBqypuV3QKQXg6mKHClH4QXWgJF00KUh1GDJsjwZUNhyR2Ccii3AbMwLOL3yJb2BKd0goCzAFE0DU9ONACagRJWFwQjzZqyd1nH1Y5sUsCqtP0z85IctkQqMlHrkehJh+BSXuvB/AnepWw1MJeGBb+oxrb32+ZvvyyqlO7uZK64zaG1AkpIe+G+0S+HvwBz7Jwh6kerYgBmEwy0FhIQjoHKT0lw9pXrH1Zd+0m2op9z89D1tNZ51Y7l38Vwug6jOG4LPDRTApHy/53KjoXDrd4CJ4nlyNuv/MC2T7ePUKdlD4mK4q3nYFPvPBmXa4jMwTDvPzbwaNlRUgEqohu44pmFgAkobmXzq6crW2Y+ldWA//2y3pS1UvysNTwJm6rnNZ65L1CuAafRmOdT1I0/bDokwNNV7avhmAYRCfvGOR7o5De0o5SdlsRRAG5sf3jIvpncM/wyWowi31+ctI8iEC73BSlhwO97rRj+J0nz1xX81QG0tzsqb5snpTLMRSApzKSonN6a81CYldfOSwI/VRfR0nK0R0NjKQ6ViW0dsIA1MjHQTKKcVNrmoIxCy7qFHTYUYEkFyxI261vU3M9SBXlG95jY6WUzyzn1qwxMMTbAJ9eaBbEWJY3eLff5OBsw+b6ReVL2HZRll2FUlqSf15YlGdPmUGREpeu+/yoy9Jz3n/C0P6Cd1kgxD0j676htPEmb4zEfxHMPLEJ/H3mMexCtCpSdkKNv84I1u5aUfS2n+gt7f7Hakt6THgdki4EwwKhCNEw0xobnnKATJEADKMQhXPx9bEOCmtULF+GH6Ktk3aisP8zGUz2k+KSNc6QEnszGuz+6ol4nyDqrfnngAQp2YV2IV7+E9AdUbBBrOt2UFtb2snS2Z6G1IDpw/2hJQ2X4lTSdNBfWOursurmLU8/DAHKGBSR09p9RJC3c/Jn3nPd7a5KiHxn3/nB75NU+h04Qf1Rvt2ub7nQEzGN9TsBqKXRtsJdfeerFb+eX/847OjnoO5lwln1awNRjivWkPpU8xe9dGSqmeDmOGdNbmROoVNdlnjmVgXiG7Rhnd2jKcA2A0Rn6Cj/DvqUdEHORGzzXSuIBVGeMj1EeKRgJzvQ1tu3L+aOsTme9p8ZfM97TLpZ60k3yYHjizgUrhCTSWQnzQpIhySVI9qV7KU/EzJZmggJ+/+X7NO7VThCLeq3WNLqRzWjqLRMgluvxUdkX+yK+DfCoiF3dkms5wpOw0hL5+hu/VX/+sW3vjeYHyZW05fuhe1ELPAkuCbniykEaaQs2ilG0NnE4KZpmATQt8WN6wEmUPmXnkJIe/ZNcYvaSPz9LAuey61CPVTxnb9Ps3XeLdFvQasnfUO9rgmQ+Xeaes8LEPYDTZ+OB1b81al8vwzodURgY4TkJoyyeGJ8LjgysiU/N7WsM25tfu7pbufULgvFtTGn2w+qh7UMYoJmKq1KR71KoXdylH/yf4anN+7h5ziHBbEIJjRYrJ2vrbL3Urv/gnL3a2ZXHO6rsHBSJLKp5RGgCnT1ZS8F1lKXu1HL2kJvKoQqYB5bW3CZi3p9Un52Y4vnDI5/D1SwTb9PsDs2IifxQAJ011NCfFcEW9J1MetmaxO0XPyyLK81BUUs3Tlh/REV6AmfsjO5MCmOTGKLJ016PuPQEp547iA0gbCgFnpecEqHgNelHOUd3gq833uYHZEmwLMuOqPRXb0gGwtTde6NbQVb7+rIardzx8j/aUCWi9CFSCWzcBExTWjU15ya8eUnMmVpvTV31dK837uhntcMyox2SF7fPcsmG0/nFMz9jW47D+tr6Rr22wwXR9hniTq9ozJ8XUj9W8pjlbGlUY5pO5XzKKBqDxRHlRTrhD8VmoLivJWsYfkt3M1Td2C1oMLT3wh5p73q5RRQtFLRpNzyimHTIgKzlG+VHeYd2Wz8j3hQCT4QcjXgx7V15ksfML74PvrH6WMQe0UoUTo3l+Ceii8tlNIAz2aUKl0cEtGy2g4jmjofu6W7s5zZdmtbsxJZtELhuIZ0gQEX9Ud4he4TsTHEwXBUY9s7/Oz6oe3SdbtesyaGFHDEsr5umAlikA81Whx7n9r95xQ15Br+cjYug0MjQZbbS/PnfjnQLmH3i1zuIQxXykiXYKej37QS9CDuf2dEfTHxswo4BgOPwU5wsFNBzRW6Kv3NR8aWdDk3kU0dVj8eQGivwj1VWc/VUjkmdKpwjnbrjL80i+8mnmkqh/YthmO7F5Cv2KVp1kXD3q+Mhfh/Ee+drw1h/5D5Ue4Mgi34p5AXFTZ+I3JM8NbUisvfnLBFAWRlaztSUN+Kk3ZP2PJS/mJ31zCAtCWyTd9lC3eM93fL6op5JbpJHboerREylvrRyKXy+Zq5L2gl6CjBnMX6svC5CwMFdbfeXn2tV5zjpLFjvxKSf58NXmYhPyyheaxZAi5TE0ycQuBioeKcFndOZl/uZvGJy800syZKf5UdAdodTTbwRcV566RL3qcN6Hwg/bQJH/sOmLXDXEo9WwakkG015AcsSEs/ICbdp1YuV+0JPkkfhIwncIopXVO+Ccv+X+bunBf6Me9K60bVnPzRu5HbYeLVetHIpfLwGJNs8F+Qs5VuCoQTQPWv/Ni935p/9eoHyx181BXUJAGDBwEBMhB9JNcBGVdm1Q+8zd8qD1bzbpksIYowTimAdBPQQW9Is/Vzv8Suwn+G/Da3+kiTy4ERbpwo00ET/kj/Bw2/wRroK8OOIaG4DI3BMLrJVf/dRTpW0WRgzt+UEK4x7Lo/8ny0kB+p+Lv1iRe2forsf00T+g+fptHoWQaZLtOKpEDZU4Pn0bGnI6tqE8CgjCzHk8hOtY7dqrz3bLz/2jd3b2QDDXwzIKImPcVF+pSFgNckoQI1ipgObvkBmXzLlm5Gd+RMN5dIKGMoWYgn4ILvgMfxQ5FD6UbijfYdNH/tZt84/E+6MCoDIT1A7RxgeyWxUw0QtvSBWHpsPKe41WUf+R/PLk75I3Pt+CNYZ2l60RyUO6ekt2hhbufFQLo5vSLph1vuMp78t3y8QYf5G/XqLNxiQ7fFCQMWMiid/6Su3srL36jHtNLh4o1SlfFqLQE/5gp/UjPBlMsNCZ1nCNoOZ0rsWKci16kkJYRhU5f1RqSFDB71AN23yt/6D8QTfyDaVvw9v04Q96Ub/kl+wY2rWw9MJIi6LVV2UuyMJIOlBb+ueMIfcQb6GnF+JcDrsUkUDyZ/RhWoSGY+nhP/bINDV/Ulu6UrfRPtFGFbE9/FZx+73ukYMCog33y3dgXJCBMVvNaCeDIWb52X/o1rXoYchhHzgYT2Dcj2wRpQSgXnJSK0ZUQdpOnJWObeHub3srzTelYWRhISnPMQAzeKy5a8OivnWace+Rbyh9G96mD3+hXTdXAEMKd2S+qcse1l5/zj0nsmfeGceZizTHtDZkKIc0iR8lwoPc0W9Ky7H0jT+UfvPBpOmQjpi4rwQwi+D0wjbaxvuswp+XIv2fPYTHjgXpkE3uJ0crN0ZopJ+Y0t61VtgzOr+yIAWwt81kcMDX7Pt+9uyChIDJPfrsaejRaPv2S9MCqc2+X17Stvlb/0H02vQJcBIcPSfzTu0YoUpaeUlD+290TkpbmyyWzJeSlfwZ1LFREXwHvXJVjRjiki/20ee1Sl+6W6t0hvSB4TzotPU4yB98hXuMc0xqnSqOEcLqyz/v1l572l8ww0rNsJIZmLglnJ6AAH+quDwSkwSIORY3TTCkLN7zuI8GsHL0eeks4JS+/zcqGD0odHj870Aex+8TBy1sJpMdqdym93JdmAPn3iTVjTqUkkfzKHiEBsmap8gnh0d6XDWe5ZNqFhl3fQEEQ/rqa8+r99SpUuk/2U2y0j4J2fnIEXlbNwET/mSRz+VerNK1CDrx8L/t5jVioRu2/KPY7Lb8NtFjvVEnIuP9mICpBkNI7Fao4fhiWYWvyegXYwTmQMFwX2GjMAlIr4WhLCpibTuoeeXMtTcbkBgazGpY4ao+bz8CogykyD+25qnGKSqnD34ifesPenW4Qakhk0tc0Sm6sd3Q4gNAxo1tGv5sfIyZXe5ZEp1o/r6+qniwYHfUR/X6PJEQ3nYkZ/L2Cxdkwf8TnjJx5SKLofPP/5MNsLk1mYWSMpGs2w05ZKJ7SnE8DaME1EHTJRaZSw//iXaGHvT27pTOsg894/gelzbkHG6kOVZg0mCoMNjZOffU/7J6aFfXRbNz4YrrnxB8uDBiphwgsWaBEcbkmwuk5m66V3OcH9i4wDecSUhOTqNW6aNSg26VPsqJtKlh0gcG4GyehlEFluVqUKu+7E8W6L6VmHQwoszuJVmc5VuAfSOw9H72Y/9ZzOriiEY2wjCB4KKXT4S0fBKObPyRyI14zxDhQ/9xFTf8YvyxrJ22Vc3x2XXDtA6GGb4LMCW/VPdcogWr9ypQqR2JvebCPd/1sYwFLTxZtQ89wddQfIQHIMON8GMCJuS4U+jTbl0CWNM++LKMNDA+QMnOkBOCqEXv6hKnF94RUamQAlEJzd8qI1ZNujmjwo5OGr5p1P2fqGjQK36yZTCPUhAHDNM6l7OtRRoGFNtYmXO35mcfpasMpSO0ITO9Jj2WRoj0uCbqWaT0B4z5hy6QxRkWTdSFhuQ4LWE2Vlb6nNOAqfmJ8OA/4vBTl2RUMYIfY8n50CHro+HqxU2mVToCff75/6t5/2sqJ/W0SBxaiX6PQtqiMOVgBWSXkWpW6qOF2x7ulu77nqzebxqQJcE9zeB9nBvtEm6kOR5gZkFxp9DKy09pbvOMFz7batQENtU1GHXNU/FJiAhZv1T7JCz2bGWQgQHr4n3ftR5tVlZCXFbaViAq0rqRrgjIZdQCU+mEMf0Q0NIfAtAfA7DRrizMZQuJsS7z423euWOTS7sMSs3XTM818Dt+W9yId84BeShXL2kreQPzGgFTPyyetIXqPXxZ0NtiHCArj1e6qkjwLmG4WqUOTSVLOoWTMvlTvVQxf2Q7m6vWjpx/+kfevtxelo4zH+GA3CRl6JdrQjYRIoZHLxAmiRz0xFP6sOak1zypuSbblukDE+/NM8Rzk6zUta4LaQow24ggcJgC0txrM80tn/mRho7n09yS1aAazE8AE48bNbn29q/iSFYu3L9zxY0GJMYE3GKG9TmNHQ/8Bm+4wX+4kQ4Xoe59BEorqDd82avv19SHtcVFr1Jt+WpsdlE4PKaDZJ1PO7KAiEUPH1N+/JL5CTUKqhbPOznKwS/dEIx2AYDS26CD5Z5LelLuHbI5Hh9KyAdAQK96os5V0Ig8LRcDSpmRvZDGbXgr0iUzkqEpocPgsVyiXaTDdHLqkrKlNHnGQbnWI+tjm73xbi2C/sTtw0dmu02n7v8Zy2cfXd6ivcKNiOMBpuZeTK65pODcU//Tk+7djXRBwWGBaWFQeTUExr0Ltz7kIWPhjodtUd0yHv5WABEeFbS05anT+YiDFi9s3/nSVw13HBdmQ8A9pIbxdDcSFyyE1U7A2yg0+f6tlLbvi08paruUeTJXVvvyVZnozXLEQz8MT9go8MlLgzMPtQEe6kEJlT8KdL2dJ409qb4pP/VkRwhzQ9vBvv+qPjSs4RnWMwWAqdeM5dRzEiVgUhz0TFPuzNU3dwsayuc1pM9pVOPwXuaMHH5qeUfYODfaK9xIMwLMOrIl3PqDAC6gtKGGVuHnn/kHTbRfUcW0HaZGLflCmNQ8P1Fecqk9x0tnbTRw8pF/57nljIY+epl4RvNE6LAbcIoU8LOtBRkABIxr3B6nbVMAysLNixotHFKj5XHNLPd8R2vWIUG/d9uSU+OWeahUMP7bP+xJczsbxxo0f2N/GsMU5pBGSgAiE44yi1wjvMg1pRCMUozyezGn4TttePzIi1NvW3LwzUhUnnw2xXcy1NUWFSi5485tyDwZ1R3AXJRemY8qpcJJ5bb8KWbsE+0ZkeE3MPFEQCQw+VwIYYMFKS9zMVQT6M5WMGvT1+mKKj/5RmgVAaaSStnSI/kvN2hoWJBa6OSjf+a7HmOREHwFn+FG+JCbxJTLwq6RszXYNb77ajrHLmt6hrq0qJEZHoDQ09c3Q6HwHdBINIf/rUvOqSxPhcuFSkqh04onMTO721qHeWkgpq/UacVYIIEI50s0onTnrcMLfyldKT2noT60C/awa68/023KZM5HWpQvyTJRBpgw537XbuqBYTaKY9rBMRUWpSce+qNkUBxz5Kq8xMn+/7btGP4RYBI4rkKQ7huqKsiV2vG5FNQS3hPXrWxb52TWRu3EZAFmla1+NSMIQD+UuKiGvOrDDlBzMM+xRCcYrvPyPhRugopPckp8cHvchgC5JmsnhrUNXdqF9ZPnkKywA5QQRhAwZSe5vId8svwJ8hN87JVT5IiUIhuvfhFvmn9OyTAFo1zsSee421KNzmWsscNi+sgz5y00glbjtnzgL3axWpyuPP9/bBcL3eCd6jKg74ayGZrxnntU6s1cGHByeI0OhN6TeabXAI1gWj4aNkvZbfjnAqYXPRr2sKhmCGef1lbVa1o0qKTgcT/mQuAM4xwaW7r/+9764n5HdJjxhPDCH+7YcEtYHCBEMeEjCtgw6mjCqmxC2Q1hWGOlHY95VNrEa252Gs0J8gebgwmKukX+qEcAJ8LNRO/xm8nAox5AQB5+HP8AnPSeCzI3m7nxjnQsRAu/nDzzV4EbImOeVub4sXRHhcRx6eWn/s6GNdsa4r1RIHZCbKnWuSYFmBQiOZhRNhNmPPU48ci/V8+pM+ka3r0IagTT8tGyOrb9lKgHZl4NOqOIB8HWrQlTUSbWWFGff1KLHi1+vGjQxNrVynUjT0+np5AEocpaMT2vnuLe7uRjf67V3jesGqInGXoGK6QMxFnPKC4mtRvDfIr7kODThrUa0vbYLSLQRqiU7UGXKDwJUbwNP8iuiU2goieqI5Sq8pMHOaA+QufJ8QbUMvN3fEtD+/U5Y5oC1HyGXINyyKUNd7z1tGhPXu5WZIa4/sZz2kvXn5zRR+ueUfzsZCZHwKkalTrRc1pWk9YsLN4rdZ720OlI0HPWvFHmWD6CWbnBbxXk1/HAVJQJIuTcWOHWBJivbWp+ucqi5+c/dC9kYw0WPSQstekZzOQSGdURAXBPeFKmP9SdeORP3SjW67EVNvAMVkjpCzC9g6MdEPWUK7+WUYM+HG6SQ3luTFRIKfWrGEx1SL1lVGWo3MImMiue/sU8ub45jPatUkYe+AgLcob0BTX8rEBqgxXpds03JDKfhe8gm+vUhqdoGGAv/Z1u7eUnvWW8zl662hDCNY8JmC7IWQuveUinfLeZOhEWQQuyi+XvD4UuNrNT8BP+1h2SZwHmDjo9MR0VsouQBwRAAVgRrXPvkIC54p2F170aj7kaafr8+Ho/AkqP9JZaec9RwVup4LdyBdVUlK9EkbKuRNAtYXWD6J1w7gXa1DWGzCkxpN2QmsQrb/X0Q0/QpeAElgTMSF/KywGlGvhLnkjd15d0rod5U3xUKmWjqumNOtNzCoQ28dMoQs+5oItXmXO2T5AJvoO/8LfpKYZ249wVJ1VXXmBH6A01WdafZj4DmKbjsCSNuGACulZ7afrlNcGDP7AdQ7smGOIj+Ap+wx/uhQHTwmU1/oHVLQBz9ddP6i7LtyVwVTBLPVUlFZXxXYBagKkIzNkW7/+Bvzx2e+gdouGoGMJvKxAVLuEZIZQTuznJPlHHhTWncs8gFVHZSqyZC2nIDbqF32Ak0riR4Cg9udjwZoAVr15GC4Jf8gTf0RNRnt9dsN7kTkhNNnVaF67qfqGlB77v4bK1qgpOgu9CNypQswI3CveRYI0a61K2L0vvzDTH80/v/efpAvmCddc5eWpgMqdkbslQzhTMO0FZi3AQH8FWpAt/uAWY8cUQEZVEyvEeLvFOq0qgtF1lSMh3Wm7rihPNUkiSnqrVQk5BJzEk+jpsz07CyUc1t5RSnZU5wi9PzthWYJROyNAS9CqbFSgLnPMv5IsVZMDga1YyT/HxlHLyS89n0BSPdSKAJT/8BCjq6OCrD0tA7P3K6/z8Q2jukS1ryqS0LHcdqNvVCphF4eI937bZWbKukiIeRoNZyOT3ITmRpDzMNTVqcLve+Z/9bdoNUi+KdoLFmNmqKo3I7K3CSGRtgtRa87JjOP3Ef/bqPHrMUtYBLy2/kXwPMItgc0XDHy4Z6XW4FIv52rKGcBYUvrifU3oC5gj/GQghw6ADQ6zsUDLPyc7v5GP/Ue79Xtl5a65wmKi1FajpkLSUqR7bf1RAfymND2b5xX+xAn1CH5IYD6qSq8Vf/PHS85loBiyDvvMpK+NCkKgpBV9Br+W7D1d2Z0y5yZfKpkRK44d5245vxECNRs+0qCMls9o18hzcWu9MMTPeltfyk1LD+25qP5knrkt9RPt5QdgAM+iN0MkVTou1uW5OpylPfecvvGgtPXpm6yAn6LfpemAipSQpySSagdf+ncz4vZOgL46529mfaTUuYO7kL04Elaqfq9YFQyroEW71CJeIqqdcklEAh8u4N1yWBRUrqfygE/nbithP2WrIDe3knPvlv3juuym9Jaty+oGRmuChyukfMZYoGhSa4OP1T0w7KsfDGDWMbOEG0If4C/5TKcqexKTsehHtBMcohFS8EytesFLSdS0cCjv5zWSoW844BcHstuUM8QNtrp9Z/VXSP2++/aKmZjr+EsDMpQf5oGP6FoA41OJ0ckqrc+leFx/6Y68R+Gi40eOozx6+FaC68z8i2PsEQxGD3zdD6L4hLjD47Md/4zlcsk+U3aUlLqZBoZ49BeZwBGMzKl1UgEnbovSXDFnxRL6WTvgjXe2mrbe1bk1K/rNP/dDGJPz5FXiDm3F5XWsqnjGRYMiHlYLI46gcnxBFvVLJuLyG9MaVQcqoT8rlDCPydimljJIq0eXCBh3CQ7/JVi07Y+nSq2rKk7O05QzxQ3LWCJzH8kmDV57yX5zL18T3/GaeshT6cOW3jBTPUQu0B/O3f9PW7fwJwaM+e/hWgEVsR69Z3mMbkcKoKCoh6y81VJ79yX+3ftDW0VzyFC02wFktqCnsLTWMUyHO8rDN9Xke/61yKc1X35AxCUOUAOp5JcN4fqL8vqYRk1xrQyRs2iMJXk1icGbJZBlFNXGJGaI3Sr3yFUFTVrR+dh0nipRFAchcwzaGH4s6c7PI/elarQNOM0n5maFSv8YfJUc8ftRm65qOrbETZPvZNzXbqcolUWaJ1wKOHIx8iMdOdv4uzYFpR/XqM7KeOuoT/IfroRwiERBuXYG6EMJZ1W3p1jbMqM5p8syqjl7Uc7gskDpP/V7TjQqhbmCYwhzs8zzbujoaY1i0BMs6BMc1KjbG0PAeT5Qf9RwRvBJVaroESEAp4TMV6B/55I0Q3HgnTTNpKNlqGrRp/yRf+jdDXAXAY/pBUyMMw7m2/zzC3K2dIVkm9VuWiVpbv/BHWbU/bvSgHc8//b+teOcPGGg8L3go8qkrKGLwan71z5TucJ9D1SdgcnU292se9Yn2CLcAE0IReBDRVCFdvBqKdZ3xSXaKowuffemotVETLT0gNZEqNHddVhPtm2n/SIwxuIpmVbaHq9rVwFgjphaDdcvSjXSlhAxIDGlTI9Ayete8ykbP8rqtFG8/bmqq4hZa+aVPQUAQSO9mwx814elMj72iSTkMsb79V3acDOVMfVih21qes0W5HlDjifoGEMNNsenfNPKd15Ts+e7cTxn5tHOn4zFY8bcPHwb/B50kk5SKD2ZGpygB5tJ9T2hH6Ott9uJv+Qp/JAj/CDCJjIhIOM5NCto31DM9051/rjcGQKCWz7hMdZgakW6Iw03s9NBjxq1idbJDv9OC+mHGtix++GDoLbd1VXQ8e+pFnswHacy3gix9fFqATUpVw8VcU9Ic9Ndgc/2MdqSU37VldwpQWn9H9gQkKLUPZRQ9oHkmReJ9xEXZzYYH0T5+IZpKP4HSXTab2EDO36WNCIxcpNkoB/NIn5+obwESdW2epO/dtI737I//m0cart3mvFD77KGnBEFxUval09feamCeeEh3HV1/a5u9+Gs68V4i9RJhRwemBMQfr2f+Rs+0/JLUMdJn7ulxcmkhmCjQwTSkBM486fTjf2mjYI5NcGDrgh43pASMXu6n0svJmGR7RXo5DBTcuqJaXpoSSoMlMdsOUmFoBzirM6cTmrNYmWu4wpDXhgosRmJ64N4KcEKXf9y3NIUkbzSkffATPwLYmLBf0w7qgxEvfGC1j7woL/iSrLg/3n96zx9ETxl5j8g6Fa2sfZoc5PJJy91SZ3/yN25PLtb1CVB/FsoT8utfXEvoQZH8/qu/2pVi5Dv1aN5SbsoLnoKP8IdbeAp+FdEX3b+26Xq/0njHRwufVZ0bX9UZHw48jam287SMOJBeBusUbUOe+e5fCZgP7jk60Rd48BvzW66IRm957l+lJXjrBQ1HGpLyNqspjKtbEZ64dwVw01711Gn9cXrN4eZl4cMxCLYD6Rl81yZgjAWV7RDJbAKZ2SLSYeaDn9pFz4pfvxaYBi7gVBr0h1YXqUf3U+oB+4mPqllzkpq/Ubb4+0pnf/o/bE/L5brYQKTPS3k0AqSHOqV6EVIDM9nRXik9q4D5+H9KdrTwUfEV/JAv3qFbv+OPp/SYkSDckqAiHmFs9TGXSxca6Oy45nI8MBxydgBhOf8IXQQryyH0l6e/99deyfn0Iw1+AQ/XPrPTwxB+TuoregA3JA0sepRdxGsG9bUn6Vb8KSHnwjkExzxOe/ZssTGR98ExhXcAgY8KovRoPB7KFRZPFBT+ITe1cRWrAIdlFz5Fy4ubJNkS72TOmc4VuTJZzmPlrbQRXhVYXrnr6JyMcFZeecbbytgTJIGJgQxMwUnp+5KhR1UtW44sY5+pKdnp7/4X22lyxh6+Rtq9lJjyVd49r+OBaaEkCY+rELsE/BmUdFmWLg7VVmRKTYGjZUT+mkFAiEURFTnzvf9qlVFcDDCa+3C+sEqHn/M/k52hzLosNGWnXFjq+Us+tkITbwmkhKLw9x8D1RTDk3jNgaeWTnl+aU4yLSrpHg26zVBKYxznE/KrafrorkYDKhar8ig30tfyJm+E13TiHUOcc8/+o/9+J8YdaDeSwFSXwwAToxPNw9mZOvX9v7aGJc19tVBsAZELHQoPnkaA6UaEkH6uCF9FFnS4ZORv0aD3Yo658a5M9LWzEs8AHxFtl96S+RFd/5nv/ZX2WO9V+IU3aG2ZvfysFmMSNK0G2Pj5yYzZUVHUh18cX1ULa7jWfZtoCLB00l8L46jtyNZfXbl4z/IRsSjJbi2vkYjj8KjskYZtyqaIo5TvnbIX/jm1J0cubECd6xNDedajxVpC0nOLIWUfslOvOX/bg91pgMnUzKPL8Ag4wv8YmewFJhNv/df+uYy6omX1qzM+Gx9ww4O+sPxEe4V/nMv8aFILCdQLbP7Py+7wIEbH0Ykw/8Vern3Wh7LivXGdOTIjCZykM0ALcxJq7jENTA3HfOEz19/RLT74RwbmzJXp7yuWD6bkjVIbtwFHLa8m5bF4D5LXUcrf0NbkskbAFf7isQ7nJWOcIwJTl71i4H3qDzIwNfXxRz1Q2wP5V4LcZukrxC6Thz1QD1OZcF1Rrhvx3UQC5uZHbw2oZUZ7kEzGX7KBqQNYBqYmy2y1HcRo5B/nck/POtbpUl/x94O4eCHRSz2/e05VExeu/AOMGUyeWujUImdXlr71Z92senCfYdFXD4CdowFe8Bs0xvFVhx02XZ1nv/cov01zIeWweF2W2aKBaf0v585z+8VQbq8kmD9QyskplFR75tPSsmgX75RGQIZ09vc9nA/IbYj/qM+YHjMB091zRbSusC/N0mSZU5GbH7/tA11BsC+wsB1Rdl0hGyVgx6ce8zuyKtIio883kvxQHiyw2fPFSgYzPIAZD1Vg6QP9EWASoZ8dphYLp91Tnvj2f/D9m+gl+TDbOVzQDX5ruUTcOPew6cblHRcW5bdxF1IOi9llb0zodj4tIDm3NQhMCpQs3Y65cI8+Wuz4cJq0LCxqsSW18h8BV0/wHW4VNfI6AkwKjAyuYEW0rjBnRs49+XdJvcCf9ODMSH4if6lYRFQu58SnTmmfnKFcQDgMMINuzUeQ9D3kGoLWNZSvyVLdBstEFpmkNWWkd3Cum4Hpm3NRd8jK6TEBU0cZ+vLQUY7mN+lKNkF3v/A6zX7vfbmJ+fDvl6eOGyefOn7cO+d+6C19daE6m/HA5PPmI08P74lDuUyLAKZGnJNalc8JmKzSxwGT3Iep0ygwq0xtBWu/T0U++bfe+dnizzjrTp94+kKD7YjpXVbkU9oX91D+7cP1mEG35iMoMsdE4Q8wV2XutvUR59qj/NxPhj8PRRFvAWtFOX1Cl5MKmCfEz4yAaXWTCkjlXeLAjB5T4GQ6lNR/WX4ayhFd8gUsw59aABlNaOrHVOjkE1IXSY4Gpkaice1FrmjPRGHvv3uAuTdJCokCIJiGctlhUgl6TJ2UjILC7enkCvYByb6Qiw3oMR//C88xIzryU168hxtpcIMfXKxkmPey+FmV4fLmb9+wMEOMfOuRXkRrMn7nZCLKc4agE5rzcpW2RW/W2yZJ2aFXaO6heOEBUdeg3fovnPJwzg1NfZY10tBjYspYX7SrWiojdUVu+un/EEtaqBOgeM3ZEzC1mJUa0LtSFwDMqPehgUm1yISgsFw///QPEzA1ceaKmNTg/VSA9OlJDRs+XBY/bO9ZIfvEX2pr8p7cyD0YoyzSR+PwHk+pgAIwwWNeuSbBLv/876UuejVLL6U2MHNGxDvyIFfpVbG85tDXCea8+vJRadWryjpfKVvyOO4n6hpltP7jLg96/CnA8/oryAznGxp5uC4nyk/ApO1TyQKMX1K83sOvoRy138nHMzDZYv4cwPz/AAAA///YinaHAAAnUklEQVTtXYmSZEd1fb3PrhXtu5CEkITYhCRMhMNb2IRt4Ecd4QgbY8IY22AMCNAutAvt+zYz3dN7tc85N0++fFn1qqt7WpqC6Zqpyv3em/eel9vLzJ7ZwafBJzn0dj6On5mZyfEb7/2hWXnip83aH55oNj98o9k+dybKB6mcr88zs7DUzB491Ry59SvNqYe+3xy58e5mZm6umZmZnVwO84JcOxurzfbZj5u1V55olh/5l2b9rRfAegb0KEHInSrZyC0FYwQzgv/idXc2J77xt82RW+5r5k9d0cwuHWtzFvVvI1tfqZ82du8+67su2Uff+fvSazqjwuvvvdqcefK/mtWXH28233+tGax8imyhN/+6+tB2kQLlyQ7Q9dxss3Tjl5qTD8Ket97fzB6/pKGd++Sy3LU8zj+DDMlmQyZTGRNwAUZS+JWnfwZgPt5soFLby5/0AqpmzPDM/GIzs3S8OXLzvc2pB/+xOXLTPc3sIioxN99LZ0iOEphbG83O2grkebI5+8t/btbfeLbZGWwnpYUErp1dxZJGitiBZ/7KG5pjX3qoOQrFLl33xWYO4OTDIuDaMkFu6LfUz1DiHiJcz7pIH33n70uv6YwKr7/zcnP60R83q6883mx99E4zWD2LbIZklAj6BGUBzB3koQ7hzMwmYLKhQYMTwDzy+QGTAm588EZz7tn/a1YJzLdeRGv1UQbURAqanW8aPE1LaClPPfD3Aujc0ZN4wgDYBAArfJQih+IAwp3NjWb99d8LmGuvPd0M1lebne1N4Y7YCzVnHAYJgxshemePn2oWvnBTc/Tm+5rj93y7Wbz6lpCJ8u4CTMtk+R3er+v6HxS9cXKwhzn9mx825wDM7dMfNIO1c8g+HpgzBCVh2gfMY2gxF/cOTMu55xaTitr86K3m3AuP6Albf/3ZZvvMB3sDJluhuYVm8fo7m5NfZ9d5bzN/MnWdoE8eNowFHetCOTuDAR6S55uzj/xQLSdb8QG6eNIRMCtgmX4J2Jm5RQwxTjSL19zWHP/Sg83S9Xeo1ZzDsGMmtegBUJYiVX5MIYUqPhG7998s3wHRGyfB2pvPNafR07DF3F7+FHpbQ/aol2sXD0jbYhKY0XYmPUBOduWnHk5dOYHprnxEHVy/PrkyMJ2hLuCwn1wB8+N3MB55VBVh97n16Xu5pTOdsS4E3ZnBmA4AOHH/X2pMt3DZtc3sMbSa7jorApbD0ZbHYSCw2Xj3D81yHvu+2Y59cyaoOynJ9KR4xunJxwOD1pHd0MKV1zdL19yq8e/iVTc3c5d8AaA9ji5rjkQiP+mKns3X0i9YTqU31x/yr6Gn+fQX/yR7DlaXmx0MjfIn4451bIGJmiLcNiDUq8aYCZhzFwKYBOLqq0+pIqsv/a7ZAlBt8FyhMR7WlVVkt3n8y9/BmO4r6jbnTlyusUoYuyVgJbYxowGw+dHbzbkXf6tJ0Nrrz+CB+UCcRpUzzSw3W1YZAT9ozWeXjjYLl13TLN1wV0Ngzl92dRPKXgR4AeDIDNIwkMDZcsk026jz9CV0CAwlKceXcaW/fWCo8fhEXFn/9Xdfbs4+9pNm/c3nNZHc2d5qiaRiUacuMNViJj0w/TMFpiWy4A7TtcK3znyISjwnYJ577leYmb+Z01QOQqr6pcFSBUyX9Z2//Lrm6Be/ocnG0Zu+3MxfehWYpMlGYpzzFwpISXJK1bP7XkeruYrZ+crTP282P3g9sjJTXd7yWEaGs+1QAOCbXTzazKH1nD12quEYmN08Z+oz8wsCo0jgx8UskGqfBCvlC2G6vzk9e7rpETKHOpPjc/WqZyTyK1eWs0uDoS2saKy/81IMybY2mwbDovxpWcim7MDj09Kmb1Jg2p6Zfo9nqCt3vpqAQcn0AMAraJke1+x8AwBwdVWOwLTBW4LymS7deXSPSwAklxeO3/HNZuGK688LmJzwbGEitvbaM82ZR/8jlo221qHodobekYvGopxhuRaYkDTqQYXParVAS1wLGMwv4Stg4gFiPtkwGWuGbtKEnPSAKueoH7U5kdAtljNbX44YTdGtPeWNnIaP5SGdiEsZTBDuzuY6hj2n1VoKlMibP4WXcR5ZlnTJlHo9wuUizspvuz/1Lmm5yEKhfF2fzKfy9AKzytcJct1y86M3Y93w8Z9gbPdKJ10BC1NWEgmtYDsYy13aLFx9a3P0FgDznu/ELNhjuIKilJrodIDFPEU8l4io5LW3XwQw/xMAfTpagfVzhosUSBpZDpS3wehCIYlzuIojONl9QzaNMeEPOVL7oaz4KW0exROtPgfANCAF6sjHqHHFWzb2DecuY+jP1RK0IoLxAvoO9Mbuu3iAkRSfklCKItfMmYRRCepj6YZ28sOe5kAnP4n3WGeANcMtLCusvYp1Q6x/bQAIO9tslYouwBpvNSKaGRBQ/eyRE5hUXK3lohP3/wXWDu+IymA9s/y4DN1xwIwymAR9+Faz/NyvsZz1ZLMJ2bYx9KBsUmghl3VOulr9YAT1LEIGLCIYT+UHA/1KDtMq4uUlvTpuZHgEMMuCJcNU3vgd0kNBnyRKCRRWBSNTmMSMgkkvPWcr6NObRSMx6gbfpRuw/Pfw99QDfm7ANDgoVDT9Z7Bu+HRz9nf/jgXt59pBc22s0ELbQpGAPjDKPN4AHTmpCcaJr/6VuvU5tKKzWP/yI96jFxPJblYUYrbw5mL9vdeatVefbs4998tmE/5mGzNNtAizST7TFShpRkXgxwmJYFlvRnXgWdTV/IOMiWTxWo8zppiCBGJczm5bjL6Sv8oVtJKaM4kCh6IacqVkBYrCBZtO/Yp4e6kPl7Q7PcDkwjXGc2tvPtss//ZHWG54Rm8LuMhNITufMcBU14i1w8Vrbm+O3/fnWs/kOJMTDX9Gm8iprVtyHXDMtHIaY8wXm5Vn/lcTNb4EaLCuyXz8km4YK9oWA5SRjHc1RgKzZIa8/NigZUsVKfWvuLaRYNSSc5oflFYOF2Buymb5HN/KGdRMKafDQ1MoHqh1+QzolLGUxmVL13xamaPuajH5wkTLRV/RpPEz7cotSBaONcGsbQctEJcXzj76bw1bJi7M7nBh1jV2gXHApEmwnrmAV4FH7/yWlo2WsOg+f+rKoANaQ/xNt3KzoliGY03MLrl8tIr3+ZRv443f660GFai8kItG0pcy5jBjGAxXAfywlMpR5MzMqXQd2S1X5rBfORI/l3KaaXfZtzSZzjqw5WfZUQ8Cy7YlgvIOwMi4HJ88pNX55Ayd2BH6SOlkRllgR05+9gtM69vy7Dr5cYEspmoNdcD4G1j/Wn4SkwwusmMtk4uzQ1ZLGh6ik1REhc2dvFLd+dFb72uO3fkAgHoj8MqF7P5NHVme5MnqtaLBl60mVww41NB66/uv6p06hyIGIuWVbMhPN/6RaGmhAIF48IffMplRie9wPZFYfVjU+bLczlPI7yi6zM8kfSGAgIlwV4wIBf2ydICSgitNBCN9iH+XYCZieR3hcsxO/3kBU3oPyqKLSu4PmKKxo/XLc8//CsB8Qksz22c+CgOBOnjFJ3sczAlBhd0K1wuxuH4UryZPYncPF7W10aOYodeKcdiAsJsZo3JsNTlR4zrrGl4IcHPHptbr0K2zVYUEmm3DN2AvkCZvljAktuKTKZKjws7QcevSkViqgTksf6fomIDZGpjhEhAs5FQ+XAFWPmBKoR7CB7f1KyoEgZcpQcNySZ8gprKl8CqIn2CcDI2yCHOX2CXsym9DVz7hmx/zy3YjfdDaPzBReOv0+1oz5C6j1RfxBuiTt6OCkDPXJXuiRlmQCEY+dAMzeNtCQJ584LsC6NyJy7TAbQWU5eh3mAr0VyTND/EyETTLdVe+rlzHu/R1dOtbaEXZmqrlVDYAk0smLptks0NSGfiiG6Sdbj4MGxBtWvhK0oEHmbzO1hummPyornLhj4gEKQao95DAcjC/pysHCUzrQ/WiIODDWfklmJUfHbOOKSGTnPRnnWcFUS8TAJOF+ckEIqhfGnfzg9fiTctT/43tcK8WqWAgHkmlibHp0L6MUjRaTVaMryiP3f2wKrZ03e3a2MF4flzO/gGXp/CZ1T7OxANhKywIMwdMhEnZNrZybX78drOBcfEGdtPwyyWvBnR2AMpBRzESh4XxIfDDpxAD+HrZJlLAQ5URN/7E8hMSM9lEwvUwWFJ0drp0czR4UpmSRvJIJIpSZLGXOQ3MyOGWkvFRQr9B0sU6ruU0/RwulSE+LIZciOc65n6ASdrBJ+mRFBE5Rjwyjc+obHzTwtkuu8mzj/5Ixs7rmSbriqSwmDmNpBHh4BwmPWw1+e48xpo3jBxrUpYWmFzsjrcwJKcKkqeJigcrPNDbjS2scW5g/+E6VhL4ynL7LHYhobvfRrfPcfNMgYwQfRiYbrVIOn/Aj3KRLX4VHXVVFctsrT/5wig5ulvA0ZALkqT6pXoizep1NruUIcydTJ704bghni6YXNvb+XK4YmhI7QeYpkk3SSkdUoRdgenCldwK8m0Bu8N1zHjPPPKvWtekkTm2y5+kkKxBhDPNsB+yUiwoHRsn5jHWXLr5nubk1/4aIL1T409uIJbFkSuM3dLILaQZJsV14m0U7JoZ4C0Qx8Ib2Hm/ickbJ0abH7zZbOGV3GADk6LiE6SgNIgnUCQrCZiIVJCJpq+6MdgC01V0XFQgCClNgANTZyz4117zCzelpnLlA8UUdkJykyfzD6mRlDJEtvzrfE51OGdIHutXVZWC9t5idmgnnYUioFskjlXJ2GQWxXcDE4qzj/04ZufYeURw5o/JU3h+Uph06ZV5lQYfX/nhPfTitV/Edri/iH2a2OEze+R4Wy6o5LCD2U18rLgcTw8ZouXkfsNtLMJzUrQBYPKoyAZWFbQXEQ8aHzZuMtYrOhST3unKDznhMTgRxVh8oz7SF9k4rPQIB/iSHlJ87qJRhh8Dqmi4IyH95nqlelqfJTBFKrHhqgc/rR3N324inBznY6roJHt1c0X9GZeTIQ83fu+lKzcv0c6EgtOuwIxs7W+HGKJZARp4RbPzx7W2ucXZuYtYgQ7ThRAtHeakscPlEtHCpXhNiRk6N3ccvf2r2nKW7JY1UYeFFlHiT+aOQPEhX86+0WU3gy21ngN05Rx78njBBuqx+cl72gjCcy9al0VxUcMPXQwcRD6ASVZpM4fYkD5FJCzDZXQrqzK1P6Ip6mWuNp2+ZDBwzYKweplmN7fy9KbVeUU++Lf2SJkSX9OylCbhByTqGvbbKzBJa4hvYnD+wISWOtvgnv+1gJorkkHSraIEUpRUDgNbQTA+3qEvXHGdzgIduxebO669Lbbpq0sPyU3Nhkv1CQe0TK+MF8+0pUvLRAQQhiOatbNrx/hz85N3m020+tunP0w7btY0eWoG0YLOosyMaPDdO8dGkBv8BEUIJUORLv0ROwJFUVf9hjeJmWvVip2inM31csua0Kr8bZyLR2FTNY2yDHNSVknrjG0kahCftmwKq84syxxTCEyKya5769N3tZ55FtvNNt7Bpg4DIOphEyXApGq61mFe5WRFZ7CLnGubOuKAszcccxKoPFlJHOgntJkUQ7XigzjxhdLq2XooMPIwqw3MJk7rnXhdqUnQKiZCK59oxr716ftYAgNIsV9xB7P6nQ2cheFrV2yl01ITWt14rEgxjJSByTD/5ToqS4jf+Y34VAMHJnChCOsCLtkMAVPMKQNTQ9KoN4HUsoj0kDXLmzyV+CrEoqQjnqaN8EG0mLbLebeYlJRb8WlULmBzU4fena9hiz6MaEaqPGpkxaiGKpx81kDWzIw2DqtLx2nKpVsATmws5vtXvmO3xUOpDAaBDExuTeNWNZPPdCOisIsipGiCFC3oYA2rDejK2RNkYK4BmJg4NRx/YozK80SNxqHqu0WDMuiLUJLGYgZT/AYgwB0ZWhlc+ZxtpGcoF4kFQYDSqaaKMOUhIyDWdhA8Od7gCwY8WFwuG2yiPrAX9xgMttv6UAjrtStQ0COnnH5QwCQj0No3MF1RCZYqyqO8y8/wWC+2m+GIL9c5nS9XLCmyYzHq1HrNGYE/7SC/VEtIx+75M7k8Usv4rBAWLUBnMjIPK5j4lXkKFgU4UiyNSaNx+QgtIydKOgPD/Yrp6zTGx0QpNiKzYzdBy1Hyqv2GUB3fFx6iaV12CjiXXXKBHvgw88P6pdUJPmjq7fCihBPATZ6Q3IhdWBzrR/4KqIyUXjnaxsfgR9yBLLCnOh0MMCUrxpo8C4TXkzxtt/ryY2ht3rWdWIX4WJklmKhDhvHfQFLmpIBFvDs/dtcDaDXvU/c+e+ryaDWlvMq8JX2Vj/SJgenySdyOIxnZ2nAChaUyglcz+OKMjMpXMnWIVIFRWY2pKqujx4koPZblkjzRe6D71dAlls12cEx3sI5XthiucGWFx7LpH5zDuXK2pqwnG53SVqBNG3nS5zSeBNjvArvENY9UuT0Ds6wz/TY4hfXOdp65WX7yp1gnfCUBziqtS7flKRd7IwEzCcfcjJvDmZtFnlrE7pUjOIIxf/UtzQyWkLifEwVSGTzB8NecRK9ga3mLqI63zt8JW3lw1UVyHE1D03j5MwppOXECD2pQVyKVcnSoZ298sm4oO+XlGy915Zj8YRjGFyXr77yCzS6P6vVtvLJdyw2LebsC0HohFfQOofYKzHG2OFBgah8kjl1wwX35MZy5wZizexy0rF5UTMIhmimqLIHm2jMOCbNY2+QhsMWrbmqWbv+azqPPcd8m3qdrs0faiZSVX5YPK+aYccpgpg4QR4Qzoc/Is5t8ZlvL6fjd3CH6BCqGKDsYZ+oiC54yxZmpDYB0sPwxWw6RjN+gnnkXkXsBJmUYkqMSfN/ANGELqTCbfkwIONY89+wvGh690BUyGmuSMwUqK8euJeICjPhNQDI4SZ/dxizGSDytyJOVi7iIYOn2r6NbvwUbUi/VhAhUhO4sT6qowymYHcufI3ryT1q+L19N//MO99WzI0cammjvA/awcv/qyjM/17iTLSt7BduF5XJdky3p8Dtpixk2T4VJcMTnYIFJBgAaN0fwXfQqgMmLEbZwcwcQq7RQFMEW3a7CkDHayQRHgjEJy3wRwtRC572P4Y6hGwFM3C90/V3Y+HGDtszxehleVmCludoO13XvM1idvw6bTl95pveVcdlJ3T4ek9LvKz/EX60FHm2sovCV7RpuVzn7ux+r58s9HuzAzxDvpGg6S9jnENve+k9Jkgbl2k22fQOTDPgZxSDeR3+oZaNlnKLk3Tg7m1xeKSYJLKvy9hiKUXmFCEorhFClny0nxpe8GWMBN3nwAieudy7gQgIuzCsP80nZoJ3Kw6fPKHmZYD6RazjseLuj6DiupuUye3VNry43Kf2yvMvYzWnWE5lwvIwVCXbjvNGEh/liA/jZ0E+hS9mHRYrybDG1g32XbW8sU5ZT/Uwn8fhMgBnLLRuo4MvNCrbDrb32FGbo6RYxPWHxmFEWy8O1Nn+sPLqln+mqEGfjGHfOX4qbMrD4zuMYS3g7xAsTCFpPimpQ5vJmVLjm46g67Hi7tWLr8G7lTafPrenV+XajX5fvzZ8NEByYj2PNld//QtcScrbON2N1+bBWCbCY/Ew1MIk2gpOXba2/+QKAiS79xd+kLp2ViVksledNBtFdJ3D6qYGurBC7oo14DrZnFo/hWMblzeIX0LVjxr547e3w456hk5wULaAsjmbUFk3h3QyX+VXl63JVcifYR6OTKQX2QndU+d3i+ui3zUFLgXsHzr3Iu6lwMgEnYXkDnOtCOiyTTARzWMPnCczEXvLQtiBsyq1ke/CNLs6mEMtg3GJ2FtfJYHa+8vT/4Pz5C1rQ1dqfQJkYqbXsgpIpWcgR8mhjL4A3Mz8PIF6BGfst6NJv1Xt1nrScB2B5pQvHpXpTRIFSTcNJYT8E1nTiZUPUrEfXt87VPlDDKaNjJqU7uvTusX30k9Y7BDax0+rcS4/FkRnsteVJha4+Apws1NKdHJgu15Zt2WebIzGZq03ci2+ouMmRA9+gYEDNt0A8372Gpy/eCOHGWo5nDBQCs5SCTwyFqMAyUi6BkxfBovU8cSl2Il0jgB7B1TNsSdmizuJql1goNpvogsQl36oR1LsGGOY4VN8qy27lq+wHFqzlqsOWa1Q8de145uOFESu4MII3NK/jiDbXOF1edpHUNBj16CrsHZgsab6ZULL5wbeYraQZWLwJg2ub61gf40yds3TdXanJEJeMUuXsEpgVKF2BOt6VYzrfo8/hKkNdIYi9gUtYiJ/H9YZsPQlcnXNWC4oxKnlBy3qDUfAaRT9JJ8dylHGlf7fyZd6D9Ndy1WHLVcZ3Hn4ZAUrB/w0ckVl+6mfqytmQDLCJmuWZP+jEgy1gshKy25QCs6xwqXBWhJsetLUM17Ww5eRNcewetnVzbapXLkQFDAMzJ1ce85XL1k9LSkfRjZ/UpV2LOLO+gGsEedclW1OuhbIFhYbjW9GzAavooaD5DiXsMWJSfruRtTx2+/Jnfrk1aHNqryoaC66iaDMOunG2lrSfz7ELnSoCcBKRadJKcpPOylncctptpQjfgbWYQwwoKW3PH/g5GWJLyXVNXnbFE4vcNJDPCGXJJgdmybP0mxRn6Nx0zAsVuKdTY89LroyjpWhBuRlE658A88ys2oPUIphCvzuKX3/u/pQMlP4sE6VYHrt9hTK/BEznZ7x29mMGzotclx/HmztMXDlP4DKfz7G3dDGBJS4VEb3e9AIzVTZkpaFDbDoMDbB1bPPjd9WtrzyLlhPLSdvcTsY9joQwM8kNcDJUKq4M019+nM9xVDTPCrH75utMToQ43py/5Cq1nPOcIGHtcwFh3mTM1555B46JFG5Nv0g6EG8GzD6pZflKG+yJFl6MnME9mbhWh6soa1hF4ckENijczCF9JhuJl+YItG880PTtFZhZZsppuQME5zcrz4RBNPvJhB8xgLiUWEE8VXjyuNl2A5dcraDia7yAAGtm7ObdckoBKiuUdgRmzBAfUR+Oz4YmQFkOLm8J5sUKBOfc5Rh74stbg+d5hv0IwMv7L/kXNfhHCugarMW+zsQuOUnGbuS+QlnefZUu6m8D70InJoO0DyaheuMTF0Pwpmhe/bP57kvNgBukRSd0qOYCmxdkgzx5pQ5gW3wDmLjt7UIusBsgdjPiexQixbMy2CqmXUjYErcGBazgKAbv1+SfQ+E+wTBQKIKkEq4FLoZLA2bezDfKIAmULMcHRYfdCDpeWk8Q8hpE3OOoL8A5dxxfulgH5YSJ8RwOzAKkut5ahMqf8wAm5Bn1Kes3Kn1sHBsIZ7A+RvDxWJINBTc780bhTR7Iw2I6x5ebH2NyygshMLYk6PjVr0QmB3wTI7IhKA1MHkYrgRkNVGs328muxa3xs+8xpgnbrQlnhskTwIynTX/mBPsYNzDjWwYw2XJuodugMrQPUEoNZZi+DWbX9J1u1/F26/yOpwnjCMeRAB+uNOFyk4DJVhV7PnnNyRzXQvlnQTgs4GZbLk+xBZXBw2imGW6yWDcyh2RbhkYABpFVdM6dy4/ytBypX+ZoY0hTqIofJCEP95KylUwbnXm+ifdQcQYuUJ7DQTyCdkA6Ucf4ZZBx+IoFASmScGeaRV148H1cWNFeEeMK2Q62k10Uj08I7tD+u/IOYVbWJCsGjrZgUgxaTnYhPL6wgTPdqwAmL/XfxK4k7qpmq1qbJJc3wcrtyIO0cflzXoBDYCPo2G3rm1pUtJKzbFnVtWOcmlraWd7pyRYUC/uxWdaSJg2o/lkbnedVxnX2BMx4/CgwK+RE+vmpwxHb+QUdgYO//C9bJP7iARqsJx4oZojWEjvvuTMfX054uFFjgOHUYPWMNg7zJj+0WGITb+ZYnpIyLtFWasjHrMRwC0xu4sCfoIH+yHvcJ9uiynTeLabpdRikSjlNiskBeqJy6tahFK6brbzwW83UtWmALWc+T5Pyj62gW4qWSR8wO3Iye623zCcMyrdGbC0JTAJ1dp7jUIKYwGQLap6oE+uNb9QuxXcCYadcROxTKPM1vW4ux9au302Iq9gX/EUCP2zlE/3YJJx23uv8Es4woeVs2Hpy4zAbDdWAheMbZGpgKlbiGJixu+gHqSu/QMC0goYMzYQRwHT+cKlB5sOYk+/UAUTOADkj5LGMWNTF36fkGEe0pPEuiRRKy2gphGe65u2UbBgy7vm0um7BhXJsbdh9a4xKoGoyRGMH0EjNwEi+lkHFrmChPA7T7C3IU7UzFefKEckTIJQqKXH8l9sST3RZD/wLOQE+7r7nmzm6sMMMAQndtfUgBdadX3jJRGLQkz6F8vmK2MDkpVqz6ba3KOwCw25tLz9A+24xzaIm7PhdXQJIlYay8LTyUBR3tfAgG5eReOnqgIu7aVKUZ5GZcDIWZ4mhMaScJzBJO5ENfLdGyApLBrYY7Q0YMqmjw1XxlkY3MYWoBnnxm3gLBCMyD1MKnsEmUr0pJhc3TUS4Djmt8BB8zOrytGsGZRaMRJK2xS6IW1cE5qmHf6BL0S44MIu6jfX2AVjKYsuJwTbHOjwyy8tW13inEPYFcjlJt2Kom2lNUyqZsVROm9qK4nxj+bfZ5Qs6XWoyFA2k/2EQZlZrkkp1SygS2RO1sF4Gh+URJbc8JjuKEMgNRyfaSkPhMgP5iZ6JIlPhDekof0SyNZ3og2wuofwFzwBm8edUeJf+Pj/n3WJOyteGqPNbMYxnt85xp8D5Ni68witM/hHVmCli+YJ/uJQLvlB6pxzLQkGFjjIb55uEfy5EeiU10Q7qNqDptmVGcWdqGU9/CQCE8b9j6JZgx9cnv6m3vUYqlh6E9slJOdsnSRnberhmHba9gVyOZNXcYh0TJwr015Q5K+eRlz8GYPbWMCVkxbP15FIGDuDrLRHBqS82rPLCLs7auZQx4kMdDRloRL4yigrOSmZ5GzS5AigIJ7MGiGrjolymgXLOazf4dUOWQaAcneQsY11ys8idjEnG6jHwU9DJykhXSfWAPK63M+b6OSK5op8miIsE5je/q3unuPTG21Qy4apcX9B8PrcWs08QxxsQoZgw7gAnLjcw1tTiLxd+0a1z8wfXO3URAWfuMmpYlr97AWYYowWmZZBMBmblWnGlwmmcHJ+AGRK5dpAr0clAMXBSfJtzcp/q21fe9CtyHjVU0a38TqgqkOvn9OSqneXEEPsNeJLg5Df+Duf/79VLCv1ZHMmRa12VHg6az9QBU6LSuGncyStZ+KZoC4vABCZvAuZ6JzeEbGPdTQZnfhSsdDlc6yIm2S3FjFBcMrgBZVcFULgsQWU6nOXoA0w/x0K6ybzi1cPHBq4p1cAcmW+EIut8bTg92Fg6EzAf+K4upuDbs1HAbMvVknXDUw1MiqqlGRwh3ebficQlV5u8LpDXmRCcCBOcvNl4wFsx0vhzEoh2gckWjR0aGSaI2eBwR9iJOfOnUw6xyu/yOVfXYyB3Y/ce4gMzSr4+AOwGTD+A7aMWMtV1NP3Ih1/szuLk58S3/gFdOcaYJ/gn+9L2wqJaLldEjfROJzCp6mxYqITKx6xc3bdujcC7XRxu23j/dYw/X8JY9G1sBMEfgM+TI6zJ7fFjhWXAZP4JaCW9Iq2MHuc3eDL9cZn3kGa6kxapgdlXTm8ekWi9mI/DdFUXJOhZRne+dBP+ANVDP2iWcHKVJ1b15qdi4PJV9FBwSoEJOSvju12gMrRvkDcCY/zJk5geewqcAK52x/OtRqcVHap7J0JKzsq2GdosJaCU2v6MbLHakp+tb1jS8fwOGpgAULwZw18l5onVEw9+DwC9RxMfXVFeifNHD0x3Ka5XACdCet+LmfsO77TEvZXcNrepuyxx6Sp2LfHqQF66wD91rFZUs/hkwsqSJeCsNMc5TK6OU+ttoeiCXkUyUnOBMnPrd/1KHm3qZD7yNZ2hEh6SVAl+wKvooWDdYipDQZPtJddo+eUOLG4lPII/IHb8a3/TLFx7h8Ba7siq69knt/NNbYtZC26BswbdosJlC0lwcv1TV1UTmFha4t8udyvKu3n4hkmtKIDq8Sif+PpDTJFfydOGqOUaUVzkdmuZSjoln1qWvrClLul08hYgKuMnBSafNj1b1AMJDNGLeL75msfVkFzD5OUTR+96sJm/4obIX5Sp69gnt/NNDTCtvD6B6/i2QeL4kwvzAB3XP7lrhseGNRZlS5pAyokS9h1yR5MvKW3Y1RNZFboETNkiuAQos4TwGBZDRZ1pyOVGZX7qegxlnDDCEsil/AZB6R9Fq1WcUvvkaWuObKad6aVUxM9ibLmAy86O3/3tuBUFR1i4Gdvy5SJ79EwVMLOSoNzdKtbqdzinN8LqFSeWmdit6/CbWtBPtPzEeyEH62xFeW01AKrdNfFWCUiPe9Yhh14pZpfabVdKg3MtybA8sgmMqJIETvrIl+rqlsJpu7ks6/KpSSupwt/K1aE1MhqURIxO+JlNWbVdjhRSBsTy73zqT3rjzc4cunGe5z9290P6e/M848+TAtmWHeaTB6YGmK6IXBqL65jQRTysUAY9EYjaJQPboC6fEqFHFOb7d45F053pvCZR41KczuRfSuMCPseh3N20dZaz+jh4pT+lgtaUW+9mtP2O514MWhss5BHYZMHWdKPVH5nCvPiN/9nco8uMjw1aRZ4kRxEz1qvO2LKTWNK7dAe/dlXxikcm6dY3ZEILyTNU89zljyt5eDf+Iv6iHU+h8g+I6VgKN1SnT9cuNGHSQ7Kf89XuVAKTlcm7iVARViYqVGg+VWxkRZFNSi9rS4WQLrt9AJS7mdilDwMT6QQjvwmcvl2XLamRlPlK0UnZJb8hv2UPOOkXP3QjZqjA5BEmPXkJ5ZToRcta6l2TH+qdwKScnkCiBeX5KB7sWyAweXYKF5zF3/4c3rTxJwVMas0VsvLsSqMEmDz9PwIz6dRZCOj0VonKbidE6M7ZKsgKkSdajtinKH9OI9EhyiNiauZVOJEYplTl2y24X2BWdDtyMAC6egDhV0PB/AIrNklz0zQW0Nlt6wyVD+5VNB1s7RnCOux0P+g5jAwdeZzwebsWw6751wI7vs7neLt95brxbJld/VBYN93UWlf5VSaVy+XbPH/UvmgBhqvgeipdiFWe3fRlQtaz8zvsdMfnMDLYMo77XN2DZt9HzxW321bS1Q9gtvFjfBdWZWME+xyT+gB8QCJc8DFmH5DOp341zRKMpf98eByW/Ww1cMGB6eqNA5PzTOoeJK1JeR7mO1gN/EkC82BVdEjtQmhgaoB5ISp/yHN6NXAIzOm1zUUt2SEwL2rzT2/lD4E5vba5qCU7BOZFbf7prfwhMKfXNhe1ZIfAvKjNP72VPwTm9NrmopbsEJgXtfmnt/KHwJxe21zUkh0C86I2//RW/hCY02ubi1qyQ2Be1Oaf3sofAnN6bXNRS3YIzIva/NNb+UNgTq9tLmrJ/h/8ZewinDm/9QAAAABJRU5ErkJggg==;" parent="1" vertex="1">
          <mxGeometry x="673.14" y="470" width="70.86" height="70" as="geometry" />
        </mxCell>
        <mxCell id="DjmhpiTltckPPBlG-SaG-141" value="" style="dashed=0;outlineConnect=0;html=1;align=center;labelPosition=center;verticalLabelPosition=bottom;verticalAlign=top;shape=mxgraph.weblogos.android;fillColor=#A4CA39;strokeColor=none" parent="1" vertex="1">
          <mxGeometry x="848.83" y="957" width="67.60000000000001" height="80" as="geometry" />
        </mxCell>
        <mxCell id="DjmhpiTltckPPBlG-SaG-142" value="" style="dashed=0;outlineConnect=0;html=1;align=center;labelPosition=center;verticalLabelPosition=bottom;verticalAlign=top;shape=mxgraph.weblogos.apple;fillColor=#1B1C1C;strokeColor=none" parent="1" vertex="1">
          <mxGeometry x="1240" y="963.8" width="62.400000000000006" height="76.2" as="geometry" />
        </mxCell>
        <mxCell id="DjmhpiTltckPPBlG-SaG-143" value="" style="dashed=0;outlineConnect=0;html=1;align=center;labelPosition=center;verticalLabelPosition=bottom;verticalAlign=top;shape=mxgraph.weblogos.android;fillColor=#A4CA39;strokeColor=none" parent="1" vertex="1">
          <mxGeometry x="1430" y="1421.33" width="27.6" height="40" as="geometry" />
        </mxCell>
        <mxCell id="DjmhpiTltckPPBlG-SaG-145" value="" style="image;aspect=fixed;html=1;points=[];align=center;fontSize=12;image=img/lib/azure2/compute/Azure_Spring_Cloud.svg;" parent="1" vertex="1">
          <mxGeometry x="1750" y="424" width="42" height="42" as="geometry" />
        </mxCell>
        <mxCell id="DjmhpiTltckPPBlG-SaG-146" value="" style="image;aspect=fixed;html=1;points=[];align=center;fontSize=12;image=img/lib/azure2/compute/Azure_Spring_Cloud.svg;" parent="1" vertex="1">
          <mxGeometry x="250" y="445" width="60" height="60" as="geometry" />
        </mxCell>
        <mxCell id="DjmhpiTltckPPBlG-SaG-149" value="&lt;h1 style=&quot;font-size: 23px;&quot;&gt;Storage&lt;/h1&gt;&lt;p&gt;&lt;/p&gt;" style="text;html=1;strokeColor=#36393d;fillColor=#ffcc99;spacing=5;spacingTop=-20;whiteSpace=wrap;overflow=hidden;rounded=0;" parent="1" vertex="1">
          <mxGeometry x="2440" y="820" width="240" height="400" as="geometry" />
        </mxCell>
        <mxCell id="DjmhpiTltckPPBlG-SaG-150" value="" style="image;html=1;image=img/lib/clip_art/general/Full_Folder_128x128.png" parent="1" vertex="1">
          <mxGeometry x="2450" y="881" width="80" height="80" as="geometry" />
        </mxCell>
        <mxCell id="DjmhpiTltckPPBlG-SaG-151" value="&lt;font style=&quot;font-size: 18px;&quot;&gt;Verifiable Credentials&lt;/font&gt;" style="text;html=1;strokeColor=none;fillColor=none;align=center;verticalAlign=middle;whiteSpace=wrap;rounded=0;" parent="1" vertex="1">
          <mxGeometry x="2560" y="905" width="60" height="32" as="geometry" />
        </mxCell>
        <mxCell id="DjmhpiTltckPPBlG-SaG-152" value="" style="image;aspect=fixed;perimeter=ellipsePerimeter;html=1;align=center;shadow=0;dashed=0;spacingTop=3;image=img/lib/active_directory/databases.svg;" parent="1" vertex="1">
          <mxGeometry x="2470" y="1051" width="50" height="49" as="geometry" />
        </mxCell>
        <mxCell id="DjmhpiTltckPPBlG-SaG-153" value="&lt;font style=&quot;font-size: 18px;&quot;&gt;MMKV storage&lt;/font&gt;" style="text;html=1;strokeColor=none;fillColor=none;align=center;verticalAlign=middle;whiteSpace=wrap;rounded=0;" parent="1" vertex="1">
          <mxGeometry x="2570" y="1060.5" width="60" height="30" as="geometry" />
        </mxCell>
        <mxCell id="DjmhpiTltckPPBlG-SaG-157" value="" style="endArrow=classic;html=1;rounded=0;entryX=0.496;entryY=-0.314;entryDx=0;entryDy=0;entryPerimeter=0;" parent="1" target="DjmhpiTltckPPBlG-SaG-114" edge="1">
          <mxGeometry width="50" height="50" relative="1" as="geometry">
            <mxPoint x="329" y="1050" as="sourcePoint" />
            <mxPoint x="300" y="1270" as="targetPoint" />
          </mxGeometry>
        </mxCell>
        <mxCell id="DjmhpiTltckPPBlG-SaG-158" value="Login to eSignet portal&lt;br style=&quot;border-color: var(--border-color); font-size: 18px;&quot;&gt;&lt;span style=&quot;font-size: 18px;&quot;&gt;via face authentication&lt;/span&gt;" style="edgeLabel;html=1;align=center;verticalAlign=middle;resizable=0;points=[];fontSize=18;" parent="DjmhpiTltckPPBlG-SaG-157" vertex="1" connectable="0">
          <mxGeometry x="-0.0329" y="4" relative="1" as="geometry">
            <mxPoint x="36" y="7" as="offset" />
          </mxGeometry>
        </mxCell>
        <mxCell id="DjmhpiTltckPPBlG-SaG-163" value="" style="endArrow=classic;html=1;rounded=0;exitX=1;exitY=0.5;exitDx=0;exitDy=0;entryX=-0.002;entryY=0.428;entryDx=0;entryDy=0;entryPerimeter=0;" parent="1" source="DjmhpiTltckPPBlG-SaG-2" target="DjmhpiTltckPPBlG-SaG-57" edge="1">
          <mxGeometry width="50" height="50" relative="1" as="geometry">
            <mxPoint x="60" y="920" as="sourcePoint" />
            <mxPoint x="110" y="870" as="targetPoint" />
          </mxGeometry>
        </mxCell>
        <mxCell id="XEJog5B7oYsE2bNREp_2-1" value="" style="endArrow=classic;html=1;rounded=0;" parent="1" edge="1">
          <mxGeometry width="50" height="50" relative="1" as="geometry">
            <mxPoint y="570" as="sourcePoint" />
            <mxPoint y="760" as="targetPoint" />
          </mxGeometry>
        </mxCell>
        <mxCell id="XEJog5B7oYsE2bNREp_2-8" value="OTP received" style="edgeLabel;html=1;align=center;verticalAlign=middle;resizable=0;points=[];fontSize=19;" parent="XEJog5B7oYsE2bNREp_2-1" vertex="1" connectable="0">
          <mxGeometry x="0.6175" y="-4" relative="1" as="geometry">
            <mxPoint as="offset" />
          </mxGeometry>
        </mxCell>
        <mxCell id="XEJog5B7oYsE2bNREp_2-6" value="" style="endArrow=classic;html=1;rounded=0;entryX=0.099;entryY=1.015;entryDx=0;entryDy=0;entryPerimeter=0;" parent="1" edge="1">
          <mxGeometry x="1" y="-534" width="50" height="50" relative="1" as="geometry">
            <mxPoint x="79.25999999999999" y="758" as="sourcePoint" />
            <mxPoint x="77.25999999999999" y="570" as="targetPoint" />
            <mxPoint x="-92" y="-300" as="offset" />
          </mxGeometry>
        </mxCell>
        <mxCell id="XEJog5B7oYsE2bNREp_2-9" value="Initiate download&lt;br style=&quot;font-size: 18px;&quot;&gt;request" style="edgeLabel;html=1;align=center;verticalAlign=middle;resizable=0;points=[];fontSize=18;" parent="XEJog5B7oYsE2bNREp_2-6" vertex="1" connectable="0">
          <mxGeometry x="0.5885" y="-1" relative="1" as="geometry">
            <mxPoint y="1" as="offset" />
          </mxGeometry>
        </mxCell>
        <mxCell id="XEJog5B7oYsE2bNREp_2-48" value="&lt;font style=&quot;font-size: 20px;&quot;&gt;Face Authentication&lt;br&gt;&lt;br&gt;&lt;br&gt;&lt;/font&gt;" style="rounded=0;whiteSpace=wrap;html=1;align=center;fillColor=#DAE8FC;" parent="1" vertex="1">
          <mxGeometry x="764.5600000000001" y="1301.33" width="200" height="120" as="geometry" />
        </mxCell>
        <mxCell id="XEJog5B7oYsE2bNREp_2-49" value="" style="endArrow=classic;html=1;rounded=0;entryX=0.5;entryY=0;entryDx=0;entryDy=0;" parent="1" target="XEJog5B7oYsE2bNREp_2-48" edge="1">
          <mxGeometry width="50" height="50" relative="1" as="geometry">
            <mxPoint x="865" y="1050" as="sourcePoint" />
            <mxPoint x="630" y="1260" as="targetPoint" />
          </mxGeometry>
        </mxCell>
        <mxCell id="XEJog5B7oYsE2bNREp_2-51" value="Using face auth for QR login&lt;br&gt;&amp;amp; VC share" style="edgeLabel;html=1;align=center;verticalAlign=middle;resizable=0;points=[];fontSize=19;" parent="XEJog5B7oYsE2bNREp_2-49" vertex="1" connectable="0">
          <mxGeometry x="-0.403" y="1" relative="1" as="geometry">
            <mxPoint x="-1" y="37" as="offset" />
          </mxGeometry>
        </mxCell>
        <mxCell id="XEJog5B7oYsE2bNREp_2-59" value="" style="rounded=0;whiteSpace=wrap;html=1;fontSize=13;fillColor=#fff2cc;strokeColor=#d6b656;" parent="1" vertex="1">
          <mxGeometry x="554.73" y="-140" width="630" height="564" as="geometry" />
        </mxCell>
        <mxCell id="XEJog5B7oYsE2bNREp_2-61" value="Download via eSignet" style="text;html=1;strokeColor=none;fillColor=none;align=center;verticalAlign=middle;whiteSpace=wrap;rounded=0;fontSize=23;fontStyle=1" parent="1" vertex="1">
          <mxGeometry x="770" y="-130" width="260" height="30" as="geometry" />
        </mxCell>
        <mxCell id="XEJog5B7oYsE2bNREp_2-63" value="INJI" style="rounded=0;whiteSpace=wrap;html=1;fontSize=25;" parent="1" vertex="1">
          <mxGeometry x="760" y="314" width="330" height="60" as="geometry" />
        </mxCell>
        <mxCell id="XEJog5B7oYsE2bNREp_2-64" value="eSignet UI" style="rounded=0;whiteSpace=wrap;html=1;fontSize=25;" parent="1" vertex="1">
          <mxGeometry x="632" y="50" width="128" height="60" as="geometry" />
        </mxCell>
        <mxCell id="XEJog5B7oYsE2bNREp_2-65" value="Mimoto" style="rounded=0;whiteSpace=wrap;html=1;fontSize=25;" parent="1" vertex="1">
          <mxGeometry x="806.73" y="50" width="128" height="60" as="geometry" />
        </mxCell>
        <mxCell id="XEJog5B7oYsE2bNREp_2-66" value="eSignet Backend Service" style="rounded=0;whiteSpace=wrap;html=1;fontSize=20;" parent="1" vertex="1">
          <mxGeometry x="1037" y="54" width="133" height="66" as="geometry" />
        </mxCell>
        <mxCell id="XEJog5B7oYsE2bNREp_2-70" value="" style="endArrow=none;html=1;rounded=0;entryX=0;entryY=0.5;entryDx=0;entryDy=0;" parent="1" target="XEJog5B7oYsE2bNREp_2-63" edge="1">
          <mxGeometry width="50" height="50" relative="1" as="geometry">
            <mxPoint x="660" y="344" as="sourcePoint" />
            <mxPoint x="720" y="284" as="targetPoint" />
          </mxGeometry>
        </mxCell>
        <mxCell id="XEJog5B7oYsE2bNREp_2-71" value="" style="endArrow=classic;html=1;rounded=0;entryX=0.398;entryY=0.983;entryDx=0;entryDy=0;entryPerimeter=0;" parent="1" edge="1">
          <mxGeometry width="50" height="50" relative="1" as="geometry">
            <mxPoint x="660.63" y="344" as="sourcePoint" />
            <mxPoint x="660.574" y="108.98000000000002" as="targetPoint" />
          </mxGeometry>
        </mxCell>
        <mxCell id="XEJog5B7oYsE2bNREp_2-72" value="Authentication" style="edgeLabel;html=1;align=center;verticalAlign=middle;resizable=0;points=[];fontSize=16;" parent="XEJog5B7oYsE2bNREp_2-71" vertex="1" connectable="0">
          <mxGeometry x="0.3088" relative="1" as="geometry">
            <mxPoint x="-23" y="6" as="offset" />
          </mxGeometry>
        </mxCell>
        <mxCell id="XEJog5B7oYsE2bNREp_2-74" value="" style="endArrow=classic;html=1;rounded=0;exitX=0.898;exitY=1.092;exitDx=0;exitDy=0;entryX=0.07;entryY=0.003;entryDx=0;entryDy=0;entryPerimeter=0;exitPerimeter=0;" parent="1" edge="1">
          <mxGeometry width="50" height="50" relative="1" as="geometry">
            <mxPoint x="745.944" y="115.51999999999998" as="sourcePoint" />
            <mxPoint x="782.0999999999999" y="314.18000000000006" as="targetPoint" />
          </mxGeometry>
        </mxCell>
        <mxCell id="XEJog5B7oYsE2bNREp_2-75" value="auth code" style="edgeLabel;html=1;align=center;verticalAlign=middle;resizable=0;points=[];fontSize=17;" parent="XEJog5B7oYsE2bNREp_2-74" vertex="1" connectable="0">
          <mxGeometry x="-0.0564" y="-3" relative="1" as="geometry">
            <mxPoint y="1" as="offset" />
          </mxGeometry>
        </mxCell>
        <mxCell id="XEJog5B7oYsE2bNREp_2-79" value="" style="endArrow=classic;html=1;rounded=0;entryX=0;entryY=0.25;entryDx=0;entryDy=0;" parent="1" target="XEJog5B7oYsE2bNREp_2-66" edge="1">
          <mxGeometry width="50" height="50" relative="1" as="geometry">
            <mxPoint x="940" y="71" as="sourcePoint" />
            <mxPoint x="990" y="54" as="targetPoint" />
          </mxGeometry>
        </mxCell>
        <mxCell id="XEJog5B7oYsE2bNREp_2-82" value="" style="endArrow=classic;html=1;rounded=0;exitX=0;exitY=0.616;exitDx=0;exitDy=0;exitPerimeter=0;entryX=1;entryY=0.75;entryDx=0;entryDy=0;" parent="1" source="XEJog5B7oYsE2bNREp_2-66" edge="1" target="XEJog5B7oYsE2bNREp_2-65">
          <mxGeometry width="50" height="50" relative="1" as="geometry">
            <mxPoint x="1040" y="254" as="sourcePoint" />
            <mxPoint x="940" y="100" as="targetPoint" />
          </mxGeometry>
        </mxCell>
        <mxCell id="XEJog5B7oYsE2bNREp_2-84" value="" style="endArrow=classic;html=1;rounded=0;exitX=0.75;exitY=1;exitDx=0;exitDy=0;entryX=0.427;entryY=0.037;entryDx=0;entryDy=0;entryPerimeter=0;" parent="1" source="XEJog5B7oYsE2bNREp_2-65" target="XEJog5B7oYsE2bNREp_2-63" edge="1">
          <mxGeometry width="50" height="50" relative="1" as="geometry">
            <mxPoint x="899.9999999999998" y="153.9999999999998" as="sourcePoint" />
            <mxPoint x="884.3652848046802" y="267.78" as="targetPoint" />
          </mxGeometry>
        </mxCell>
        <mxCell id="XEJog5B7oYsE2bNREp_2-85" value="Token Response" style="edgeLabel;html=1;align=center;verticalAlign=middle;resizable=0;points=[];fontSize=15;" parent="XEJog5B7oYsE2bNREp_2-84" vertex="1" connectable="0">
          <mxGeometry x="0.0632" y="7" relative="1" as="geometry">
            <mxPoint as="offset" />
          </mxGeometry>
        </mxCell>
        <mxCell id="XEJog5B7oYsE2bNREp_2-88" value="" style="rounded=0;whiteSpace=wrap;html=1;fontSize=13;fillColor=#fff2cc;strokeColor=#d6b656;" parent="1" vertex="1">
          <mxGeometry x="-182.74" y="-140" width="630" height="564" as="geometry" />
        </mxCell>
        <mxCell id="XEJog5B7oYsE2bNREp_2-89" value="Download via OTP" style="text;html=1;strokeColor=none;fillColor=none;align=center;verticalAlign=middle;whiteSpace=wrap;rounded=0;fontSize=23;fontStyle=1" parent="1" vertex="1">
          <mxGeometry x="-22.74000000000001" y="-130" width="260" height="30" as="geometry" />
        </mxCell>
        <mxCell id="XEJog5B7oYsE2bNREp_2-90" value="&lt;font style=&quot;font-size: 20px;&quot;&gt;IDA Authentication Service&lt;/font&gt;" style="rounded=0;whiteSpace=wrap;html=1;align=center;" parent="1" vertex="1">
          <mxGeometry x="4.519999999999982" y="-26" width="212.74" height="80" as="geometry" />
        </mxCell>
        <mxCell id="XEJog5B7oYsE2bNREp_2-91" value="&lt;font style=&quot;font-size: 20px;&quot;&gt;Resident Service&lt;/font&gt;" style="rounded=0;whiteSpace=wrap;html=1;align=center;" parent="1" vertex="1">
          <mxGeometry x="-152.74" y="134" width="212.74" height="76" as="geometry" />
        </mxCell>
        <mxCell id="XEJog5B7oYsE2bNREp_2-92" value="&lt;font style=&quot;font-size: 20px;&quot;&gt;Credential Service&lt;/font&gt;" style="rounded=0;whiteSpace=wrap;html=1;align=center;" parent="1" vertex="1">
          <mxGeometry x="187.26" y="132" width="212.74" height="78" as="geometry" />
        </mxCell>
        <mxCell id="XEJog5B7oYsE2bNREp_2-93" value="MIMOTO" style="rounded=0;whiteSpace=wrap;html=1;fontSize=25;" parent="1" vertex="1">
          <mxGeometry x="-32.74000000000001" y="324" width="330" height="60" as="geometry" />
        </mxCell>
        <mxCell id="XEJog5B7oYsE2bNREp_2-94" value="" style="endArrow=classic;startArrow=classic;html=1;rounded=0;entryX=0;entryY=0.5;entryDx=0;entryDy=0;" parent="1" target="XEJog5B7oYsE2bNREp_2-92" edge="1">
          <mxGeometry width="50" height="50" relative="1" as="geometry">
            <mxPoint x="57.25999999999999" y="171" as="sourcePoint" />
            <mxPoint x="117.25999999999999" y="120" as="targetPoint" />
          </mxGeometry>
        </mxCell>
        <mxCell id="XEJog5B7oYsE2bNREp_2-95" value="" style="endArrow=classic;startArrow=classic;html=1;rounded=0;entryX=0.25;entryY=1;entryDx=0;entryDy=0;exitX=0.5;exitY=0;exitDx=0;exitDy=0;" parent="1" source="XEJog5B7oYsE2bNREp_2-91" target="XEJog5B7oYsE2bNREp_2-90" edge="1">
          <mxGeometry width="50" height="50" relative="1" as="geometry">
            <mxPoint x="67.25999999999999" y="181" as="sourcePoint" />
            <mxPoint x="197.26" y="181" as="targetPoint" />
          </mxGeometry>
        </mxCell>
        <mxCell id="XEJog5B7oYsE2bNREp_2-96" value="" style="endArrow=classic;startArrow=classic;html=1;rounded=0;entryX=0.75;entryY=1;entryDx=0;entryDy=0;exitX=0.5;exitY=0;exitDx=0;exitDy=0;" parent="1" source="XEJog5B7oYsE2bNREp_2-92" target="XEJog5B7oYsE2bNREp_2-90" edge="1">
          <mxGeometry width="50" height="50" relative="1" as="geometry">
            <mxPoint x="15.259999999999991" y="134" as="sourcePoint" />
            <mxPoint x="131.26" as="targetPoint" />
          </mxGeometry>
        </mxCell>
        <mxCell id="XEJog5B7oYsE2bNREp_2-98" style="edgeStyle=orthogonalEdgeStyle;rounded=0;orthogonalLoop=1;jettySize=auto;html=1;exitX=0.25;exitY=0;exitDx=0;exitDy=0;" parent="1" source="XEJog5B7oYsE2bNREp_2-93" edge="1">
          <mxGeometry relative="1" as="geometry">
            <mxPoint x="-47.799999999999955" y="415" as="sourcePoint" />
            <mxPoint x="-47.65714285714262" y="210" as="targetPoint" />
          </mxGeometry>
        </mxCell>
        <mxCell id="XEJog5B7oYsE2bNREp_2-99" value="Download request&lt;br style=&quot;border-color: var(--border-color); font-size: 18px; background-color: rgb(251, 251, 251);&quot;&gt;&lt;span style=&quot;font-size: 18px;&quot;&gt;is sent&lt;/span&gt;" style="edgeLabel;html=1;align=center;verticalAlign=middle;resizable=0;points=[];fontSize=18;" parent="XEJog5B7oYsE2bNREp_2-98" vertex="1" connectable="0">
          <mxGeometry x="0.4602" y="3" relative="1" as="geometry">
            <mxPoint as="offset" />
          </mxGeometry>
        </mxCell>
        <mxCell id="XEJog5B7oYsE2bNREp_2-100" style="edgeStyle=orthogonalEdgeStyle;rounded=0;orthogonalLoop=1;jettySize=auto;html=1;exitX=0.5;exitY=1;exitDx=0;exitDy=0;entryX=0.573;entryY=0.039;entryDx=0;entryDy=0;entryPerimeter=0;" parent="1" source="XEJog5B7oYsE2bNREp_2-92" edge="1" target="XEJog5B7oYsE2bNREp_2-93">
          <mxGeometry relative="1" as="geometry">
            <mxPoint x="344" y="258.5" as="sourcePoint" />
            <mxPoint x="157" y="320" as="targetPoint" />
          </mxGeometry>
        </mxCell>
        <mxCell id="XEJog5B7oYsE2bNREp_2-101" value="Credential issued&lt;br style=&quot;border-color: var(--border-color); font-size: 19px; background-color: rgb(251, 251, 251);&quot;&gt;&lt;span style=&quot;border-color: var(--border-color); font-size: 19px; background-color: rgb(251, 251, 251);&quot;&gt;is sent via websub&lt;/span&gt;" style="edgeLabel;html=1;align=center;verticalAlign=middle;resizable=0;points=[];fontSize=19;" parent="XEJog5B7oYsE2bNREp_2-100" vertex="1" connectable="0">
          <mxGeometry x="-0.7025" y="4" relative="1" as="geometry">
            <mxPoint y="-1" as="offset" />
          </mxGeometry>
        </mxCell>
        <mxCell id="XEJog5B7oYsE2bNREp_2-105" value="" style="shape=image;verticalLabelPosition=bottom;labelBackgroundColor=default;verticalAlign=top;aspect=fixed;imageAspect=0;image=data:image/png,iVBORw0KGgoAAAANSUhEUgAAAFwAAABcCAMAAADUMSJqAAAA4VBMVEX///9cx/4KMY8adsL+/v5dyf4adsQKMY3+/vwad8AAZboAKo0ALo5Vxv4AbL4AAH4AGocTcL4AFYSBz/hsyPjN7fmM1Pf3/f1Msetgzf8AJYwAIIjq7PLq8fj5+v0ADYbCxtzj8/m74/qh3fah2fqs3PfY8flTufLZ6fIok9gohs06mddAhMNxnsy70uNHqORjl8ttrtnL2+mnxN6CrNKRtta96PhOndSus8sTRZprdasbN4kqXKHO0+JUjcdl1P+WnL98hbJiaaIfT5w1aqxFV5pojL81Q5MNO5U8TZWGj7SCdu6oAAAFWElEQVRoge2YWXuiSBiF2RUoUNCIgFsWl06rnTGmY5IxHdOxNf7/HzRVIFhAVQFmbuZ55twkF8nL8XxLFXLc/zpflxdX161GoNb11ejy3+JKo2FDNgLJUHzwS7N19fUHOBctPoQmhR7RHI6+gu7eQAhPFeRfVc9EjxosMhL8APLQOQN92cpDH+3Lw7Jo57oYOsRflGKPmoZclM3LstEqkc0NtC2XoPOGW9S80zBKkKNsiiV/yaO+LgvnjVaBrhwVr2SK3sgN/gKlnZjF4vRmDn1k8AY/HrehxmNedkvlk0OffLtVRdE6SlVvv7f5X8U/gtFg5N61TEVRIF5RRCRFsSxT/N523YL5GC06fBoyY3j0BPXb2C2WD70jZ6ZIliJat+1i2RiUaZqbiqiGmaAfaak/CpXXJRa1K0KiGvgky1LH+XCZHPudqUDDUSWJ6Wh/NXMnTCYFs9CUAK6IKgWuWPec08qjy3Iz24/TEEh1rpjTCSdVuZ95p5Oc7Zi5GTPJmZivDidBcaPcssrpmqqJTLLdoi25gA3pTjOHnrY+11Cn0OHmA1ethnCp6uSdU3Iy9Sml/SLf95CN0Rvs4I2fOHtCm82j7yUsJQaHybDpTRy+tJjsWZR3JM5h52LgdzGVNpVI1muaDemXzNjxkk40lnG1m2FDOrPf3Vcphj+wUjEXXDULl+D9gwGvdU69woDDYlZJcIkRu/xYW0XsrsWIXJUIoQQ9c0G17j55z/HOMulwbU4MJWhI2hKTf/jgJYLf0+HWHcV32DEU43/rwI9Cn9Fj0SY044g+JMYut30g2Osj/JUKt2Z041JVcojWfz0BQagfKypNyUsWypww4BA/zNJl99GrVAT/LYT3KBsc7sc7Rigoly4hFL4CJeibI9ykwbUF0zixYWA1BQQ/9mJXo8AVlW0cHUtpuPvoCwH8PQdOHU7Mu5sKZeyBgvBJLpy7Tm5Hdw/ZSHlwZYodEPRccLj7W0fVxOA9CpzZ5JEc/C7gfughGoNblMvEvACca+BsT4gUdYukki9YGumQyMDjOZLdD78Sw71DtM4pzvMaMYDHixc2+Ikt+NFCvyPuFuWVyy8oPKrDisrNnS5gsgfRKUdcudayCFziArjbrgCcLdSjrTgnw++LwZsobrUuVBJwvRcdc0S4ST2DkvAGtP0UzDyGB1v2tUUjn/oZ+M34ow6Cmcfw0cYNjiKSc1TvXDTX+6MnKhmqv47hc+JV0dutekw8/M/OwfezaBj56YruEOF7YFc2C47iH4324N32AZEd3yxouaAF59d3h/XRxYkadMHqWbf1CgmNdTk1l31QJeD1+++H1boT9ZbU7axXm12trhNNB70i9DC4RHr53EctAB9Qr3svu8/tdvu5exF8u+4RinhSvFjoQ/qUcAaQdF0HgGo4FnYNDUqqZeDqUz6FrEQ5kZbZ1LVz4fVOCt7N9ovJzLWEcZR6Gm6dCa91M3Au2y7nsetvWTb6ZiFdUcqIMAV2PQI8O6ZnVbS2JrG5avqgts6A2wciG71HJ+HqvjTb21LY8P0l9T5aeowAIAYe6iFZ1LLNCDLjk1BqUPflrPfJxcTouPdS/QL6AzYb0bEvcpQynW7n+A5zx5b778LWdXuRz07dkYpa9z+ZtTxposaXR7Wg9f6mGBqqOtNKWff0QWE21EKNsslvGFB7LhhJrAfROu5GNh3YnwW6JK3u0gzds4IB/ZdVPoqIfxBNi7EcgW9vB+ehkaT5nWmKGmnFAK+2P5wRSELOfKbubR9dWCKsDu9I/ufbV8lHTQZvz9sXr1+D6uu7981qzVit56jX6wTqSfl/+5/XP/csj+aONPjuAAAAAElFTkSuQmCC;" parent="1" vertex="1">
          <mxGeometry x="839.5600000000001" y="1360.28" width="50" height="50" as="geometry" />
        </mxCell>
        <mxCell id="XEJog5B7oYsE2bNREp_2-107" value="&lt;h1 style=&quot;font-size: 18px;&quot;&gt;Steps for face auth&lt;/h1&gt;&lt;p style=&quot;font-size: 18px;&quot;&gt;&lt;/p&gt;&lt;ol style=&quot;font-size: 15px;&quot;&gt;&lt;li&gt;&lt;span style=&quot;background-color: initial;&quot;&gt;face sdk model is downloaded at start of app&lt;/span&gt;&lt;/li&gt;&lt;li&gt;Sdk caches the response&lt;/li&gt;&lt;li&gt;Face auth will work in offline mode too as response is cached&lt;/li&gt;&lt;/ol&gt;&lt;p&gt;&lt;/p&gt;" style="text;html=1;strokeColor=#6c8ebf;fillColor=#FFF2CC;spacing=5;spacingTop=-20;whiteSpace=wrap;overflow=hidden;rounded=0;" parent="1" vertex="1">
          <mxGeometry x="744" y="1446.33" width="277.26" height="151" as="geometry" />
        </mxCell>
        <mxCell id="XEJog5B7oYsE2bNREp_2-109" value="" style="endArrow=classic;html=1;rounded=0;exitX=0.25;exitY=0;exitDx=0;exitDy=0;entryX=0.25;entryY=1;entryDx=0;entryDy=0;" parent="1" source="XEJog5B7oYsE2bNREp_2-63" target="XEJog5B7oYsE2bNREp_2-65" edge="1">
          <mxGeometry width="50" height="50" relative="1" as="geometry">
            <mxPoint x="1290" y="490" as="sourcePoint" />
            <mxPoint x="843" y="150" as="targetPoint" />
            <Array as="points" />
          </mxGeometry>
        </mxCell>
        <mxCell id="XEJog5B7oYsE2bNREp_2-110" value="getToken with &lt;br&gt;authcode&lt;br&gt;&amp;nbsp;using PKCE" style="edgeLabel;html=1;align=center;verticalAlign=middle;resizable=0;points=[];fontSize=15;" parent="XEJog5B7oYsE2bNREp_2-109" vertex="1" connectable="0">
          <mxGeometry x="0.549" y="-7" relative="1" as="geometry">
            <mxPoint x="-23" y="14" as="offset" />
          </mxGeometry>
        </mxCell>
        <mxCell id="XEJog5B7oYsE2bNREp_2-115" value="getToken" style="edgeLabel;html=1;align=center;verticalAlign=middle;resizable=0;points=[];fontSize=17;" parent="1" vertex="1" connectable="0">
          <mxGeometry x="979.9975910807251" y="53.99793008863381" as="geometry" />
        </mxCell>
        <mxCell id="XEJog5B7oYsE2bNREp_2-116" value="Token&lt;br&gt;Response" style="edgeLabel;html=1;align=center;verticalAlign=middle;resizable=0;points=[];fontSize=17;" parent="1" vertex="1" connectable="0">
          <mxGeometry x="998.797591080725" y="69.99793008863381" as="geometry">
            <mxPoint x="-17" y="57" as="offset" />
          </mxGeometry>
        </mxCell>
        <mxCell id="Jmg0_e9luoGGfo4aPpGI-1" value="File storage" style="text;html=1;strokeColor=none;fillColor=none;align=center;verticalAlign=middle;whiteSpace=wrap;rounded=0;fontSize=14;" parent="1" vertex="1">
          <mxGeometry x="2460" y="957" width="60" height="30" as="geometry" />
        </mxCell>
        <mxCell id="G6Lhowh1Pa0SqgQ5u8BN-3" value="&lt;font style=&quot;font-size: 20px;&quot;&gt;Secure Hardware &lt;br&gt;Keystore&lt;br&gt;&lt;br&gt;&lt;br&gt;&lt;/font&gt;" style="rounded=0;whiteSpace=wrap;html=1;align=center;fillColor=#DAE8FC;" parent="1" vertex="1">
          <mxGeometry x="1660" y="1350.28" width="170" height="129.72" as="geometry" />
        </mxCell>
        <mxCell id="G6Lhowh1Pa0SqgQ5u8BN-6" value="" style="endArrow=classic;startArrow=classic;html=1;rounded=0;" parent="1" edge="1">
          <mxGeometry width="50" height="50" relative="1" as="geometry">
            <mxPoint x="1760" y="1350" as="sourcePoint" />
            <mxPoint x="1760" y="1050" as="targetPoint" />
          </mxGeometry>
        </mxCell>
        <mxCell id="G6Lhowh1Pa0SqgQ5u8BN-10" value="&lt;font style=&quot;font-size: 18px;&quot;&gt;Generate and store&lt;br&gt;keys&lt;/font&gt;" style="edgeLabel;html=1;align=center;verticalAlign=middle;resizable=0;points=[];" parent="G6Lhowh1Pa0SqgQ5u8BN-6" vertex="1" connectable="0">
          <mxGeometry y="-5" relative="1" as="geometry">
            <mxPoint y="1" as="offset" />
          </mxGeometry>
        </mxCell>
        <mxCell id="G6Lhowh1Pa0SqgQ5u8BN-7" value="" style="dashed=0;outlineConnect=0;html=1;align=center;labelPosition=center;verticalLabelPosition=bottom;verticalAlign=top;shape=mxgraph.weblogos.android;fillColor=#A4CA39;strokeColor=none" parent="1" vertex="1">
          <mxGeometry x="1740" y="1421.33" width="27.6" height="40" as="geometry" />
        </mxCell>
        <mxCell id="G6Lhowh1Pa0SqgQ5u8BN-11" value="" style="rounded=0;whiteSpace=wrap;html=1;fontSize=13;fillColor=#fff2cc;strokeColor=#d6b656;" parent="1" vertex="1">
          <mxGeometry x="1260" y="1500" width="240" height="160" as="geometry" />
        </mxCell>
        <mxCell id="G6Lhowh1Pa0SqgQ5u8BN-12" value="Tuvali" style="text;html=1;strokeColor=none;fillColor=none;align=center;verticalAlign=middle;whiteSpace=wrap;rounded=0;fontSize=23;fontStyle=1" parent="1" vertex="1">
          <mxGeometry x="1234" y="1511.5" width="260" height="30" as="geometry" />
        </mxCell>
        <mxCell id="G6Lhowh1Pa0SqgQ5u8BN-14" value="&lt;ol style=&quot;border-color: var(--border-color); text-align: left; font-size: 18px;&quot;&gt;&lt;li style=&quot;border-color: var(--border-color); font-size: 18px;&quot;&gt;Handshake happens by exchanging keys&lt;/li&gt;&lt;li style=&quot;border-color: var(--border-color); font-size: 18px;&quot;&gt;share VC over Bluetooth (No internet required)&lt;/li&gt;&lt;/ol&gt;" style="text;html=1;strokeColor=none;fillColor=none;align=center;verticalAlign=middle;whiteSpace=wrap;rounded=0;fontSize=18;" parent="1" vertex="1">
          <mxGeometry x="1250" y="1558.83" width="270" height="110" as="geometry" />
        </mxCell>
      </root>
    </mxGraphModel>
  </diagram>
</mxfile>
